<?xml version="1.0" encoding="UTF-8"?>
<svg id="Layer_2" data-name="Layer 2" xmlns="http://www.w3.org/2000/svg" viewBox="0 0 1608.53 396.9">
  <defs>
    <style>
      .cls-1, .cls-2 {
        fill: #fff;
      }

      .cls-2 {
        font-family: CenturyGothicPro-Bold, 'Century Gothic Pro';
        font-size: 46.89px;
        font-weight: 700;
      }
    </style>
  </defs>
  <g id="Layer_1-2" data-name="Layer 1">
    <g>
      <path class="cls-1" d="M0,116.25h31.33v-58.09s45.25,0,45.25,0v58.09h31.33v41.59h-31.33v239.04H31.35l-.02-239.04H0v-41.59ZM123.87,116.25h437.83v42.82H123.87v-42.82ZM275.9,252.99c-5.91-11.2-13.44-19.58-22.52-25.16-9.21-5.59-20.07-8.38-32.57-8.38-16.66,0-30.57,6.12-41.81,18.3-11.19,12.23-16.75,27.55-16.75,46.04s5.73,33.33,17.16,45.47c11.47,12.05,25.85,18.11,43.1,18.11,13.32,0,24.39-2.9,33.22-8.67,8.83-5.79,15.45-14.44,19.81-26.01h52.36c-6.44,26.21-18.88,46.86-37.39,61.74-18.64,15.01-41.13,22.45-67.57,22.45-15.64,0-30.12-2.8-43.37-8.47-13.36-5.64-25.34-14.02-36.1-25.08-9.96-10.37-17.77-22.55-23.39-36.53-5.59-13.99-8.44-28.15-8.44-42.61s2.56-29.22,7.68-42.33c5.12-13.1,12.68-24.97,22.68-35.47,10.97-11.83,23.29-20.83,37.15-26.9,13.86-6.09,28.66-9.2,44.55-9.2,25.87,0,48.24,7.46,67.19,22.44,18.88,14.9,31.37,35.01,37.36,60.25h-52.36ZM400.4,299.78c1.68,15.43,7.72,27.69,18.14,36.5,10.38,8.94,23.93,13.39,40.4,13.39,10.97,0,20.83-2.3,29.57-6.98,8.77-4.73,15.73-11.23,20.83-19.7h53c-8.98,23.39-22.34,41.52-40.18,54.52-17.82,12.91-38.43,19.37-61.9,19.37-15.73,0-30.23-2.8-43.38-8.47-13.27-5.64-25.14-14.02-35.69-25.08-9.97-10.52-17.65-22.7-23.17-36.53-5.49-13.85-8.25-28.03-8.25-42.63s2.54-28.99,7.59-42.19c5.05-13.22,12.51-25.09,22.29-35.59,10.79-11.59,22.94-20.49,36.51-26.71,13.55-6.24,27.48-9.39,42.03-9.39,18.23,0,35.31,4.19,51.13,12.66,15.9,8.46,29.36,20.38,40.52,35.7,6.8,9.24,11.78,19.58,15.1,30.99,3.19,11.44,4.85,24.56,4.85,39.39,0,1.13-.07,2.94-.16,5.32-.17,2.48-.26,4.2-.26,5.4l-168.98.03ZM516.81,260.17c-4.16-14.31-11.24-25.17-21.19-32.69-9.9-7.44-22.41-11.2-37.42-11.2-13.15,0-24.76,4.07-35.16,12.11-10.37,8.09-17.36,18.66-20.94,31.77h114.71ZM577.7,116.25h31.3v-58.09h45.24v58.09h31.35v41.59h-31.35v239.06h-45.24v-239.06h-31.3v-41.59Z"/>
      <g>
        <path class="cls-1" d="M789.8,103.87h20.08c8.96,0,17.24.45,25.29,3.74,14.63,5.9,23.36,19.96,23.36,37.88,0,23.25-14.06,39.81-40.26,39.81h-28.47v-81.43ZM809.99,177.36c15.42,0,25.63-1.36,32.89-10.21,4.65-5.67,7.15-13.04,7.15-21.55s-2.27-15.65-6.81-21.55c-7.71-10.1-19.28-12.25-36.97-12.25h-8.28v65.56h12.02Z"/>
        <path class="cls-1" d="M878.03,155.81c.34,13.84,9.75,23.93,22.68,23.93s18.6-7.15,23.02-14.4l6.47,3.4c-6.12,12.02-15.54,18.03-28.69,18.03-19.96,0-31.42-15.31-31.42-31.42s12.13-31.87,30.96-31.87c17.13,0,30.96,12.36,31.19,32.33h-54.21ZM923.74,149.01c-3.17-12.48-12.13-18.03-22.57-18.03s-18.83,5.78-22.34,18.03h44.91Z"/>
        <path class="cls-1" d="M951.75,155.81c.34,13.84,9.75,23.93,22.68,23.93s18.6-7.15,23.02-14.4l6.47,3.4c-6.12,12.02-15.54,18.03-28.69,18.03-19.96,0-31.42-15.31-31.42-31.42s12.13-31.87,30.96-31.87c17.13,0,30.96,12.36,31.19,32.33h-54.21ZM997.46,149.01c-3.17-12.48-12.13-18.03-22.57-18.03s-18.83,5.78-22.34,18.03h44.91Z"/>
        <path class="cls-1" d="M1069.01,185.3h-7.71v-30.85c0-4.65-.45-8.51-.57-11.23-.34-6.58-5.67-12.25-13.61-12.25-5.33,0-10.66,2.61-14.06,7.03-4.31,5.56-5.1,12.7-5.1,21.78v25.52h-7.71v-60.22h7.71v10.32c5.33-7.71,12.02-11.91,20.64-11.91,9.19,0,15.76,4.76,19.06,14.52,5.33-9.64,13.27-14.52,22.12-14.52,12.47,0,20.53,8.96,20.53,26.09v35.73h-7.71v-32.89c0-4.42-.57-7.94-.68-10.21-.34-5.33-5.44-11.23-13.61-11.23-7.49,0-14.06,4.54-17.13,12.25-1.93,4.88-2.15,10.21-2.15,15.76v26.31Z"/>
        <path class="cls-1" d="M1131.84,155.81c.34,13.84,9.75,23.93,22.68,23.93s18.6-7.15,23.02-14.4l6.47,3.4c-6.12,12.02-15.54,18.03-28.69,18.03-19.96,0-31.42-15.31-31.42-31.42s12.13-31.87,30.96-31.87c17.13,0,30.96,12.36,31.19,32.33h-54.21ZM1177.54,149.01c-3.17-12.48-12.13-18.03-22.57-18.03s-18.83,5.78-22.34,18.03h44.91Z"/>
        <path class="cls-1" d="M1252.96,174.98c-6.58,7.94-14.86,11.79-24.27,11.79-17.58,0-30.85-14.63-30.85-31.76s13.61-31.53,31.08-31.53c9.75,0,18.03,4.2,24.04,12.59v-34.25h7.71v83.48h-7.71v-10.32ZM1205.78,155.25c0,13.04,10.21,24.5,23.7,24.5,12.36,0,23.93-9.3,23.93-24.27,0-13.95-10.32-24.5-23.82-24.5s-23.82,11.34-23.82,24.27Z"/>
        <path class="cls-1" d="M1302.74,111.81v-7.94h44.69v7.94h-18.15v73.49h-8.17v-73.49h-18.37Z"/>
        <path class="cls-1" d="M1412.3,155.36c0,17.13-13.27,31.53-31.42,31.53s-31.42-14.4-31.42-31.53,13.38-31.87,31.42-31.87,31.42,14.63,31.42,31.87ZM1357.4,155.47c0,13.16,9.87,23.93,23.48,23.93s23.48-10.77,23.48-23.93-10.66-24.5-23.48-24.5-23.48,11.11-23.48,24.5Z"/>
        <path class="cls-1" d="M1459.47,185.3v-81.43h17.24c17.13,0,24.95,8.39,24.95,19.85,0,7.14-3.4,13.27-10.43,17.13,11.34,3.85,17.13,10.89,17.13,21.1,0,12.13-9.41,23.36-26.54,23.36h-22.34ZM1467.63,138.01h5.44c6.12,0,10.89-.79,14.29-3.06,3.63-2.38,5.78-6.69,5.78-11.23,0-7.26-5.44-11.91-14.86-11.91h-10.66v26.2ZM1467.63,177.36h9.87c3.51,0,7.03-.57,9.75-.79,5.44-.45,12.59-6.35,12.59-14.52,0-5.33-2.95-10.32-7.94-13.04-4.76-2.61-11.12-3.06-18.72-3.06h-5.56v31.42Z"/>
        <path class="cls-1" d="M1528.19,155.81c.34,13.84,9.75,23.93,22.68,23.93s18.6-7.15,23.02-14.4l6.47,3.4c-6.12,12.02-15.54,18.03-28.69,18.03-19.96,0-31.42-15.31-31.42-31.42s12.13-31.87,30.96-31.87c17.13,0,30.96,12.36,31.19,32.33h-54.21ZM1573.9,149.01c-3.17-12.48-12.13-18.03-22.57-18.03s-18.83,5.78-22.34,18.03h44.91Z"/>
        <path class="cls-1" d="M767.21,263.39h22.2v78.74c0,12.64,6.16,19.12,16.85,19.12,6.32,0,11.99-2.59,14.74-6.96,2.43-3.73,2.75-9.07,2.75-15.23v-75.66h22.2v74.04c0,12.8-.65,22.52-9.4,32.72-7.45,8.59-17.17,12.31-29.81,12.31s-21.55-3.4-28.84-11.02c-9.4-9.72-10.69-20.25-10.69-35.32v-72.74Z"/>
        <path class="cls-1" d="M871.71,263.39h21.22l49.9,76.47v-76.47h22.2v116.33h-21.39l-49.74-76.31v76.31h-22.2v-116.33Z"/>
        <path class="cls-1" d="M989.97,263.39h22.2v116.33h-22.2v-116.33Z"/>
        <path class="cls-1" d="M1028.05,263.39h22.84l29.16,82.63,29.81-82.63h22.68l-41.96,116.33h-21.22l-41.31-116.33Z"/>
        <path class="cls-1" d="M1150.53,263.39h63.51v21.71h-41.32v20.74h41.32v21.71h-41.32v30.46h41.32v21.71h-63.51v-116.33Z"/>
        <path class="cls-1" d="M1236.07,263.39h27.06c14.74,0,25.11,1.78,32.89,9.39,5.83,5.67,9.4,14.42,9.4,24.3,0,15.23-7.61,25.6-22.36,30.94l27.54,51.68h-24.14l-26.08-49.25h-2.11v49.25h-22.2v-116.33ZM1258.26,308.91h10.21c10.04,0,15.23-4.05,15.23-11.99s-5.35-11.83-15.88-11.83h-9.56v23.82Z"/>
        <path class="cls-1" d="M1337.16,346.18c5.35,10.04,11.5,15.23,19.28,15.23s13.45-4.86,13.45-10.86c0-4.21-2.75-9.07-7.45-12.96-24.14-20.25-38.4-31.27-38.4-47.79s14.42-29.32,31.92-29.32c14.74,0,24.46,7.94,33.7,18.63l-16.53,14.58c-5.51-7.78-11.18-11.99-17.5-11.99-5.83,0-9.88,3.4-9.88,8.1s3.4,7.45,6.81,10.37c21.71,19.12,39.05,28.19,39.05,49.41,0,19.44-14.58,33.05-35.64,33.05-17.01,0-28.84-8.26-37.42-25.28l18.63-11.18Z"/>
        <path class="cls-1" d="M1411.2,263.39h22.2v116.33h-22.2v-116.33Z"/>
        <path class="cls-1" d="M1446.68,263.39h64.32v21.71h-21.39v94.62h-22.19v-94.62h-20.74v-21.71Z"/>
        <path class="cls-1" d="M1517.96,263.39h23.82l21.71,41.64,21.38-41.64h23.65l-34.02,65.94v50.39h-22.19v-50.39l-34.35-65.94Z"/>
      </g>
      <rect class="cls-1" x="726.79" y="101.83" width="3.78" height="280.81"/>
      <text class="cls-2" transform="translate(0 46.7)"><tspan x="0" y="0">ZCT’s</tspan></text>
    </g>
  </g>
</svg>