<svg id="Layer_1" height="300" viewBox="0 0 120 120" width="300" xmlns="http://www.w3.org/2000/svg" version="1.1" xmlns:xlink="http://www.w3.org/1999/xlink" xmlns:svgjs="http://svgjs.dev/svgjs"><g width="100%" height="100%" transform="matrix(1,0,0,1,0,0)"><g fill="#3773b5"><path d="m93.41 26.18c-2.8 7.22-10.08 20.15-19.57 22.82-4.61 1.29-8.17.83-10.4.18v20.89l4.38 33.64c.34 2.54-1.39 4.84-3.91 5.24-.25.03-.5.05-.74.05-2.19 0-4.13-1.54-4.58-3.76l-6.06-30.07-6.06 30.07c-.45 2.22-2.39 3.76-4.58 3.76-.25 0-.49-.02-.74-.05-2.32-.37-3.96-2.33-3.96-4.62 0-.2.01-.41.04-.62l4.39-33.72v-18.66c-2.44 2.37-4.89 8.55-6.76 17.23-.25 1.17-.95 2.16-1.97 2.78-.69.42-1.47.64-2.25.64-.38 0-.76-.05-1.14-.16-2.09-.56-3.46-2.6-3.19-4.74 1.83-14.22 8.02-28.61 16.31-28.61h19.5c.24 0 .49.01.73.03 13.88 1.05 19.77-9.16 22.03-15.35.77-2.08 2.84-3.38 4.93-3.08 1.39.2 2.58 1 3.28 2.2.7 1.19.82 2.62.32 3.91z" fill="#223d77" fill-opacity="1" data-original-color="#3773b5ff" stroke="none" stroke-opacity="1"/><ellipse cx="52.53" cy="23.08" rx="12.08" ry="12.08" transform="matrix(.924 -.383 .383 .924 -4.833 21.861)" fill="#223d77" fill-opacity="1" data-original-color="#3773b5ff" stroke="none" stroke-opacity="1"/></g></g></svg>