<svg id="Layer_1" viewBox="0 0 64 64" xmlns="http://www.w3.org/2000/svg" data-name="Layer 1" width="300" height="300" version="1.1" xmlns:xlink="http://www.w3.org/1999/xlink" xmlns:svgjs="http://svgjs.dev/svgjs"><g width="100%" height="100%" transform="matrix(1,0,0,1,0,0)"><path d="m58.77 11.48a1.2 1.2 0 0 0 1.14-.32l3.74-3.74a1.19 1.19 0 0 0 -.54-2l-2.95-.72a1.18 1.18 0 0 1 -.86-.86l-.72-2.94a1.19 1.19 0 0 0 -2-.54l-3.74 3.73a1.2 1.2 0 0 0 -.32 1.14l.67 2.77-21 21h-.19a3 3 0 1 0 3 3c0-.05 0-.1 0-.16l3.16-3.16a6.94 6.94 0 0 1 .84 3.09 7.09 7.09 0 0 1 -6.88 7.23 7 7 0 0 1 -2-13.72 1.07 1.07 0 0 0 .46-.27l4.87-4.87a1.09 1.09 0 0 0 -.57-1.84 13.69 13.69 0 0 0 -5.54 0 14 14 0 1 0 16.51 15.7 13.93 13.93 0 0 0 -2.65-10.37l4.28-4.28a20 20 0 1 1 -7.19-5.54 1.53 1.53 0 0 0 1.71-.29l3.71-3.71a1.51 1.51 0 0 0 -.33-2.4 28.11 28.11 0 1 0 7.75 6.26l2.87-2.86z" fill="#223d77" fill-opacity="1" data-original-color="#000000ff" stroke="none" stroke-opacity="1"/></g></svg>