<?xml version="1.0" encoding="UTF-8"?>
<svg id="Layer_2" data-name="Layer 2" xmlns="http://www.w3.org/2000/svg" viewBox="0 0 325.73 96.42">
  <defs>
    <style>
      .cls-1, .cls-2, .cls-3 {
        font-family: CenturyGothicPro, 'Century Gothic Pro';
        font-size: 9.65px;
      }

      .cls-4 {
        font-size: 11.99px;
      }

      .cls-4, .cls-5 {
        font-family: CenturyGothicPro-Bold, 'Century Gothic Pro';
        font-weight: 700;
      }

      .cls-6, .cls-5 {
        fill: #fff;
      }

      .cls-2 {
        letter-spacing: -.05em;
      }

      .cls-7 {
        letter-spacing: -.05em;
      }

      .cls-8, .cls-3 {
        letter-spacing: 0em;
      }

      .cls-5 {
        font-size: 25.72px;
      }
    </style>
  </defs>
  <g id="Layer_1-2" data-name="Layer 1">
    <g>
      <text class="cls-5" transform="translate(0 36.27)"><tspan x="0" y="0">Thakur College of </tspan><tspan x="0" y="26.89">Engineering &amp; </tspan><tspan class="cls-7" x="179.04" y="26.89">T</tspan><tspan x="188.56" y="26.89">echnology</tspan></text>
      <path class="cls-6" d="M209.32,14.68s.03.02.05.03c.11,0,.34-.13.67-.4.33-.27.66-.59.97-.96,1-1.2,1.8-2.69,2.4-4.45.6-1.76.89-3.54.89-5.34,0-.85-.11-1.65-.34-2.41-.23-.76-.41-1.14-.55-1.14-.03,0-.05.02-.07.05-.03.03-.04.07-.04.11,0,.01.01.07.04.18.19.72.29,1.45.29,2.2,0,.8-.09,1.7-.27,2.71-.18,1.01-.44,2.08-.78,3.22-.28.93-.57,1.74-.87,2.44-.3.7-.63,1.34-.99,1.89-.27.43-.58.84-.91,1.22-.34.38-.51.58-.51.6,0,.03,0,.05.02.06M206.62,10.12c.08.08.2.12.35.12.18,0,.33-.06.44-.17.11-.11.17-.26.17-.43,0-.15-.04-.26-.12-.34-.08-.08-.19-.12-.34-.12-.17,0-.32.06-.44.17-.12.12-.18.26-.18.43,0,.15.04.26.13.34ZM203.28,9.18c0,.37.07.65.2.82.13.17.34.26.63.26s.61-.15,1-.46c.39-.31.59-.52.59-.63,0-.03,0-.06-.01-.08-.01-.02-.04-.03-.06-.03-.49.32-.9.48-1.22.48-.1,0-.18,0-.25,0-.07,0-.14-.02-.2-.02.44-1.05.81-2.39,1.14-3.99.33-1.61.57-2.64.72-3.1.27-.81.65-1.47,1.16-1.99.09-.09.14-.15.14-.18,0-.01,0-.02-.03-.04-.02-.01-.04-.02-.07-.02h-.25c-.45.36-.84.83-1.17,1.43-.33.6-.62,1.36-.87,2.3l-.65,2.32c-.17-.05-.3-.09-.4-.1-.1-.02-.19-.03-.28-.03-.35,0-.73.09-1.12.26-.4.18-.78.43-1.15.77-.38.33-.68.68-.88,1.02-.2.35-.3.68-.3,1,0,.36.1.64.3.82.21.18.52.27.93.27.3,0,.59-.07.88-.22.28-.15.69-.48,1.24-.99v.13ZM202.84,9.12c-.37.28-.78.42-1.22.42-.3,0-.5-.05-.61-.14-.11-.09-.16-.26-.16-.51,0-.58.26-1.14.76-1.68.51-.54,1.06-.81,1.64-.81.23,0,.38.04.48.11.09.08.14.2.14.37,0,.05,0,.11-.02.19-.01.08-.03.17-.07.27l-.21.72c-.12.42-.37.77-.74,1.05ZM196.63,12.86c-.37.82-.73,1.22-1.07,1.22-.48,0-.85-.04-1.11-.13-.26-.09-.39-.21-.39-.37,0-.11.09-.27.27-.47.18-.2.27-.34.27-.41,0-.03,0-.05-.01-.06,0-.01-.02-.02-.04-.02-.04,0-.08.02-.12.05-.04.03-.11.09-.21.18l-.35.34c-.17.17-.29.33-.38.48-.09.15-.14.28-.14.38,0,.16.1.29.31.4.2.11.46.17.77.17.82,0,1.49-.21,2.03-.63.53-.42.99-1.11,1.36-2.07.15-.38.31-.86.48-1.43.17-.57.33-1.17.48-1.81.1-.38.17-.72.21-1.02.05-.3.07-.55.07-.74,0-.28-.09-.48-.28-.6-.2-.12-.5-.19-.92-.19-.96,0-1.81.3-2.57.91-.76.6-1.13,1.29-1.13,2.06,0,.38.1.66.29.82.19.17.5.25.93.25s.86-.12,1.25-.35c.39-.24.86-.65,1.38-1.23-.55,2.04-1.02,3.46-1.39,4.28ZM198.11,6.54c.13.11.19.27.19.46,0,.61-.24,1.18-.74,1.71-.49.52-1.09.79-1.79.79-.31,0-.52-.04-.61-.12-.1-.08-.14-.24-.14-.47,0-.39.08-.74.24-1.04.16-.3.39-.58.72-.84.25-.2.53-.36.83-.48.3-.12.56-.18.78-.18s.39.06.52.17ZM189.44,8.69c-.25.24-.38.49-.38.76s.09.44.27.55c.18.11.49.17.93.17h1.54c.42,0,.72-.04.9-.11.17-.08.4-.26.67-.53l.34-.32s.04-.05.06-.09c.02-.03.02-.06.02-.1,0-.02,0-.04-.02-.06-.01-.02-.03-.02-.06-.02-.04,0-.09.03-.17.11-.32.3-.79.45-1.39.45h-1.31c-.38,0-.63-.03-.75-.09-.12-.06-.19-.17-.19-.33s.09-.32.27-.48c.18-.16.45-.31.83-.47.09.02.16.03.23.04.07,0,.12.01.18.01.29,0,.52-.04.68-.13.17-.09.25-.2.25-.35,0-.06-.11-.11-.31-.12-.21,0-.38-.03-.54-.06-.38-.07-.65-.15-.79-.22-.15-.07-.23-.17-.23-.28,0-.15.07-.28.2-.38.13-.11.29-.16.47-.16.16,0,.38.07.67.22.29.15.51.22.66.22.18,0,.38-.08.59-.24.22-.16.32-.29.32-.39,0-.04-.03-.07-.07-.09-.05-.02-.14-.03-.27-.03h-.16c-.15,0-.37,0-.67-.03-.3-.02-.52-.03-.67-.03-.44,0-.81.12-1.12.36-.31.24-.45.53-.45.88,0,.21.05.36.14.45.1.1.27.17.53.21-.52.21-.91.44-1.17.68ZM188.19,5.81c.5-.13.94-.33,1.3-.6.53-.38.95-.84,1.28-1.36.33-.52.49-1,.49-1.44,0-.54-.2-.96-.6-1.26-.4-.3-.95-.45-1.67-.45-1.29,0-2.41.35-3.36,1.05-.96.7-1.63,1.67-2.03,2.9-.14.44-.34,1.16-.57,2.15-.24.99-.48,1.64-.75,1.95-.22.27-.57.47-1.07.59-.49.12-1.15.19-1.99.19-.91,0-1.58-.06-2.03-.19-.44-.12-.66-.31-.66-.56,0-.28.28-.57.84-.86.56-.29,1.33-.55,2.31-.76.1-.02.24-.05.44-.09.84-.16,1.45-.5,1.83-1.02-2,.47-3.44.93-4.34,1.38-.9.45-1.34.93-1.34,1.45,0,.41.25.75.77,1,.5.25,1.18.38,2.03.38.73,0,1.38-.11,1.94-.31.56-.21,1.05-.53,1.48-.97.63-.63,1.2-1.77,1.74-3.43.11-.34.19-.59.25-.76.46-1.32,1.04-2.29,1.75-2.91.7-.62,1.58-.93,2.62-.93.52,0,.9.1,1.14.29.24.19.36.5.36.92s-.12.87-.36,1.38c-.24.51-.54.94-.9,1.29-.33.32-.7.55-1.11.7-.41.15-.87.23-1.39.23h-.42c-.28-.33-.53-.6-.75-.8-.23-.21-.37-.31-.45-.31-.04,0-.08.02-.1.05-.02.03-.03.07-.03.12,0,.23.1.48.3.76.03.05.06.09.08.12.25.38.55,1.12.9,2.23.08.25.14.44.19.57.02.04.03.12.07.21.36,1.12.91,1.97,1.64,2.55.17.14.34.26.49.35.15.09.25.14.29.14.02,0,.04,0,.05-.02.01-.01.02-.03.02-.05,0,0-.14-.14-.4-.41-.26-.27-.48-.57-.66-.88-.15-.28-.37-.91-.65-1.9-.28-.99-.56-1.81-.86-2.46.76-.01,1.38-.08,1.88-.2ZM176.42.03s-.03-.02-.06-.03c-.11,0-.33.13-.67.4-.33.27-.65.59-.97.97-1,1.21-1.8,2.68-2.39,4.44-.59,1.76-.89,3.53-.89,5.33,0,.85.11,1.66.34,2.42.23.76.42,1.14.56,1.14.03,0,.05-.02.07-.05.02-.03.03-.07.03-.1,0-.02-.01-.08-.04-.18-.2-.72-.3-1.45-.3-2.2s.09-1.68.27-2.68c.18-1.01.44-2.09.79-3.24.28-.93.57-1.74.87-2.44.3-.7.63-1.33.98-1.9.27-.43.57-.84.91-1.22.34-.38.51-.58.51-.6,0-.03,0-.05-.02-.06ZM164.49,7.92c.3.28.45.49.45.65,0,.22-.12.43-.35.62-.23.19-.52.28-.89.28h-.67c-.09,0-.17.01-.22.03-.05.02-.08.05-.1.11l-.24.56h2.14c.38,0,.8-.16,1.25-.48.44-.32.66-.55.66-.69,0-.02,0-.02-.02-.03-.01,0-.03-.01-.05-.01-.05,0-.2.09-.45.26-.26.17-.58.25-.97.25h-.44c.29-.16.52-.36.68-.58.16-.23.24-.48.24-.74,0-.29-.14-.57-.42-.86-.28-.29-.43-.51-.46-.66.11-.08.27-.16.46-.25.24-.11.36-.23.36-.38,0-.09-.03-.15-.09-.2-.06-.04-.14-.07-.26-.07-.25,0-.48.08-.7.24-.21.16-.51.53-.9,1.12-.05.08-.12.18-.21.32-.26.37-.38.6-.38.69,0,.02,0,.04.02.06.01.02.03.02.04.02.07,0,.21-.13.41-.39.2-.27.4-.5.6-.71.05.3.23.58.53.85ZM160.86,4.21s.05.03.09.03c.03,0,.13-.06.28-.19.15-.12.32-.28.52-.47.37-.36.65-.71.85-1.03.19-.32.28-.62.28-.89,0-.15-.04-.26-.12-.34-.08-.08-.19-.12-.33-.12-.36,0-.55.32-.59.95,0,.28-.03.48-.07.6-.07.28-.25.57-.53.88-.28.31-.42.48-.42.5,0,.03.01.06.04.08ZM157.13,10.16c.52,0,1-.14,1.45-.44.45-.29.68-.53.68-.72,0-.02,0-.04-.03-.05-.03-.01-.06-.02-.1-.02-.03,0-.08.03-.16.1-.32.29-.73.44-1.24.44h-1.45c.28-.37.52-.78.71-1.24.19-.45.34-.98.46-1.59h1.48c.13,0,.21-.03.24-.1.03-.06.04-.18.04-.35,0-.03-.02-.05-.05-.07-.04-.01-.08-.02-.13-.02h-1.47c.19-1.01.45-1.91.78-2.72.05-.12.07-.19.07-.2,0-.02-.02-.03-.03-.04-.02-.01-.04-.01-.08-.01h-.28c-.25.34-.47.75-.68,1.2-.2.46-.42,1.05-.64,1.77h-.45c-.13,0-.21.03-.23.09-.03.07-.04.18-.04.36,0,.02.02.04.05.06.03.02.08.02.13.02h.45c-.05.18-.12.45-.21.8-.32,1.28-.58,2.18-.77,2.7h1.49ZM153.42,7.92c.3.28.45.49.45.65,0,.22-.12.43-.34.62-.23.19-.53.28-.9.28h-.67c-.09,0-.16.01-.21.03-.05.02-.08.05-.1.11l-.24.56h2.13c.39,0,.8-.16,1.24-.48.45-.32.67-.55.67-.69,0-.02-.01-.02-.02-.03-.01,0-.03-.01-.05-.01-.04,0-.2.09-.45.26-.25.17-.58.25-.97.25h-.45c.29-.16.52-.36.68-.58.16-.23.24-.48.24-.74,0-.29-.14-.57-.42-.86-.28-.29-.43-.51-.46-.66.11-.08.27-.16.46-.25.24-.11.36-.23.36-.38,0-.09-.03-.15-.09-.2-.06-.04-.14-.07-.26-.07-.25,0-.48.08-.69.24-.21.16-.51.53-.91,1.12-.05.08-.12.18-.21.32-.25.37-.38.6-.38.69,0,.02,0,.04.02.06.01.02.03.02.04.02.07,0,.21-.13.41-.39.2-.27.4-.5.6-.71.05.3.23.58.53.85ZM149.01,9.99c.13.16.32.24.58.24.31,0,.66-.16,1.08-.49.42-.33.62-.55.62-.65,0-.02,0-.04-.02-.05-.02-.02-.04-.03-.07-.03-.02,0-.08.03-.18.1-.39.26-.73.39-1.03.39h-.7c.28-.59.47-1.08.56-1.47.09-.39.14-.79.14-1.21,0-.17,0-.3,0-.4,0-.1,0-.2,0-.29h-.62s0,.04,0,.04c0,.99-.21,1.79-.64,2.41-.42.61-.96.92-1.62.92-.23,0-.39-.04-.48-.12-.09-.08-.14-.22-.14-.42s.08-.52.24-.98c.16-.46.24-.81.24-1.06,0-.28-.09-.58-.28-.88-.18-.3-.34-.45-.45-.45-.04,0-.07.01-.09.02-.02.01-.03.03-.03.05.17.37.26.65.26.83,0,.27-.13.66-.39,1.19-.26.53-.38.94-.38,1.24,0,.37.11.68.34.93.23.24.51.37.86.37.25,0,.52-.09.8-.27.28-.18.63-.49,1.04-.94.11.49.22.82.35.98ZM141.35,7.7c-.15.26-.22.41-.22.43,0,0,0,.02,0,.02,0,0,.02,0,.04,0,.09,0,.23-.12.42-.37.19-.25.35-.56.49-.92h1.6c-.54.53-.91.97-1.11,1.31-.2.35-.3.7-.3,1.08,0,.34.07.6.23.78.15.17.38.26.69.26.38,0,.78-.16,1.21-.47.43-.31.65-.53.65-.65,0-.03,0-.05-.02-.06-.01-.02-.03-.02-.04-.02-.03,0-.18.08-.48.24-.29.16-.57.24-.84.24-.24,0-.4-.04-.5-.13-.09-.09-.13-.25-.13-.5,0-.5.12-.95.36-1.36.24-.41.69-.87,1.34-1.4h-2.61c0-.12-.04-.21-.1-.28-.07-.07-.17-.1-.28-.1-.17,0-.31.06-.43.18-.11.12-.17.27-.17.45,0,.15.04.26.1.33.06.07.16.11.28.11h.09c-.02.29-.1.57-.25.84ZM140.89,2.88c-.26.24-.49.52-.69.87-.29.5-.62,1.41-1,2.73-.22.78-.4,1.38-.53,1.79-.14.43-.27.72-.38.87-.1.15-.24.24-.39.28-.12.03-.28.06-.48.07-.2.01-.57.02-1.12.02h-2.22c-1.12,0-1.92.06-2.41.18-.49.12-.84.33-1.05.64h3.92c1.25,0,2.18-.1,2.78-.31.6-.2,1.14-.55,1.6-1.03.51-.52,1.04-1.75,1.6-3.68.1-.35.18-.61.23-.8l.03-.1c.32-1.13.88-1.9,1.69-2.31.06-.03.13-.06.21-.09.15-.05.22-.11.22-.16,0-.08-.24-.14-.72-.21-.2-.03-.36-.05-.49-.07-1.77-.26-3.24-.45-4.41-.56-1.17-.11-2.16-.17-2.98-.17-1.47,0-2.5.17-3.09.51-.59.34-.88.93-.88,1.75,0,.28.03.63.1,1.08.06.44.15.91.27,1.41.02.11.05.2.08.26.03.06.07.09.11.09.03,0,.07-.03.11-.08.04-.05.07-.12.1-.19l.21-.57c.03-.07.05-.15.07-.22.01-.08.02-.14.02-.19,0-.07-.04-.32-.1-.73-.06-.41-.1-.79-.1-1.13,0-.65.13-1.08.38-1.31.25-.22.73-.34,1.42-.34.4,0,1.06.05,1.98.15.92.1,1.96.23,3.12.4l3.7.56c-.35.16-.66.36-.92.59ZM121.6,8.69c-.26.24-.39.49-.39.76s.09.44.27.55c.19.11.49.17.93.17h1.54c.42,0,.72-.04.9-.11.18-.08.41-.26.67-.53l.34-.32s.04-.05.06-.09c.01-.03.02-.06.02-.1,0-.02,0-.04-.02-.06-.02-.02-.04-.02-.06-.02-.03,0-.09.03-.17.11-.32.3-.79.45-1.39.45h-1.32c-.37,0-.62-.03-.75-.09-.12-.06-.18-.17-.18-.33s.09-.32.27-.48c.18-.16.45-.31.83-.47.09.02.17.03.23.04.06,0,.13.01.17.01.29,0,.52-.04.68-.13.16-.09.24-.2.24-.35,0-.06-.1-.11-.31-.12-.21,0-.39-.03-.54-.06-.38-.07-.64-.15-.79-.22-.15-.07-.22-.17-.22-.28,0-.15.06-.28.2-.38.13-.11.29-.16.47-.16.16,0,.38.07.67.22.29.15.51.22.66.22.18,0,.37-.08.59-.24.21-.16.32-.29.32-.39,0-.04-.03-.07-.07-.09-.05-.02-.14-.03-.27-.03h-.16c-.15,0-.38,0-.67-.03-.3-.02-.52-.03-.66-.03-.44,0-.82.12-1.12.36-.3.24-.45.53-.45.88,0,.21.05.36.14.45.09.1.27.17.53.21-.53.21-.91.44-1.17.68ZM117.58,10.22c.23.01.52.02.85.02.57,0,.99-.04,1.24-.11.26-.08.51-.21.75-.39.22-.17.39-.32.51-.44.11-.12.17-.21.17-.27,0-.01,0-.03-.01-.04-.01-.01-.03-.02-.03-.02,0,0-.14.09-.42.27-.28.18-.65.27-1.14.27h-1.8c.73-1.15,1.45-3.29,2.16-6.41l.08-.34c.14-.62.37-1.17.67-1.64.3-.47.55-.7.76-.7.14,0,.27.09.39.27.12.18.18.4.18.64,0,.61-.37,1.18-1.1,1.74-.07.05-.11.09-.11.09,0,0,.01.02.03.03.01.01.04.01.06.01.05,0,.14-.04.28-.11.14-.08.29-.17.45-.29.38-.29.66-.58.85-.87.18-.29.28-.59.28-.89,0-.26-.09-.48-.26-.65-.17-.17-.41-.25-.69-.25-.57,0-1.09.31-1.57.92-.48.62-.89,1.5-1.22,2.65-.17.61-.4,1.44-.68,2.5-.55,2.08-.98,3.4-1.28,3.94.17.03.37.04.6.06ZM112.02,10.21c.2.01.41.01.64.01,1.01,0,1.85-.3,2.5-.92.65-.61.98-1.39.98-2.33,0-.08,0-.14,0-.19,0-.04,0-.08-.01-.12h.96c.12,0,.21-.04.26-.11.06-.07.09-.19.09-.35,0-.02-.01-.03-.04-.05-.03-.01-.06-.02-.1-.02h-2.77c-.12,0-.21.04-.26.11-.06.08-.09.19-.09.35,0,.02.02.04.05.05.03.01.06.02.09.02h.91c.15.12.25.25.32.39.07.14.1.32.1.53,0,.56-.19,1.02-.58,1.37-.39.36-.89.53-1.51.53h-1.01c.37-1.43.75-2.92,1.12-4.49.37-1.56.58-2.42.63-2.57.19-.62.41-1.11.66-1.46.25-.35.48-.53.71-.53.14,0,.26.08.37.25.11.16.17.36.17.59,0,.62-.35,1.21-1.04,1.74-.12.1-.18.15-.18.17,0,.01,0,.03.03.04.02.01.04.02.06.02.05,0,.13-.03.24-.09.11-.06.23-.15.37-.26.44-.33.75-.65.94-.94.2-.29.29-.59.29-.9,0-.29-.08-.51-.24-.66-.16-.15-.4-.23-.71-.23-.53,0-1.02.27-1.46.81-.44.54-.84,1.35-1.18,2.41-.17.51-.45,1.52-.83,3.03-.38,1.51-.72,2.75-1.02,3.74.18.02.36.04.56.05ZM109.03,9.98c.15.17.37.26.67.26.32,0,.66-.16,1.04-.49.38-.33.57-.55.57-.68,0-.02,0-.03-.02-.05-.02-.02-.04-.02-.06-.02-.03,0-.1.04-.19.12-.32.26-.7.39-1.12.39h-.58c.32-.62.56-1.14.72-1.56.17-.42.25-.72.25-.9,0-.29-.1-.52-.31-.68-.2-.17-.49-.25-.85-.25-.44,0-.86.07-1.25.22-.39.15-.77.38-1.16.69-.39.33-.69.67-.89,1.02-.2.36-.3.72-.3,1.1s.1.63.29.82c.19.18.48.27.87.27.33,0,.64-.08.94-.25.3-.16.65-.46,1.06-.9.06.42.17.71.32.89ZM109.38,6.48c.08.07.12.19.12.37,0,.28-.11.65-.33,1.11-.22.46-.48.82-.76,1.1-.17.16-.34.28-.52.35-.18.07-.43.1-.75.1-.31,0-.52-.05-.63-.14-.11-.09-.17-.25-.17-.48,0-.21.06-.44.18-.69.12-.25.29-.52.52-.8.3-.36.59-.62.89-.78.3-.16.64-.24,1.03-.24.21,0,.35.04.43.1ZM103.09,10.16c.52,0,1-.14,1.45-.44.45-.29.68-.53.68-.72,0-.02,0-.04-.03-.05-.02-.01-.06-.02-.1-.02-.03,0-.08.03-.16.1-.32.29-.73.44-1.24.44h-1.46c.29-.37.52-.78.71-1.24.19-.45.34-.98.46-1.59h1.48c.13,0,.21-.03.24-.1.03-.06.05-.18.05-.35,0-.03-.02-.05-.05-.07-.03-.01-.08-.02-.13-.02h-1.47c.19-1.01.45-1.91.78-2.72.05-.12.07-.19.07-.2,0-.02-.02-.03-.03-.04-.02-.01-.05-.01-.08-.01h-.27c-.25.34-.47.75-.68,1.2-.21.46-.42,1.05-.64,1.77h-.45c-.13,0-.21.03-.23.09-.03.07-.04.18-.04.36,0,.02.02.04.05.06.03.02.08.02.13.02h.45c-.05.18-.12.45-.21.8-.32,1.28-.58,2.18-.77,2.7h1.48ZM99.7,7.74c.06-.19.1-.33.13-.42.1-.32.22-.63.35-.93.03-.07.04-.11.04-.12,0-.05-.01-.08-.04-.1-.02-.02-.09-.03-.19-.03h-.45c-.15,0-.29.2-.4.59-.02.06-.03.1-.04.12-.18.61-.32,1.12-.42,1.53-.1.41-.14.7-.14.87,0,.33.09.59.26.76.17.18.42.27.75.27.34,0,.73-.17,1.16-.51.43-.34.64-.57.64-.69,0-.02-.01-.04-.04-.05-.02-.02-.05-.03-.07-.03-.02,0-.07.04-.17.11-.36.3-.75.45-1.17.45h-.95c.27-.43.51-1.04.75-1.82ZM100.11,5.47l.65-.69s.02-.03.04-.05c.21-.23.32-.42.32-.57,0-.11-.04-.18-.11-.23-.07-.04-.19-.07-.35-.07-.27,0-.46.11-.57.33-.11.22-.17.6-.17,1.15v.12h.2ZM94.1,7.7c-.15.26-.23.41-.23.43,0,0,0,.02.01.02,0,0,.02,0,.03,0,.09,0,.23-.12.42-.37.19-.25.35-.56.48-.92h1.6c-.54.53-.92.97-1.11,1.31-.2.35-.3.7-.3,1.08,0,.34.08.6.23.78.15.17.39.26.69.26.38,0,.78-.16,1.21-.47.43-.31.65-.53.65-.65,0-.03,0-.05-.02-.06-.01-.02-.03-.02-.04-.02-.03,0-.18.08-.48.24-.29.16-.57.24-.84.24-.24,0-.41-.04-.5-.13-.09-.09-.13-.25-.13-.5,0-.5.12-.95.36-1.36.24-.41.69-.87,1.34-1.4h-2.61c0-.12-.03-.21-.1-.28-.07-.07-.17-.1-.29-.1-.17,0-.31.06-.43.18-.11.12-.17.27-.17.45,0,.15.03.26.1.33.06.07.16.11.28.11h.09c-.02.29-.1.57-.25.84ZM91.14,9.98c.15.17.38.26.67.26.32,0,.66-.16,1.04-.49.38-.33.57-.55.57-.68,0-.02,0-.03-.02-.05-.02-.02-.04-.02-.06-.02-.04,0-.1.04-.19.12-.32.26-.69.39-1.12.39h-.58c.31-.62.56-1.14.72-1.56.16-.42.25-.72.25-.9,0-.29-.1-.52-.31-.68-.21-.17-.49-.25-.85-.25-.44,0-.86.07-1.25.22-.39.15-.77.38-1.16.69-.39.33-.69.67-.89,1.02-.2.36-.3.72-.3,1.1s.1.63.29.82c.2.18.49.27.87.27.33,0,.64-.08.94-.25.29-.16.65-.46,1.05-.9.06.42.17.71.33.89ZM91.49,6.48c.08.07.12.19.12.37,0,.28-.11.65-.33,1.11-.22.46-.47.82-.76,1.1-.17.16-.34.28-.52.35-.18.07-.43.1-.75.1-.31,0-.51-.05-.63-.14-.11-.09-.17-.25-.17-.48,0-.21.06-.44.18-.69.12-.25.29-.52.52-.8.3-.36.59-.62.89-.78.3-.16.64-.24,1.03-.24.21,0,.35.04.43.1ZM81.84,10.16c.18,0,.29-.02.34-.05.05-.04.11-.13.17-.28l.03-.08c.23-.57.44-1.05.64-1.44.26-.51.59-.93.97-1.24.39-.31.76-.47,1.11-.47.19,0,.34.05.44.13.1.09.15.22.15.4,0,.23-.11.54-.34.94-.22.39-.71,1.09-1.45,2.1h1.47c.48,0,.94-.14,1.37-.43.43-.29.65-.52.65-.69,0-.01-.01-.03-.03-.04-.02-.02-.05-.02-.07-.02-.02,0-.06.03-.13.08-.35.27-.75.41-1.18.41h-1.29c.67-.59,1.15-1.08,1.43-1.46.29-.39.43-.74.43-1.05,0-.28-.08-.49-.25-.64-.17-.15-.41-.22-.73-.22-.36,0-.74.12-1.14.36-.4.23-.81.59-1.24,1.07.68-3.08,1.18-5.03,1.51-5.84.33-.82.69-1.23,1.08-1.23.13,0,.26.08.37.25.11.16.17.36.17.59,0,.61-.34,1.18-1.01,1.72-.12.1-.18.16-.18.19,0,.02,0,.04.02.05.01.02.04.02.07.02.04,0,.13-.04.27-.13.14-.09.29-.2.43-.33.4-.34.69-.64.85-.91.17-.27.25-.55.25-.84s-.08-.51-.24-.66c-.16-.15-.4-.23-.71-.23-.53,0-1.02.27-1.46.81-.44.54-.84,1.35-1.18,2.41-.17.52-.44,1.53-.82,3.04-.38,1.51-.72,2.75-1.02,3.73h.27ZM74.84,9.79c.57.38,1.46.57,2.68.57.93,0,1.8-.15,2.6-.44.8-.29,1.2-.52,1.2-.68,0-.02,0-.04-.02-.06-.01-.01-.03-.02-.04-.02-.01,0-.06.01-.12.04-.81.31-1.97.46-3.48.46-1.18,0-1.99-.06-2.44-.19-.45-.13-.67-.35-.67-.67,0-.23.06-.5.17-.82.12-.32.36-.82.72-1.5.27-.52.53-.97.76-1.33.23-.37.48-.72.74-1.04.68-.86,1.37-1.54,2.08-2.05.7-.51,1.29-.76,1.76-.76.29,0,.51.08.66.24.15.16.23.39.23.7s-.12.75-.37,1.3c-.25.55-.6,1.18-1.07,1.9-.06.09-.14.21-.24.36-.15.22-.23.36-.23.4,0,.01,0,.03.03.04.02.01.03.02.05.02.04,0,.11-.05.18-.14.08-.09.24-.33.5-.69.7-1,1.19-1.81,1.48-2.41.29-.6.43-1.12.43-1.55,0-.18-.1-.32-.29-.43-.19-.11-.45-.16-.78-.16-.56,0-1.25.22-2.07.65-.82.43-1.62,1-2.4,1.72-.92.85-1.63,1.69-2.14,2.53-.51.84-.76,1.59-.76,2.26,0,.8.29,1.39.86,1.77ZM64.19,10.16c.17,0,.29-.02.34-.05.06-.04.11-.13.17-.28l.03-.08c.23-.57.44-1.05.64-1.44.26-.51.59-.93.97-1.24.39-.31.76-.47,1.11-.47.19,0,.34.05.44.13.1.09.15.22.15.4,0,.23-.11.54-.34.94-.22.39-.71,1.09-1.45,2.1h1.47c.49,0,.95-.14,1.38-.43.43-.29.64-.52.64-.69,0-.01,0-.03-.03-.04-.02-.02-.05-.02-.07-.02-.02,0-.06.03-.13.08-.36.27-.75.41-1.18.41h-1.28c.67-.59,1.15-1.08,1.43-1.46.29-.39.43-.74.43-1.05,0-.28-.08-.49-.25-.64-.17-.15-.41-.22-.73-.22-.36,0-.75.12-1.14.36-.4.23-.81.59-1.24,1.07.67-3.08,1.18-5.03,1.5-5.84.33-.82.69-1.23,1.08-1.23.13,0,.26.08.37.25.11.16.17.36.17.59,0,.61-.34,1.18-1.01,1.72-.12.1-.18.16-.18.19,0,.02,0,.04.02.05.02.02.04.02.07.02.04,0,.13-.04.27-.13.14-.09.29-.2.43-.33.4-.34.69-.64.86-.91.17-.27.25-.55.25-.84s-.08-.51-.24-.66c-.16-.15-.4-.23-.71-.23-.54,0-1.02.27-1.46.81-.44.54-.84,1.35-1.18,2.41-.17.52-.44,1.53-.82,3.04-.38,1.51-.72,2.75-1.02,3.73h.27ZM60.69,12.86c-.37.82-.73,1.22-1.07,1.22-.48,0-.85-.04-1.11-.13-.26-.09-.39-.21-.39-.37,0-.11.09-.27.27-.47.18-.2.28-.34.28-.41,0-.03-.01-.05-.01-.06,0-.01-.02-.02-.04-.02-.04,0-.08.02-.12.05-.05.03-.11.09-.21.18l-.35.34c-.17.17-.3.33-.39.48-.09.15-.14.28-.14.38,0,.16.1.29.3.4.2.11.46.17.77.17.82,0,1.49-.21,2.03-.63.54-.42.99-1.11,1.36-2.07.15-.38.32-.86.48-1.43.17-.57.33-1.17.48-1.81.09-.38.17-.72.22-1.02.05-.3.07-.55.07-.74,0-.28-.1-.48-.29-.6-.19-.12-.49-.19-.91-.19-.96,0-1.82.3-2.57.91-.76.6-1.14,1.29-1.14,2.06,0,.38.1.66.29.82.19.17.5.25.94.25s.85-.12,1.25-.35c.4-.24.86-.65,1.38-1.23-.56,2.04-1.02,3.46-1.39,4.28ZM62.18,6.54c.13.11.19.27.19.46,0,.61-.24,1.18-.74,1.71-.49.52-1.09.79-1.79.79-.32,0-.52-.04-.61-.12-.09-.08-.14-.24-.14-.47,0-.39.08-.74.23-1.04.15-.3.39-.58.72-.84.26-.2.54-.36.84-.48.3-.12.56-.18.78-.18s.39.06.52.17ZM52.4,10.16c.17,0,.28-.01.34-.05.05-.03.11-.13.18-.29.04-.08.13-.29.29-.62.16-.33.34-.72.56-1.16.2-.41.48-.76.85-1.03.37-.27.72-.41,1.07-.41.18,0,.32.05.41.13.09.09.13.22.13.39,0,.26-.15.65-.45,1.16-.3.51-.75,1.14-1.34,1.88h1.49c.49,0,.95-.14,1.38-.43.43-.29.65-.52.65-.69,0-.01-.01-.03-.03-.04-.02-.02-.05-.02-.07-.02-.02,0-.06.03-.13.08-.35.27-.75.41-1.18.41h-1.29c.68-.59,1.16-1.08,1.45-1.46.29-.39.43-.74.43-1.05,0-.28-.09-.49-.25-.64-.17-.15-.41-.22-.73-.22-.36,0-.71.11-1.08.32-.37.21-.79.57-1.27,1.06,0-.02,0-.04.01-.07.02-.19.02-.33.02-.42,0-.32-.06-.58-.16-.78-.11-.2-.29-.36-.53-.48v.2c0,.59-.08,1.22-.25,1.87-.17.66-.45,1.45-.84,2.37h.38ZM50.34,7.74c.06-.19.1-.33.13-.42.1-.32.22-.63.35-.93.03-.07.04-.11.04-.12,0-.05-.01-.08-.04-.1-.02-.02-.09-.03-.19-.03h-.45c-.15,0-.28.2-.4.59-.02.06-.03.1-.04.12-.18.61-.32,1.12-.42,1.53-.1.41-.15.7-.15.87,0,.33.09.59.26.76.17.18.43.27.75.27.34,0,.73-.17,1.15-.51.43-.34.64-.57.64-.69,0-.02-.01-.04-.03-.05-.02-.02-.05-.03-.08-.03-.02,0-.07.04-.17.11-.36.3-.75.45-1.17.45h-.95c.27-.43.51-1.04.75-1.82ZM50.75,5.47l.65-.69s.03-.03.04-.05c.21-.23.32-.42.32-.57,0-.11-.04-.18-.11-.23-.07-.04-.19-.07-.35-.07-.27,0-.46.11-.57.33-.11.22-.17.6-.17,1.15v.12h.2ZM39.52,7.51c-1.47.54-2.21,1.05-2.21,1.56,0,.4.45.7,1.33.9.89.2,2.2.3,3.93.3,1.87,0,3.25-.2,4.16-.59.91-.4,1.37-1,1.37-1.81s-.82-2.11-2.48-3.8c-.03-.03-.05-.05-.07-.07-.39-.4-.67-.72-.84-.96-.17-.24-.25-.43-.25-.58,0-.35.28-.66.85-.95.56-.29,1.23-.43,1.99-.43.55,0,.99.07,1.3.22.32.14.48.34.48.58,0,.12-.04.25-.11.4-.07.14-.11.23-.11.26,0,.03,0,.05.02.07.02.02.03.03.05.03.13,0,.29-.11.47-.33.17-.22.26-.44.26-.67,0-.29-.17-.52-.51-.67-.34-.15-.83-.23-1.46-.23-1.02,0-1.94.23-2.78.69-.84.46-1.25.92-1.25,1.38,0,.37.46,1.03,1.38,1.97.36.38.65.68.86.91,0,0,0,.01.01.01.91.99,1.36,1.83,1.36,2.51,0,.31-.06.59-.2.83-.13.24-.28.38-.44.4-.08.01-.36.03-.82.04-.46.01-1.03.02-1.69.02h-2.9c-1.52,0-2.51-.03-2.97-.09-.46-.06-.68-.18-.68-.34,0-.19.19-.41.58-.64.39-.24.93-.46,1.61-.66.84-.26,1.68-.46,2.54-.59.86-.13,1.72-.2,2.58-.2.19,0,.39,0,.6.02.06,0,.09,0,.1,0,.05,0,.09,0,.12,0,.03,0,.04-.01.04-.02,0-.03-.09-.1-.28-.2-.19-.1-.36-.21-.51-.33-2.14.18-3.94.53-5.42,1.07ZM31.74,9.99c.13.16.33.24.58.24.3,0,.66-.16,1.08-.49.42-.33.62-.55.62-.65,0-.02,0-.04-.03-.05-.02-.02-.04-.03-.06-.03-.02,0-.08.03-.18.1-.39.26-.73.39-1.03.39h-.7c.28-.59.47-1.08.56-1.47.1-.39.14-.79.14-1.21,0-.17,0-.3,0-.4,0-.1,0-.2-.01-.29h-.62s0,.04,0,.04c0,.99-.21,1.79-.64,2.41-.43.61-.96.92-1.61.92-.23,0-.39-.04-.48-.12-.09-.08-.14-.22-.14-.42s.08-.52.24-.98c.16-.46.24-.81.24-1.06,0-.28-.09-.58-.28-.88-.19-.3-.34-.45-.45-.45-.04,0-.07.01-.09.02-.02.01-.03.03-.03.05.17.37.26.65.26.83,0,.27-.13.66-.39,1.19-.26.53-.39.94-.39,1.24,0,.37.11.68.34.93.23.24.51.37.85.37.26,0,.52-.09.8-.27.28-.18.63-.49,1.05-.94.1.49.22.82.35.98ZM25.53,9.18c0,.37.07.65.2.82.13.17.34.26.63.26s.61-.15,1-.46c.39-.31.59-.52.59-.63,0-.03,0-.06-.02-.08-.01-.02-.03-.03-.06-.03-.49.32-.9.48-1.22.48-.1,0-.18,0-.25,0-.07,0-.14-.02-.2-.02.43-1.05.81-2.39,1.14-3.99.32-1.61.56-2.64.72-3.1.27-.81.65-1.47,1.16-1.99.09-.09.14-.15.14-.18,0-.01,0-.02-.03-.04-.02-.01-.04-.02-.07-.02h-.25c-.45.36-.84.83-1.17,1.43-.33.6-.62,1.36-.87,2.3l-.65,2.32c-.17-.05-.3-.09-.4-.1-.1-.02-.19-.03-.28-.03-.35,0-.73.09-1.12.26-.39.18-.78.43-1.15.77-.38.33-.68.68-.88,1.02-.2.35-.3.68-.3,1,0,.36.1.64.31.82.21.18.52.27.93.27.3,0,.59-.07.87-.22.28-.15.7-.48,1.24-.99v.13ZM25.1,9.12c-.37.28-.77.42-1.22.42-.3,0-.5-.05-.61-.14-.1-.09-.16-.26-.16-.51,0-.58.25-1.14.76-1.68.51-.54,1.05-.81,1.64-.81.23,0,.38.04.47.11.09.08.14.2.14.37,0,.05,0,.11-.02.19-.02.08-.04.17-.07.27l-.21.72c-.12.42-.37.77-.74,1.05ZM18.88,12.86c-.37.82-.73,1.22-1.07,1.22-.48,0-.85-.04-1.11-.13-.26-.09-.39-.21-.39-.37,0-.11.09-.27.27-.47.18-.2.27-.34.27-.41,0-.03,0-.05-.01-.06,0-.01-.02-.02-.04-.02-.04,0-.08.02-.13.05-.04.03-.11.09-.21.18l-.35.34c-.17.17-.3.33-.39.48-.09.15-.14.28-.14.38,0,.16.1.29.3.4.2.11.46.17.77.17.82,0,1.49-.21,2.03-.63.53-.42.99-1.11,1.36-2.07.15-.38.31-.86.48-1.43.17-.57.33-1.17.49-1.81.09-.38.16-.72.21-1.02.05-.3.07-.55.07-.74,0-.28-.09-.48-.28-.6-.19-.12-.49-.19-.91-.19-.96,0-1.82.3-2.57.91-.76.6-1.13,1.29-1.13,2.06,0,.38.09.66.29.82.19.17.51.25.94.25s.86-.12,1.25-.35c.4-.24.86-.65,1.38-1.23-.56,2.04-1.02,3.46-1.39,4.28ZM20.37,6.54c.13.11.19.27.19.46,0,.61-.25,1.18-.74,1.71-.49.52-1.09.79-1.79.79-.32,0-.52-.04-.61-.12-.09-.08-.14-.24-.14-.47,0-.39.08-.74.23-1.04.15-.3.39-.58.72-.84.26-.2.53-.36.83-.48.3-.12.56-.18.78-.18s.39.06.52.17ZM13.82,9.98c.15.17.38.26.67.26.32,0,.66-.16,1.04-.49.38-.33.57-.55.57-.68,0-.02,0-.03-.02-.05-.02-.02-.03-.02-.06-.02-.04,0-.1.04-.19.12-.32.26-.7.39-1.12.39h-.58c.32-.62.55-1.14.72-1.56.17-.42.25-.72.25-.9,0-.29-.1-.52-.31-.68-.2-.17-.49-.25-.85-.25-.44,0-.86.07-1.25.22-.39.15-.78.38-1.16.69-.39.33-.69.67-.89,1.02-.2.36-.3.72-.3,1.1s.1.63.29.82c.2.18.48.27.88.27.33,0,.64-.08.94-.25.29-.16.65-.46,1.05-.9.06.42.17.71.33.89ZM14.17,6.48c.08.07.12.19.12.37,0,.28-.11.65-.33,1.11-.22.46-.48.82-.76,1.1-.17.16-.34.28-.52.35-.18.07-.43.1-.75.1-.31,0-.52-.05-.63-.14-.11-.09-.17-.25-.17-.48,0-.21.06-.44.18-.69.12-.25.29-.52.52-.8.3-.36.59-.62.9-.78.3-.16.64-.24,1.02-.24.21,0,.35.04.43.1ZM4.8,8.68c.45-.31.87-.67,1.26-1.07.38-.39.91-1.09,1.6-2.09.69-1,1.25-1.76,1.68-2.27.49-.58.92-.99,1.28-1.25.36-.26.73-.41,1.11-.46,0,0,.03,0,.05,0,.24-.04.36-.1.36-.17,0-.12-.38-.24-1.15-.35-.77-.12-1.66-.17-2.67-.17-.83,0-1.64.08-2.45.25-.8.16-1.55.39-2.23.7-.47.21-.83.43-1.08.65-.25.22-.38.43-.38.64,0,.15.11.44.32.87.22.43.5.91.85,1.45,0,0,0,0,0,0,.19.28.47.43.83.43.17,0,.28,0,.33-.02.05-.02.08-.05.08-.09,0-.05-.12-.26-.35-.61-.11-.17-.2-.3-.26-.4-.28-.41-.48-.76-.62-1.05-.14-.29-.21-.52-.21-.68,0-.4.55-.81,1.66-1.23,1.11-.42,2.36-.63,3.76-.63.37,0,.78.02,1.25.06.47.04.98.09,1.55.16-.71.14-1.36.42-1.94.83-.58.42-1.26,1.14-2.04,2.15-.3.4-.72.97-1.26,1.72-1.05,1.5-1.88,2.47-2.49,2.91-.23.16-.44.28-.63.37-.2.09-.38.14-.55.15-.16.02-.42.04-.78.06-.36.02-.62.05-.79.09-.26.08-.48.18-.65.32C.08,10.08,0,10.21,0,10.35c.24-.01.48-.02.71-.02.23,0,.51,0,.83,0h5.83c.47,0,.87-.04,1.18-.13.32-.09.62-.23.92-.43.19-.13.34-.25.47-.37.12-.12.18-.2.18-.24,0-.03,0-.06-.03-.08-.02-.02-.05-.03-.08-.03-.03,0-.1.03-.21.08-.49.26-1.12.38-1.88.38H3.3c.55-.24,1.05-.52,1.51-.83Z"/>
      <text class="cls-6" transform="translate(0 80.42)"><tspan class="cls-1" x="0" y="0">Decla</tspan><tspan class="cls-3" x="28.21" y="0">r</tspan><tspan class="cls-1" x="31.07" y="0">ed as Deemed </tspan><tspan class="cls-2" x="103.94" y="0">T</tspan><tspan class="cls-1" x="107.58" y="0">o Be </tspan><tspan class="cls-4" x="131.05" y="0">UNIVERSITY</tspan><tspan class="cls-1" x="194.57" y="0" xml:space="preserve"> U/S 3 of UGC Act, 1956</tspan><tspan class="cls-1"><tspan x="0" y="13.45">App</tspan><tspan class="cls-8" x="20.3" y="13.45">r</tspan><tspan x="23.16" y="13.45">oved by the Ministry of Education, Govt. of India</tspan></tspan></text>
    </g>
  </g>
</svg>