<?xml version="1.0" encoding="UTF-8"?>
<svg id="Layer_2" data-name="Layer 2" xmlns="http://www.w3.org/2000/svg" viewBox="0 0 999.66 999.66">
  <defs>
    <style>
      .cls-1 {
        fill: #d1d3d4;
      }

      .cls-2 {
        fill: #223e77;
      }

      .cls-3 {
        fill: #fff;
      }
    </style>
  </defs>
  <g id="Layer_1-2" data-name="Layer 1">
    <g>
      <rect class="cls-3" width="999.66" height="999.66"/>
      <g>
        <path class="cls-3" d="M500.68,601.26c36.79,0,72.11,4.42,104.49,11.78-22.07,48.56-58.87,86.82-104.49,113.32v-125.1Z"/>
        <path class="cls-3" d="M500.68,727.82c-72.12,0-136.87-35.32-176.6-89.76,22.08-10.31,47.1-19.14,72.12-25.02,22.07,48.56,58.86,88.3,104.49,114.78Z"/>
        <path class="cls-3" d="M500.68,507.06v94.19c-36.79,0-72.12,4.42-104.49,11.78-13.25-30.92-22.08-64.76-22.08-100.08v-5.9h126.57Z"/>
        <path class="cls-3" d="M677.28,638.06c-22.08-10.31-47.1-19.14-72.12-25.02,13.25-30.92,22.08-64.76,22.08-100.08v-5.9h94.19c0,50.04-16.19,94.19-44.15,130.99Z"/>
        <path class="cls-3" d="M500.68,286.31c72.11,0,136.87,35.32,176.61,89.78-23.55,10.3-48.57,19.14-76.53,25.02-20.61-48.56-55.93-89.78-100.08-114.8Z"/>
        <path class="cls-3" d="M627.24,507.06h-126.57v-94.18c35.32,0,69.17-4.42,101.55-11.78,14.72,32.38,23.55,69.18,25.02,105.96Z"/>
        <path class="cls-3" d="M399.13,401.1c-14.72,32.38-23.55,69.18-25.02,105.96h-94.19c0-50.04,16.19-94.18,44.15-130.98,22.08,10.3,48.57,19.14,75.06,25.02Z"/>
        <path class="cls-3" d="M500.68,412.88c-35.32,0-69.17-4.42-101.55-11.78,22.08-48.56,57.4-89.78,101.55-114.8v126.57Z"/>
        <path class="cls-1" d="M677.28,638.06c-39.74,54.44-104.5,89.76-176.61,89.76,45.62-26.48,82.42-66.22,104.49-113.32,26.49,5.9,50.04,13.24,72.12,23.56Z"/>
        <path class="cls-1" d="M500.68,727.82c-45.63-26.48-82.42-66.22-104.49-113.32,32.37-7.36,67.7-11.78,104.49-11.78v125.1Z"/>
        <path class="cls-1" d="M500.68,507.06h126.57v5.9c0,36.78-7.36,70.64-22.08,100.08-32.38-7.36-67.7-11.78-104.49-11.78v-94.19Z"/>
        <path class="cls-1" d="M279.92,507.06h94.19v5.9c0,36.78,7.36,70.64,22.08,100.08-26.5,5.88-50.04,14.7-72.12,25.02-27.96-36.8-44.15-80.95-44.15-130.99Z"/>
        <path class="cls-1" d="M721.43,507.06h-94.19c-1.47-36.78-10.3-73.58-25.02-105.96,26.49-5.88,52.98-14.72,76.53-25.02,26.49,36.8,42.68,80.94,42.68,130.98Z"/>
        <path class="cls-1" d="M399.13,401.1c32.38,7.36,66.23,11.78,101.55,11.78v94.18h-126.57c1.47-36.78,10.3-73.58,25.02-105.96Z"/>
        <path class="cls-1" d="M500.68,286.31c44.15,25.02,79.47,66.23,101.55,114.8-32.38,7.36-66.23,11.78-101.55,11.78v-126.57Z"/>
        <path class="cls-1" d="M500.68,286.31c-44.15,25.02-79.47,66.23-101.55,114.8-26.49-5.88-52.98-14.72-76.53-25.02,41.21-54.46,105.96-89.78,178.08-89.78Z"/>
        <path class="cls-2" d="M500.68,746.96c-2.94,0-5.89-1.42-8.83-2.83-50.04-28.31-89.78-69.35-111.85-117.47-14.72-32.54-23.55-67.93-23.55-103.31v-7.08c1.47-36.79,10.3-75,26.49-108.97,23.55-50.95,63.28-91.99,108.91-118.87,5.89-2.83,13.24-2.83,19.13,0,45.62,25.47,85.36,67.93,108.91,118.87,16.19,33.96,25.02,72.18,26.49,108.97v7.08c0,36.8-7.36,70.77-23.55,103.31-23.54,49.54-61.81,89.16-111.85,117.47-4.41,1.41-7.36,2.83-10.3,2.83ZM500.68,325.22c-35.32,22.64-64.76,56.62-85.36,97.66-14.72,29.72-22.08,62.26-23.55,94.82h0v5.66c0,31.14,7.36,60.86,19.13,89.16,17.66,39.63,48.57,72.18,88.31,96.24,39.73-24.06,69.17-56.6,88.3-96.24,13.25-28.29,19.13-58.02,19.13-89.16v-5.66h0c-1.47-32.56-8.83-65.1-23.54-94.82-17.66-41.04-47.1-76.42-82.42-97.66Z"/>
        <path class="cls-2" d="M324.07,657.18c-5.89,0-11.77-2.94-14.72-7.36-30.9-41.2-47.09-91.24-47.09-142.76s16.19-101.54,47.09-142.76c5.89-8.82,17.66-10.3,25.02-4.4,8.83,5.88,10.3,17.66,4.42,25.02-26.49,35.32-39.74,76.52-39.74,120.68s13.25,85.36,39.74,120.68c5.88,8.82,4.41,19.14-4.42,25.02-2.94,4.42-7.36,5.88-10.3,5.88Z"/>
        <path class="cls-2" d="M677.28,657.18c-4.42,0-7.36-1.46-10.31-2.94-8.83-5.88-10.3-17.66-4.41-25.02,26.49-35.32,39.74-76.52,39.74-120.68s-13.25-85.36-39.74-120.68c-5.89-8.84-4.42-19.14,4.41-25.02,8.84-5.9,19.14-4.42,25.02,4.42,30.91,41.2,47.1,91.24,47.1,142.76s-16.19,101.54-47.1,142.74c-2.94,1.48-8.83,4.42-14.71,4.42Z"/>
        <path class="cls-2" d="M500.68,432.01c-36.79,0-72.12-4.42-105.97-11.78-27.96-5.88-54.45-16.18-79.47-26.48-4.41-2.95-8.83-7.36-10.3-11.78-1.47-5.88,0-11.78,2.94-16.2,22.08-29.42,50.04-52.98,82.42-70.64,33.85-17.66,70.64-26.48,108.91-26.48s75.06,8.82,108.91,26.48c32.37,16.2,60.34,41.22,82.41,70.64,2.95,4.42,4.42,10.31,2.95,16.2-1.48,5.88-4.42,10.3-10.31,11.78-25.02,11.76-51.51,20.6-79.47,26.48-30.91,8.84-66.23,11.78-103.02,11.78ZM353.51,370.2c16.18,5.9,32.37,11.78,50.03,14.72,30.91,7.36,63.29,10.3,97.14,10.3s66.23-2.94,97.13-10.3c17.66-4.42,33.85-8.82,50.04-14.72-38.26-41.2-91.25-63.28-147.17-63.28s-108.91,22.08-147.17,63.28Z"/>
        <path class="cls-2" d="M500.68,746.96c-38.27,0-75.06-8.84-108.91-26.5-32.38-16.18-60.34-41.2-82.42-70.64-2.94-4.4-4.41-10.3-2.94-16.18,1.47-5.9,4.42-10.3,10.3-11.78,23.55-10.3,48.57-19.14,76.53-26.48,35.32-8.84,72.12-13.26,108.91-13.26s73.59,4.42,108.91,13.26c26.49,5.88,52.98,14.71,76.53,26.48,4.41,2.94,8.83,7.36,10.3,11.78,1.47,5.88,0,11.78-2.94,16.18-22.08,29.44-50.04,52.98-82.42,70.64-36.79,16.2-73.59,26.5-111.85,26.5ZM353.51,645.42c38.26,41.2,91.24,63.28,147.17,63.28s108.91-23.56,147.17-63.28c-14.72-5.9-30.9-10.31-47.09-14.72-32.38-7.36-66.23-11.78-100.08-11.78s-67.7,4.42-100.08,11.78c-16.19,4.4-32.38,10.3-47.09,14.72Z"/>
        <path class="cls-2" d="M703.83,525.41h-406.3c-9.48,0-17.6-8.47-17.6-18.34s8.13-18.33,17.6-18.33h406.3c9.48,0,17.6,8.46,17.6,18.33s-8.13,18.34-17.6,18.34Z"/>
        <path class="cls-2" d="M500.68,727.83c-10.3,0-19.13-8.13-19.13-17.61v-406.31c0-9.48,8.83-17.6,19.13-17.6s19.13,8.12,19.13,17.6v406.31c0,9.48-8.83,17.61-19.13,17.61Z"/>
        <path class="cls-1" d="M549.24,873.51c0,26.5-22.08,48.58-48.57,48.58s-48.57-22.08-48.57-48.58c0-10.3,2.94-19.12,8.83-27.96l1.47-1.46c1.48-1.48,1.48-2.95,2.95-2.95l1.47-1.46,1.47-1.48,1.47-1.46h0c4.42-2.94,8.83-5.9,14.72-8.84h0c13.25-4.42,26.49-2.94,38.26,1.48h0c1.48,0,2.95,1.46,2.95,1.46,5.89,4.42,11.77,8.84,16.19,14.72,4.41,7.36,7.36,17.66,7.36,27.96Z"/>
        <path class="cls-1" d="M231.35,702.8h0c-1.47,4.42-2.94,7.36-4.41,11.78h0c-4.42,7.36-10.31,13.24-17.66,17.66-25.02,14.72-54.46,5.88-69.17-17.66-13.24-23.54-5.88-52.98,17.66-67.7,7.36-4.42,16.19-7.36,25.02-5.88h0c23.55,0,42.68,16.18,48.57,38.26,0,0,1.47,14.72,0,23.54Z"/>
        <path class="cls-1" d="M231.35,311.33c1.47,7.36,1.47,14.72,1.47,22.08-2.94,17.66-17.66,33.86-36.79,38.26-13.25,2.95-25.02,0-35.32-5.88-23.55-13.24-30.91-44.16-17.66-67.7,13.24-23.54,44.15-30.9,67.7-17.66,7.36,4.42,13.24,10.3,17.66,17.66h0c0,4.42,1.47,8.84,2.94,13.24h0Z"/>
        <path class="cls-1" d="M497.74,189.19h-4.42c-25.02-4.42-41.21-25.02-41.21-48.57,0-26.48,22.08-48.56,48.57-48.56s48.57,22.08,48.57,48.56c0,25.02-17.66,45.62-41.21,48.57h-10.3Z"/>
        <path class="cls-1" d="M861.24,299.56c13.25,23.54,5.89,52.98-17.66,67.7-11.77,7.36-25.02,8.82-38.26,4.4h-2.94c-2.95-1.46-7.36-2.94-11.78-5.88-7.36-4.42-11.77-10.3-16.19-16.18-5.89-10.31-7.36-20.62-5.89-30.92,0-1.46,0-2.94,1.48-4.42,1.47-4.41,2.94-10.3,5.88-13.24,4.42-7.36,10.31-13.24,17.66-17.66,23.55-16.18,52.99-7.36,67.7,16.2Z"/>
        <path class="cls-1" d="M842.11,648.36c23.55,13.24,30.91,44.14,17.66,67.7-13.24,23.54-44.15,30.9-67.7,17.66-14.71-8.84-23.55-23.56-25.02-38.27-2.94-29.42,20.61-54.44,48.57-54.44h0c10.3,0,19.13,2.94,26.49,7.36Z"/>
        <path class="cls-2" d="M759.69,311.33l-211.92-122.14c-8.83,8.82-22.07,14.71-33.85,17.66-10.3,1.46-19.13-4.42-22.07-14.72-1.47-10.3,4.41-19.14,14.72-22.08,1.47,0,2.94,0,4.41-1.48,7.36-2.94,11.77-7.36,16.19-13.24,4.42-8.82,16.19-11.78,25.02-7.36l232.53,133.92c8.83,4.42,11.78,16.2,7.36,25.03h0c-7.36,14.7-23.55,14.7-32.38,4.4Z"/>
        <path class="cls-2" d="M213.69,315.75s-1.47-4.42-2.94-7.36c-4.42-8.82-1.47-20.6,7.36-25.02l116.26-67.7,116.27-67.7c8.83-4.42,20.6-1.46,25.02,7.36,4.41,7.36,11.77,13.24,20.6,14.72,10.31,1.48,16.19,11.78,14.72,22.08-1.47,10.3-11.77,16.18-22.08,14.72-11.77-2.95-23.54-8.84-33.84-17.66l-103.02,58.86-103.02,58.88c1.47,8.82-2.94,19.12-13.24,22.06-10.3,2.94-20.61-2.94-22.08-13.24Z"/>
        <path class="cls-2" d="M188.67,660.12h-5.89c-10.3,0-19.13-8.82-19.13-19.12v-267.85c0-10.3,8.83-19.14,19.13-19.14s19.14,8.84,19.14,19.14v253.13c7.36,4.42,10.3,11.78,8.83,19.14-1.47,10.3-11.78,16.18-22.08,14.7Z"/>
        <path class="cls-2" d="M449.17,864.69l-232.53-133.93c-8.83-4.4-11.77-16.18-7.35-25,2.94-4.42,2.94-7.36,2.94-7.36,2.94-10.31,13.25-14.72,22.07-13.26,8.84,2.94,14.72,11.78,13.25,22.08l204.57,117.74c1.47-1.48,2.95-2.94,4.42-2.94,7.36-5.9,19.13-5.9,26.49,2.94,5.88,7.36,5.88,19.14-2.95,26.5,0,0-1.47,0-1.47,1.46l-1.47,1.48q-1.47,1.46-1.47,2.94s-1.47,1.48-1.47,2.94c-2.95,4.42-5.89,7.36-11.78,8.84-4.41-1.48-8.83-1.48-13.24-4.42Z"/>
        <path class="cls-2" d="M527.17,858.81c-7.36-10.31-1.47-25.02,10.3-27.98l228.11-132.44c8.83-4.42,20.61-1.48,25.02,7.36,4.42,8.82,1.47,20.6-7.36,25l-231.06,133.93c-8.83,5.88-19.13,2.94-25.02-5.88Z"/>
        <path class="cls-2" d="M790.6,645.42c-1.47-7.36,2.94-16.2,8.83-19.14v-253.13c0-10.3,8.83-19.14,19.13-19.14s19.14,8.84,19.14,19.14v267.85c0,10.3-8.83,19.12-19.14,19.12h-5.88c-10.3,1.48-20.61-4.4-22.08-14.7Z"/>
        <path class="cls-2" d="M494.79,208.31c-1.47,0-4.41,0-5.89-1.46-1.47,0-2.94,0-2.94-1.48-29.43-7.36-51.51-33.84-51.51-66.22,0-36.8,30.91-67.7,67.7-67.7s67.7,30.9,67.7,67.7c0,27.96-17.66,54.44-44.15,63.28-4.42,1.46-10.3,2.94-13.25,2.94h-7.36c-2.94,2.94-7.35,2.94-10.3,2.94ZM499.21,171.53h8.83c13.24-2.96,25.02-14.72,25.02-29.44,0-17.66-13.25-30.92-30.91-30.92s-30.91,13.26-30.91,30.92c0,14.72,8.83,26.48,25.02,30.9h0c-1.47-1.46,0-1.46,2.95-1.46h0Z"/>
        <path class="cls-2" d="M818.56,390.8h0c-17.66,0-35.32-7.36-47.09-19.14-17.66-16.18-23.55-41.2-19.13-63.28,1.47-7.36,4.41-13.24,7.35-19.14,11.78-20.6,33.85-33.84,58.87-33.84,23.55,0,47.1,13.24,58.87,33.84,19.13,32.38,7.36,73.59-25.02,92.72-10.3,5.9-22.07,8.84-33.85,8.84ZM818.56,354.01v19.14-19.14c5.89,0,10.31-1.46,14.72-4.4,14.72-8.84,19.13-27.98,11.78-42.68-5.89-8.84-16.19-14.72-26.5-14.72s-20.6,5.88-26.49,14.72h0c-1.47,2.94-1.47,4.4-2.94,5.88,0,1.46-1.47,2.94-1.47,4.42,0,7.36,0,13.24,4.41,19.12,4.42,7.36,10.31,11.78,16.19,13.26,0,2.94,4.42,4.4,10.3,4.4Z"/>
        <path class="cls-2" d="M784.71,748.43c-36.79-22.08-45.62-72.12-16.19-104.5,7.36-7.36,16.19-14.72,27.97-19.14,7.36-2.94,14.71-2.94,22.07-2.94,11.78,0,23.55,2.94,33.85,8.84,32.38,19.12,42.68,60.34,25.02,92.72-19.13,32.36-60.34,44.14-92.72,25.02ZM790.6,704.28c2.94,5.88,7.36,10.3,11.78,13.24,14.71,8.84,33.84,2.94,42.68-11.76,13.24-23.56-7.36-51.52-35.33-45.64-14.71,2.96-23.54,17.66-22.07,32.38v4.42c1.47,1.48,1.47,4.42,2.94,7.36Z"/>
        <path class="cls-2" d="M500.68,941.21c-36.79,0-67.7-30.9-67.7-67.7,0-13.24,4.41-26.48,11.77-38.26,2.95-4.42,5.89-8.82,10.3-11.78,1.48-1.46,2.95-2.94,4.42-4.41,7.36-5.9,14.72-8.84,23.55-11.78,1.47,0,2.94,0,2.94-1.48h16.19c16.19,1.48,30.91,7.36,42.68,17.66h0c1.47,0,2.94,2.95,2.94,2.95,2.95,2.94,5.89,7.36,8.83,11.76,5.89,10.3,8.84,22.08,8.84,33.86,2.94,38.26-27.97,69.16-64.76,69.16ZM480.07,851.45l-1.47,1.46q-1.47,1.48-1.47,2.94c-2.94,4.42-5.89,11.78-5.89,17.66,0,17.66,13.25,30.92,30.91,30.92s30.91-13.26,30.91-30.92c0-5.88-1.47-13.24-5.89-17.66q-1.47-2.94-2.94-2.94h0l-1.48-1.46-1.47-1.48h0l-1.47-1.48h0c-1.47-1.46-2.94-1.46-2.94-2.94l-1.47-1.46h0s-1.48-1.48-2.95-1.48h0c-1.47,0-2.94-1.46-4.41-1.46h-10.3c-7.36,2.94-11.78,4.4-17.67,10.3h0q0-1.48,0,0ZM463.89,817.6c-1.48,0-2.95,1.48-4.42,1.48,1.47,0,2.94,0,4.42-1.48Z"/>
        <path class="cls-2" d="M125.39,723.41c-8.83-16.2-11.78-33.86-7.36-51.52,11.77-45.62,66.23-64.76,104.49-38.26,4.42,2.94,7.36,5.88,10.3,8.82,14.72,16.2,22.08,39.74,16.19,63.29v1.46c-1.47,5.88-2.94,10.3-5.88,16.2-5.89,10.3-14.72,19.12-25.02,25.02-33.85,19.12-75.06,7.35-92.72-25.02ZM153.36,682.2c-5.89,19.14,10.3,38.26,29.43,38.26,13.25,0,25.02-8.82,29.44-22.06,5.89-17.66-5.89-35.32-23.55-39.74-14.72-1.48-30.91,7.36-35.32,23.54Z"/>
        <path class="cls-2" d="M148.94,381.97c-16.19-8.82-26.49-23.54-30.9-41.2-4.42-17.66-2.95-35.32,7.36-51.52,17.66-32.36,58.87-44.14,92.72-25.02,26.49,16.2,38.26,47.1,32.37,73.59-5.88,22.08-22.07,41.2-45.62,48.56-1.47,0-4.41,1.48-7.36,1.48-5.89,2.94-33.85,2.94-48.57-5.9ZM156.3,308.39c-8.83,14.72-2.94,33.86,11.78,42.68,5.88,2.94,14.71,4.42,20.6,2.94,7.36-1.46,13.25-4.4,19.13-11.76,1.48-1.48,2.95-4.42,4.42-5.9,0-1.46,1.47-2.94,1.47-2.94,1.47-5.88,1.47-11.78,0-19.14-1.47-7.35-7.36-13.24-14.72-17.66-4.41-2.94-33.85-2.94-42.68,11.78Z"/>
      </g>
    </g>
  </g>
</svg>