<?xml version="1.0" encoding="UTF-8"?>
<svg id="Layer_2" data-name="Layer 2" xmlns="http://www.w3.org/2000/svg" xmlns:xlink="http://www.w3.org/1999/xlink" viewBox="0 0 999.66 999.66">
  <defs>
    <style>
      .cls-1 {
        fill: none;
      }

      .cls-2 {
        fill: #e8c3aa;
      }

      .cls-3 {
        fill: #396091;
      }

      .cls-4 {
        fill: #30527f;
      }

      .cls-5 {
        opacity: .75;
      }

      .cls-5, .cls-6 {
        fill: #fff;
      }

      .cls-7 {
        fill: #808184;
      }

      .cls-8 {
        fill: #bbbdbf;
      }

      .cls-9 {
        fill: #223e77;
      }

      .cls-10 {
        fill: #482e1f;
      }

      .cls-11 {
        fill: #37261c;
      }

      .cls-12 {
        fill: #a6a8ab;
      }

      .cls-13 {
        fill: #fcdac4;
      }

      .cls-14 {
        fill: #302d2f;
      }

      .cls-15 {
        clip-path: url(#clippath);
      }
    </style>
    <clipPath id="clippath">
      <circle class="cls-1" cx="499.99" cy="409.1" r="219.81" transform="translate(-142.83 473.37) rotate(-45)"/>
    </clipPath>
  </defs>
  <g id="Layer_1-2" data-name="Layer 1">
    <g>
      <rect class="cls-6" width="999.66" height="999.66"/>
      <g>
        <path class="cls-7" d="M909.91,554.76c-2.65-21.21-7.28-55.02-29.13-64.2l-118.01-38.58s.03-.11.04-.15c0,0-13.12-36.71-19.05-37.17-.23-9.7-.46-18.76-.52-21.06,7.97-9.82,16.03-22.83,18.28-36.58.16-.99.34-2.1.52-3.26,7.17.57,14.04-3.37,17.73-10.46l4.08-7.85c5.07-9.75,5.48-21.85,1.09-32.27-1.55-3.68-4.36-6.19-7.53-7.27l2.92-43.2c.56-18.03-5.76-30.11-16.99-41.91-5.61-5.56-13.51-11.14-23.28-12.13,0,0-2.38-11.71-31.03-11.71h-21.48c-16.67,0-33.07,6.48-45.7,18.24-14.75,13.73-23.31,26.63-22.65,47.51l2.92,43.2c-3.17,1.08-5.98,3.59-7.53,7.27-4.39,10.42-3.99,22.52,1.09,32.27l4.08,7.85c3.69,7.09,10.56,11.03,17.73,10.46.18,1.16.36,2.26.52,3.26,2.26,13.81,10.38,26.88,18.39,36.71-.06,2.45-.29,11.33-.52,20.86-5.8-.64-19.33,37.24-19.33,37.24,0,.06.04.14.05.21l-117.85,38.53c-8.65,3.63-14.57,11.15-18.77,20.19-4.2-9.04-10.12-16.56-18.77-20.19l-118.01-38.58s.03-.11.04-.15c0,0-13.12-36.71-19.05-37.17-.23-9.7-.46-18.76-.52-21.06,7.97-9.82,16.03-22.83,18.28-36.58.16-.99.34-2.1.52-3.26,7.17.57,14.04-3.37,17.73-10.46l4.08-7.85c5.08-9.75,5.48-21.85,1.09-32.27h0c-1.55-3.68-4.36-6.19-7.53-7.27l2.92-43.2c.56-18.03-5.76-30.11-16.99-41.91-5.61-5.56-13.51-11.14-23.28-12.13,0,0-2.38-11.71-31.03-11.71h-21.48c-16.67,0-33.07,6.48-45.7,18.24-14.75,13.73-23.31,26.63-22.65,47.51l2.92,43.2c-3.17,1.08-5.98,3.59-7.53,7.27-4.39,10.42-3.99,22.52,1.09,32.27l4.08,7.85c3.69,7.09,10.56,11.03,17.73,10.46.18,1.16.36,2.26.52,3.26,2.26,13.81,10.38,26.88,18.38,36.71-.06,2.45-.29,11.33-.52,20.86-5.8-.64-19.33,37.24-19.33,37.24,0,.06.04.14.05.21l-117.85,38.53c-21.85,9.17-26.49,42.99-29.13,64.2l-7.5,75.09h834.85l-7.5-75.09Z"/>
        <g>
          <circle class="cls-5" cx="499.99" cy="409.1" r="219.81" transform="translate(-142.83 473.37) rotate(-45)"/>
          <rect class="cls-9" x="650.63" y="585.5" width="55.84" height="118.44" transform="translate(-251.65 540.73) rotate(-37.16)"/>
          <path class="cls-14" d="M698.72,662.53l-8.48,6.42c-14.84,11.25-17.75,32.39-6.51,47.23l93.71,124.12c11.25,14.84,32.39,17.75,47.23,6.51l8.48-6.42c14.84-11.25,17.75-32.39,6.51-47.23l-93.71-124.13c-11.25-14.84-32.39-17.75-47.24-6.51Z"/>
        </g>
        <g class="cls-15">
          <g>
            <g>
              <path class="cls-2" d="M544.15,487.11c0-9.11-1-46.76-1-46.76l-43.11.03-43.11-.03s-1,37.65-1,46.76-2.71,20.5-2.71,20.5h93.64s-2.71-11.39-2.71-20.5Z"/>
              <path class="cls-8" d="M708.79,601.09c-2.63-21.07-7.24-54.67-28.95-63.78l-118.44-38.73-.09.15s-.07-.11-.07-.11c-8.04-9.16-14.21-10.11-14.21-10.11,0,0-16.18,12.72-47.12,12.72s-46.83-12.72-46.83-12.72c0,0-6.18.95-14.17,10.06-.06.07-.12.16-.18.24l-.14-.24-118.44,38.73c-21.71,9.11-26.32,42.71-28.95,63.78l-7.46,74.6h432.5l-7.46-74.6Z"/>
              <g>
                <path class="cls-2" d="M559.47,349.5l9.33-4.98c5.86-3.13,12.96-.17,15.82,6.6h0c4.37,10.35,3.96,22.38-1.08,32.06l-4.06,7.79c-4.1,7.87-12.14,11.88-20.13,10.04l-1.71-.39,1.83-51.13Z"/>
                <path class="cls-2" d="M440.51,349.5l-9.33-4.98c-5.86-3.13-12.96-.17-15.82,6.6h0c-4.37,10.35-3.96,22.38,1.08,32.06l4.06,7.79c4.1,7.87,12.13,11.88,20.13,10.04l1.71-.39-1.83-51.13Z"/>
                <path class="cls-13" d="M499.99,261.48l-75.5,44.5s10.24,74.73,14.16,98.64c3.91,23.91,25.49,45.9,33.37,51.75,7.89,5.85,27.97,5.44,27.97,5.44,0,0,20.09.41,27.97-5.44,7.89-5.85,29.46-27.84,33.37-51.75,3.92-23.91,14.15-98.64,14.15-98.64l-75.5-44.5Z"/>
              </g>
              <path class="cls-10" d="M563.16,259.33c-5.58-5.52-13.42-11.07-23.13-12.05,0,0-2.37-11.63-30.83-11.63h-21.34c-16.56,0-32.86,6.43-45.41,18.12-14.66,13.65-23.16,26.46-22.51,47.21l2.91,42.95c2.23-.75,4.63-.8,6.93.04.7,4.96,1.43,10.12,2.16,15.26,8.14-10.37,9.9-15.73,11.34-31.69,1.78-19.84,8.5-26.6,8.5-26.6,0,0,7.52-10.53,48.22-10.53,11.82,0,20.78.9,27.63,2.16,16.73,3.08,20.59,8.37,20.59,8.37,0,0,6.71,6.76,8.5,26.6,1.43,15.96,3.2,21.32,11.34,31.69.73-5.15,1.46-10.3,2.16-15.26,2.3-.84,4.7-.78,6.93-.04l2.91-42.95c.56-17.92-5.73-29.91-16.88-41.64Z"/>
              <path class="cls-11" d="M499.99,278.21c-27.09,0-37.59,10.36-47.98,22.45,1.44-1.58,10.99-10.26,47.98-10.26,11.83,0,26.31,2.1,33.16,3.37,0,0-5.87-15.56-33.16-15.56Z"/>
              <g>
                <polygon class="cls-3" points="520.4 501.24 499.91 501.24 479.42 501.24 469.85 525.67 499.91 550.11 529.96 525.67 520.4 501.24"/>
                <path class="cls-4" d="M512.4,539.7s-3.6-1.9-12.49-1.9-12.49,1.9-12.49,1.9l-17.56,135.99h60.11l-17.56-135.99Z"/>
              </g>
              <path class="cls-6" d="M543.62,472.5s-7.82,20.99-43.72,28.73c0,0,7-.3,14.22,15.78,6.51,14.51,14.23,29.08,14.23,29.08,0,0,32.46-32.79,34.27-47.28,0,0-13.49-37.78-19.24-37.01l.24,10.7Z"/>
              <path class="cls-6" d="M456.19,472.5s7.82,20.99,43.72,28.73c0,0-7-.3-14.22,15.78-6.51,14.51-14.23,29.08-14.23,29.08,0,0-32.46-32.79-34.27-47.28,0,0,13.49-37.78,19.24-37.01l-.24,10.7Z"/>
            </g>
            <path class="cls-2" d="M506.51,400.37c-4.27,1.17-8.77,1.17-13.03,0l-6.23-1.71,6.56,9.01c3.06,4.2,9.32,4.2,12.38,0l6.55-9.01-6.23,1.71Z"/>
            <path class="cls-2" d="M511.87,428.79c-7.77,1.32-15.98,1.32-23.75,0l-1.92-.33,4.91,2.94c4.98,2.98,12.89,2.97,17.86-.02l4.83-2.91-1.92.33Z"/>
            <path class="cls-2" d="M476.65,348.65l3.15-8.18,8.21,4.95c4.63,2.79,7.28,7.96,6.85,13.35l-2.28,28.64-1.73-16.83c-.77-7.51-4.56-14.38-10.5-19.03l-3.7-2.9Z"/>
            <path class="cls-10" d="M476.65,348.65l-20.62-4.24c-2.63-.54-5.36-.34-7.88.58l-3.47,1.27,5.01-6.11c3.28-4,8.45-5.95,13.55-5.09l8.82,1.47c4.79.8,8.86,3.95,10.83,8.39l1.79,4.03h-5.13c-.98,0-1.95-.1-2.91-.3Z"/>
            <path class="cls-10" d="M523.17,348.65l20.62-4.24c2.63-.54,5.36-.34,7.88.58l3.47,1.27-5.01-6.11c-3.28-4-8.45-5.95-13.55-5.09l-8.82,1.47c-4.79.8-8.86,3.95-10.83,8.39l-1.79,4.03h5.13c.98,0,1.95-.1,2.91-.3Z"/>
            <path class="cls-2" d="M505.15,416.9c-1.49-.18-1.7.07-2.98.72l-2.27,1.15-2.27-1.15c-1.28-.65-1.48-.91-2.98-.72,0,0-4.38,1.84-16.65,1.88,0,0,7.76,1.73,9.98,1.88,2.21.16,8.08.82,11.92.82s9.71-.66,11.92-.82c2.22-.16,9.98-1.88,9.98-1.88-12.28-.04-16.65-1.88-16.65-1.88Z"/>
            <g>
              <path class="cls-12" d="M330.8,582.11s29.7,52.1,29.7,93.59h-12.37s8.25-10.06-17.32-93.59Z"/>
              <path class="cls-12" d="M669.18,582.11s-29.7,52.1-29.7,93.59h12.37s-8.25-10.06,17.32-93.59Z"/>
            </g>
          </g>
        </g>
        <path class="cls-9" d="M709.67,250.2c-87.76-115.8-252.78-138.54-368.59-50.78-115.8,87.76-138.54,252.78-50.78,368.59,87.76,115.8,252.78,138.54,368.59,50.78,115.8-87.76,138.54-252.78,50.78-368.59ZM621.02,568.81c-88.21,66.85-213.9,49.53-280.74-38.68-66.84-88.2-49.53-213.9,38.67-280.74,88.21-66.84,213.9-49.53,280.74,38.68,66.85,88.2,49.53,213.9-38.68,280.74Z"/>
      </g>
    </g>
  </g>
</svg>