<?xml version="1.0" encoding="UTF-8"?>
<svg id="Layer_2" data-name="Layer 2" xmlns="http://www.w3.org/2000/svg" viewBox="0 0 999.66 999.66">
  <defs>
    <style>
      .cls-1 {
        fill: #e8c3aa;
      }

      .cls-2 {
        fill: #58595b;
      }

      .cls-3 {
        fill: #d1d3d4;
      }

      .cls-4 {
        fill: #396091;
      }

      .cls-5 {
        fill: #808184;
      }

      .cls-6 {
        fill: #223e77;
      }

      .cls-7 {
        fill: #fff;
      }

      .cls-8 {
        fill: #482e1f;
      }

      .cls-9 {
        fill: #37261c;
      }

      .cls-10 {
        fill: #a6a8ab;
      }

      .cls-11 {
        fill: #fcdac4;
      }
    </style>
  </defs>
  <g id="Layer_1-2" data-name="Layer 1">
    <g>
      <rect class="cls-7" width="999.66" height="999.66"/>
      <g>
        <path class="cls-2" d="M904.26,496.75c-1.81-14.49-4.98-37.6-19.91-43.87l-80.64-26.37.02-.11s-8.96-25.08-13.02-25.4c-.15-6.63-.32-12.82-.36-14.39,5.45-6.71,10.95-15.6,12.49-25,.11-.66.23-1.46.35-2.23,4.9.39,9.6-2.3,12.12-7.15l2.79-5.36c3.47-6.66,3.75-14.94.74-22.05-1.06-2.51-2.98-4.23-5.14-4.97l2-29.52c.39-12.32-3.94-20.57-11.61-28.64-3.84-3.8-9.23-7.61-15.91-8.29,0,0-1.63-8-21.21-8h-14.68c-11.39,0-22.6,4.42-31.23,12.46-10.08,9.38-15.93,18.19-15.48,32.47l2,29.52c-2.17.74-4.09,2.45-5.14,4.97-3,7.12-2.72,15.39.74,22.05l2.79,5.36c2.52,4.85,7.22,7.54,12.12,7.15.12.77.25,1.57.35,2.23,1.55,9.44,7.09,18.37,12.56,25.08-.04,1.68-.2,7.74-.35,14.26-3.97-.44-13.21,25.45-13.21,25.45,0,.04.03.1.03.1l-40.45,13.27-40.56-13.26.02-.11s-8.96-25.08-13.02-25.4c-.16-6.63-.32-12.82-.36-14.39,5.45-6.71,10.96-15.6,12.49-25,.11-.66.23-1.46.35-2.23,4.9.39,9.6-2.3,12.12-7.15l2.79-5.36c3.47-6.66,3.75-14.94.74-22.05-1.06-2.51-2.98-4.23-5.14-4.97l2-29.52c.39-12.32-3.94-20.57-11.61-28.64-3.84-3.8-9.23-7.61-15.91-8.29,0,0-1.63-8-21.21-8h-14.68c-11.39,0-22.6,4.42-31.23,12.46-10.08,9.38-15.93,18.19-15.48,32.47l2,29.52c-2.17.74-4.09,2.45-5.15,4.97-3,7.12-2.72,15.39.74,22.05l2.79,5.36c2.52,4.85,7.22,7.54,12.12,7.15.12.77.25,1.57.35,2.23,1.55,9.44,7.09,18.37,12.56,25.08-.04,1.68-.2,7.74-.35,14.26-3.97-.44-13.21,25.45-13.21,25.45,0,.04.03.1.03.14l-40.45,13.23-40.56-13.26.02-.11s-8.96-25.08-13.02-25.4c-.16-6.63-.32-12.82-.36-14.39,5.45-6.71,10.96-15.6,12.49-25,.11-.66.23-1.46.35-2.23,4.9.39,9.6-2.3,12.12-7.15l2.79-5.36c3.47-6.66,3.75-14.94.74-22.05-1.06-2.51-2.98-4.23-5.14-4.97l2-29.52c.39-12.32-3.94-20.57-11.61-28.64-3.84-3.8-9.23-7.61-15.91-8.29,0,0-1.63-8-21.21-8h-14.68c-11.39,0-22.6,4.42-31.23,12.46-10.08,9.38-15.93,18.19-15.48,32.47l2,29.52c-2.17.74-4.09,2.45-5.15,4.97-3,7.12-2.72,15.39.74,22.05l2.79,5.36c2.52,4.85,7.22,7.54,12.12,7.15.12.77.25,1.57.36,2.23,1.55,9.44,7.09,18.37,12.56,25.08-.04,1.68-.2,7.74-.35,14.26-3.97-.44-13.21,25.45-13.21,25.45,0,.04.03.1.03.1l-40.45,13.27-40.56-13.26.03-.11s-8.96-25.08-13.02-25.4c-.16-6.63-.32-12.82-.36-14.39,5.45-6.71,10.96-15.6,12.49-25,.11-.66.23-1.46.35-2.23,4.9.39,9.6-2.3,12.12-7.15l2.79-5.36c3.47-6.66,3.75-14.94.75-22.05-1.06-2.51-2.98-4.23-5.14-4.97l2-29.52c.39-12.32-3.94-20.57-11.61-28.64-3.84-3.8-9.23-7.61-15.91-8.29,0,0-1.63-8-21.21-8h-14.68c-11.39,0-22.6,4.42-31.23,12.46-10.08,9.38-15.93,18.19-15.48,32.47l2,29.52c-2.17.74-4.09,2.45-5.14,4.97-3,7.12-2.72,15.39.74,22.05l2.79,5.36c2.52,4.85,7.22,7.54,12.12,7.15.12.77.25,1.57.36,2.23,1.55,9.44,7.09,18.37,12.56,25.08-.04,1.68-.2,7.74-.35,14.26-3.97-.44-13.21,25.45-13.21,25.45,0,.04.03.1.03.1l-80.53,26.38c-14.93,6.27-18.1,29.38-19.91,43.87l-5.13,68.21h799.12l-5.13-68.21Z"/>
        <path class="cls-5" d="M838.27,620.03c-2.12-16.99-5.84-44.09-23.34-51.44l-94.55-30.91s.02-.08.03-.12c0,0-10.51-29.41-15.27-29.78-.18-7.77-.37-15.03-.42-16.87,6.39-7.87,12.84-18.29,14.65-29.31.13-.79.27-1.68.42-2.61,5.75.46,11.25-2.7,14.21-8.38l3.27-6.29c4.07-7.81,4.39-17.51.87-25.86-1.24-2.95-3.49-4.96-6.03-5.82l2.34-34.61c.45-14.45-4.62-24.12-13.61-33.58-4.5-4.45-10.82-8.92-18.65-9.72,0,0-1.91-9.38-24.86-9.38h-17.21c-13.36,0-26.5,5.19-36.62,14.61-11.82,11-18.67,21.33-18.15,38.07l2.34,34.61c-2.54.87-4.79,2.88-6.03,5.82-3.52,8.35-3.19,18.04.87,25.86l3.27,6.29c2.96,5.68,8.46,8.84,14.21,8.38.15.93.29,1.81.42,2.61,1.81,11.07,8.32,21.53,14.73,29.41-.05,1.97-.24,9.07-.41,16.72-4.65-.51-15.49,29.84-15.49,29.84,0,.05.03.11.04.16l-94.43,30.87c-6.93,2.91-11.68,8.93-15.04,16.18-3.36-7.25-8.11-13.27-15.04-16.18l-94.55-30.91s.02-.08.02-.08c0,0-10.5-29.45-15.26-29.82-.18-7.77-.37-15.03-.42-16.87,6.39-7.87,12.84-18.29,14.65-29.31.13-.79.27-1.68.42-2.61,5.75.46,11.25-2.7,14.21-8.38l3.27-6.29c4.07-7.81,4.39-17.51.87-25.86h0c-1.24-2.95-3.49-4.96-6.03-5.82l2.34-34.61c.45-14.45-4.62-24.12-13.61-33.58-4.5-4.45-10.82-8.92-18.65-9.72,0,0-1.91-9.38-24.86-9.38h-17.21c-13.36,0-26.5,5.19-36.62,14.61-11.82,11-18.67,21.33-18.15,38.07l2.34,34.61c-2.54.87-4.79,2.88-6.03,5.82-3.52,8.35-3.19,18.04.87,25.86l3.27,6.29c2.96,5.68,8.46,8.84,14.21,8.38.15.93.29,1.81.42,2.61,1.81,11.07,8.31,21.53,14.73,29.41-.05,1.97-.24,9.07-.41,16.72-4.65-.51-15.49,29.84-15.49,29.84,0,.05.03.11.04.16l-94.43,30.87c-17.51,7.35-21.22,34.44-23.34,51.44l-6.01,60.16h668.91l-6.01-60.16Z"/>
        <g>
          <g>
            <path class="cls-1" d="M548.97,587.09c0-8.08-.88-41.45-.88-41.45l-38.22.02-38.22-.02s-.88,33.37-.88,41.45-2.4,18.17-2.4,18.17h83s-2.4-10.1-2.4-18.17Z"/>
            <path class="cls-3" d="M694.91,688.12c-2.33-18.68-6.42-48.46-25.66-56.54l-104.99-34.33-.08.13s-.06-.09-.1-.13c-7.09-8.08-12.56-8.92-12.56-8.92,0,0-14.34,11.27-41.77,11.27s-41.51-11.27-41.51-11.27c0,0-5.47.84-12.56,8.92-.05.06-.1.14-.15.21l-.12-.21-104.99,34.33c-19.25,8.08-23.33,37.86-25.66,56.54l-6.61,66.13h383.38l-6.61-66.13Z"/>
            <g>
              <path class="cls-1" d="M562.56,465.1l8.27-4.42c5.2-2.78,11.49-.15,14.02,5.85h0c3.87,9.17,3.51,19.84-.96,28.42l-3.6,6.91c-3.63,6.98-10.76,10.53-17.84,8.9l-1.51-.35,1.62-45.32Z"/>
              <path class="cls-1" d="M457.1,465.1l-8.27-4.42c-5.2-2.78-11.49-.15-14.02,5.85h0c-3.87,9.17-3.51,19.84.96,28.42l3.6,6.91c3.63,6.98,10.76,10.53,17.84,8.9l1.51-.35-1.62-45.32Z"/>
              <path class="cls-11" d="M509.83,387.07l-66.93,39.44s9.08,66.24,12.55,87.43c3.47,21.19,22.59,40.69,29.58,45.87,6.99,5.19,24.8,4.82,24.8,4.82,0,0,17.81.36,24.8-4.82,6.99-5.18,26.11-24.68,29.58-45.87,3.47-21.19,12.55-87.43,12.55-87.43l-66.93-39.44Z"/>
            </g>
            <path class="cls-8" d="M565.83,385.17c-4.94-4.89-11.9-9.81-20.5-10.68,0,0-2.1-10.31-27.33-10.31h-18.92c-14.68,0-29.13,5.7-40.25,16.06-12.99,12.1-20.53,23.45-19.95,41.85l2.58,38.07c1.97-.66,4.1-.71,6.14.03.62,4.4,1.27,8.97,1.92,13.53,7.21-9.2,8.78-13.95,10.05-28.09,1.58-17.59,7.53-23.58,7.53-23.58,0,0,6.67-9.34,42.74-9.34,10.48,0,18.42.8,24.49,1.92,14.83,2.73,18.25,7.42,18.25,7.42,0,0,5.95,5.99,7.53,23.58,1.27,14.15,2.83,18.9,10.05,28.09.65-4.56,1.3-9.13,1.92-13.53,2.04-.74,4.17-.69,6.14-.03l2.58-38.07c.5-15.88-5.08-26.52-14.96-36.91Z"/>
            <path class="cls-9" d="M509.83,401.91c-24.01,0-33.32,9.19-42.53,19.9,1.27-1.4,9.74-9.1,42.53-9.1,10.48,0,23.32,1.87,29.39,2.98,0,0-5.2-13.79-29.39-13.79Z"/>
            <g>
              <polygon class="cls-4" points="527.92 599.6 509.76 599.6 491.59 599.6 483.11 621.26 509.76 642.92 536.4 621.26 527.92 599.6"/>
              <path class="cls-6" d="M520.83,633.7s-3.19-1.68-11.07-1.68-11.07,1.68-11.07,1.68l-15.57,120.55h53.29l-15.57-120.55Z"/>
            </g>
            <path class="cls-7" d="M548.51,574.13s-6.93,18.61-38.75,25.47c0,0,6.2-.27,12.6,13.99,5.77,12.86,12.61,25.77,12.61,25.77,0,0,28.78-29.07,30.38-41.91,0,0-11.96-33.49-17.05-32.81l.21,9.49Z"/>
            <path class="cls-7" d="M471,574.13s6.93,18.61,38.75,25.47c0,0-6.2-.27-12.6,13.99-5.77,12.86-12.61,25.77-12.61,25.77,0,0-28.78-29.07-30.37-41.91,0,0,11.96-33.49,17.05-32.81l-.21,9.49Z"/>
          </g>
          <path class="cls-1" d="M515.61,510.19c-3.78,1.04-7.77,1.04-11.55,0l-5.52-1.51,5.81,7.99c2.71,3.73,8.27,3.72,10.98,0l5.81-7.99-5.52,1.51Z"/>
          <path class="cls-1" d="M520.36,535.39c-6.89,1.17-14.16,1.17-21.06,0l-1.71-.29,4.35,2.6c4.42,2.64,11.43,2.63,15.83-.02l4.28-2.58-1.7.29Z"/>
          <path class="cls-1" d="M489.14,464.35l2.79-7.26,7.27,4.39c4.1,2.48,6.45,7.06,6.07,11.83l-2.02,25.39-1.54-14.92c-.68-6.65-4.05-12.74-9.31-16.87l-3.28-2.57Z"/>
          <path class="cls-8" d="M489.14,464.35l-18.28-3.76c-2.33-.48-4.75-.3-6.98.52l-3.08,1.13,4.44-5.42c2.91-3.55,7.49-5.27,12.01-4.52l7.82,1.3c4.25.71,7.85,3.5,9.6,7.43l1.59,3.57h-4.55c-.87,0-1.73-.09-2.58-.26Z"/>
          <path class="cls-8" d="M530.37,464.35l18.28-3.76c2.33-.48,4.75-.3,6.98.52l3.08,1.13-4.44-5.42c-2.91-3.55-7.49-5.27-12.01-4.52l-7.82,1.3c-4.25.71-7.85,3.5-9.6,7.43l-1.59,3.57h4.55c.87,0,1.73-.09,2.58-.26Z"/>
          <path class="cls-1" d="M514.41,524.85c-1.32-.16-1.5.07-2.64.64l-2.01,1.02-2.01-1.02c-1.13-.58-1.31-.8-2.64-.64,0,0-3.88,1.63-14.76,1.66,0,0,6.88,1.53,8.84,1.67,1.96.14,7.16.72,10.57.72s8.61-.58,10.57-.72c1.96-.14,8.84-1.67,8.84-1.67-10.88-.03-14.76-1.66-14.76-1.66Z"/>
          <g>
            <path class="cls-10" d="M359.86,671.29s26.32,46.19,26.32,82.96h-10.97s7.31-8.92-15.36-82.96Z"/>
            <path class="cls-10" d="M659.8,671.29s-26.32,46.19-26.32,82.96h10.97s-7.31-8.92,15.35-82.96Z"/>
          </g>
        </g>
      </g>
    </g>
  </g>
</svg>