<?xml version="1.0" encoding="UTF-8"?>
<svg id="Layer_2" data-name="Layer 2" xmlns="http://www.w3.org/2000/svg" viewBox="0 0 999.66 999.66">
  <defs>
    <style>
      .cls-1 {
        fill: #e8c3aa;
      }

      .cls-2 {
        fill: #30527f;
      }

      .cls-3 {
        fill: #2b2d36;
      }

      .cls-4 {
        fill: #323031;
      }

      .cls-5 {
        fill: #bbbdbf;
      }

      .cls-6 {
        fill: #223e77;
      }

      .cls-7 {
        fill: #fff;
      }

      .cls-8 {
        fill: #f1f1f2;
      }

      .cls-9 {
        font-family: Poppins-Medium, Poppins;
        font-size: 47px;
        font-weight: 500;
      }

      .cls-10 {
        fill: #fcdac4;
      }

      .cls-11 {
        fill: #302d2f;
      }
    </style>
  </defs>
  <g id="Layer_1-2" data-name="Layer 1">
    <g>
      <rect class="cls-7" width="999.66" height="999.66"/>
      <g>
        <g>
          <g>
            <polygon class="cls-3" points="486.63 466.9 370.15 466.9 370.15 159.79 391.01 124.09 486.63 124.09 486.63 466.9"/>
            <polygon class="cls-5" points="486.63 433.92 413.39 433.92 415.88 163.2 391.01 124.09 486.63 124.09 486.63 433.92"/>
            <path class="cls-8" d="M440.25,108.92v324.1c0,15.53-12.59,28.12-28.12,28.12h0c-15.02,0-27.19-12.18-27.19-27.19V160.53c0-4.05,3.28-7.33,7.32-7.33h0c4.05,0,7.33,3.28,7.33,7.33v259.59c0,7.62,6.18,13.81,13.8,13.81h0c7.62,0,13.8-6.18,13.8-13.81V160.28c0-19.99-16.2-36.19-36.19-36.19h0c-19.99,0-36.19,16.2-36.19,36.19v273.59c0,32.07,26,58.06,58.06,58.06h417.5c29.71,0,53.79-24.08,53.79-53.79V108.92c0-7.62-6.18-13.8-13.8-13.8h-416.31c-7.62,0-13.8,6.18-13.8,13.8Z"/>
          </g>
          <g>
            <rect class="cls-3" x="495.89" y="380.96" width="149.58" height="4.22"/>
            <rect class="cls-3" x="495.89" y="418.04" width="149.58" height="4.22"/>
            <rect class="cls-3" x="495.89" y="455.12" width="149.58" height="4.22"/>
            <rect class="cls-3" x="678.82" y="380.96" width="149.57" height="4.22"/>
            <rect class="cls-3" x="678.82" y="418.04" width="149.57" height="4.22"/>
            <rect class="cls-3" x="495.89" y="343.88" width="149.58" height="4.22"/>
            <rect class="cls-3" x="495.89" y="277.96" width="332.51" height="21.76"/>
            <rect class="cls-3" x="678.82" y="343.88" width="149.57" height="4.22"/>
            <rect class="cls-3" x="678.82" y="455.12" width="149.57" height="4.22"/>
          </g>
          <text class="cls-9" transform="translate(504.02 192.79)"><tspan x="0" y="0">APPOINTMENT </tspan><tspan x="85.99" y="56.4">LETTER</tspan></text>
        </g>
        <g>
          <circle class="cls-6" cx="478.95" cy="595.27" r="309.28" transform="translate(-280.64 513.02) rotate(-45)"/>
          <circle class="cls-7" cx="478.95" cy="595.27" r="251.75" transform="translate(-280.64 513.02) rotate(-45)"/>
          <rect class="cls-4" x="741.68" y="465.58" width="100.72" height="234.33"/>
          <rect class="cls-5" x="115.5" y="465.58" width="100.72" height="234.33"/>
          <g>
            <path class="cls-10" d="M652.36,655.76l-20.54-20.54-151.66-162.14c-18.5-19.78-47.21-26.23-72.39-16.26l-41.98,16.62c-24.84,9.83-51.32,14.88-78.04,14.88v187.03h73.29l91.11,90.45,10.11,10.11c9.24,9.24,24.21,9.24,33.45,0l5.33-5.33c9.24-9.24,9.24-24.21,0-33.45l13.69,13.69c9.24,9.24,24.21,9.24,33.45,0l5.33-5.33c9.24-9.24,9.24-24.21,0-33.44l11.41,11.4c9.24,9.24,24.21,9.24,33.45,0l5.33-5.33c9.24-9.24,9.24-24.21,0-33.45l9.89,9.89c9.24,9.24,24.21,9.24,33.45,0l5.33-5.33c9.24-9.24,9.24-24.21,0-33.45Z"/>
            <g>
              <path class="cls-1" d="M452.76,779.95l3.9,3.9c8.7,8.7,22.8,8.7,31.5,0l18.49-18.49c9.78-9.78,9.78-25.63,0-35.4h0c-9.78-9.78-25.63-9.78-35.4,0l-18.49,18.49c-8.7,8.7-8.7,22.8,0,31.5Z"/>
              <path class="cls-1" d="M404.87,757.04l3.9,3.9c8.7,8.7,22.8,8.7,31.5,0l44.72-44.72c9.78-9.78,9.78-25.63,0-35.4h0c-9.77-9.78-25.62-9.78-35.4,0l-44.72,44.72c-8.7,8.7-8.7,22.8,0,31.5Z"/>
              <path class="cls-1" d="M359.05,732.05l3.9,3.9c8.7,8.7,22.8,8.7,31.5,0l39.91-39.91c9.78-9.78,9.78-25.63,0-35.4h0c-9.78-9.77-25.63-9.77-35.4,0l-39.91,39.91c-8.7,8.7-8.7,22.8,0,31.5Z"/>
              <path class="cls-1" d="M314.1,705.15l4.95,4.95c8.41,8.41,22.04,8.41,30.45,0l21.59-21.59c9.78-9.78,9.78-25.63,0-35.4h0c-9.78-9.78-25.63-9.78-35.4,0l-21.59,21.59c-8.41,8.41-8.41,22.04,0,30.45Z"/>
            </g>
            <rect class="cls-11" x="670.14" y="465.58" width="73.29" height="234.33"/>
            <path class="cls-7" d="M706.79,669.03c-7.12,0-12.9-5.78-12.9-12.9s5.78-12.9,12.9-12.9,12.9,5.77,12.9,12.9-5.78,12.9-12.9,12.9Z"/>
            <path class="cls-1" d="M670.14,488.33c-25.44,0-50.65-4.63-74.45-13.56l-14.06-5.47-44.66-17.37c-18.33-7.13-38.88-5.7-56.04,3.89l-81.8,45.72-26.45,86.21h8.36c31.36,0,59.68-18.77,71.9-47.65h0l75.41-15.49,103.45,110.61,20.54,20.54c5.35,5.35,7.58,12.62,6.73,19.59h11.06v-187.03h0Z"/>
            <rect class="cls-2" x="214.46" y="465.58" width="73.29" height="234.33"/>
            <path class="cls-5" d="M251.11,669.03c-7.12,0-12.9-5.78-12.9-12.9s5.78-12.9,12.9-12.9,12.9,5.77,12.9,12.9-5.77,12.9-12.9,12.9Z"/>
          </g>
        </g>
      </g>
    </g>
  </g>
</svg>