<?xml version="1.0" encoding="UTF-8"?>
<svg id="Layer_2" data-name="Layer 2" xmlns="http://www.w3.org/2000/svg" viewBox="0 0 999.66 999.66">
  <defs>
    <style>
      .cls-1 {
        fill: #d1d3d4;
      }

      .cls-2 {
        fill: #223e77;
      }

      .cls-3 {
        fill: #fff;
      }
    </style>
  </defs>
  <g id="Layer_1-2" data-name="Layer 1">
    <g>
      <rect class="cls-3" width="999.66" height="999.66"/>
      <g>
        <path class="cls-1" d="M774.79,573.23c-3.3-23.41-11.6-47.66-34.53-58.65-31.75-15.22-55.85,8.42-85.08,15.44-40.97,9.84-77.83-11.81-119.01,8.99-25.34,12.8-44.7,35.09-48.65,64.16-2.86,21.08,3.88,29.7,9.91,49.88,9.46,31.68,14.01,60.73,12.48,93.83-2.11,45.84-18.74,97.8-1.92,141.92,9.11,23.87,40.17,22.32,50.57,6.65,2.35-.47,4.72-1.15,7.14-2.31,55.32-26.6,103.38-61,146.76-104.28,9.19-9.17,9-21.9,3.73-31.83,14.83-15.56,29.1-31.54,38.71-51.8,18.03-38.03,25.8-90.05,19.89-132Z"/>
        <path class="cls-1" d="M844.22,500.63c0,31.83-25.8,57.62-57.63,57.62s-57.63-25.8-57.63-57.62,25.8-57.63,57.63-57.63,57.63,25.8,57.63,57.63Z"/>
        <path class="cls-2" d="M897.44,685.64c-2.32-59.84-51.43-107.67-111.84-107.67s-109.51,47.83-111.83,107.67h223.67Z"/>
        <path d="M908.47,676.38c0,7.07-5.83,12.89-13.07,12.89s-12.89-5.83-12.89-12.89c0-50.16-37.27-92.2-86.73-98.38-4.06.71-8.13,1.06-12.36,1.06h-.18c-4.24,0-8.3-.35-12.36-1.06-49.63,6.18-86.73,48.22-86.73,98.38,0,7.07-5.83,12.89-12.89,12.89s-13.07-5.83-13.07-12.89c0-51.93,31.44-96.79,77.19-115.69-11.66-10.07-20.14-23.49-23.67-38.86-1.06-5.12-1.77-10.6-1.77-16.07,0-26.85,14.66-49.99,36.21-62.88-10.95-26.67-24.91-51.58-42.04-74.01-7.07,14.13-19.25,27.55-34.97,37.45-13.42,8.65-35.86,18.72-66.94,18.72-22.08,0-48.22-5.12-78.6-19.25-47.34-22.08-83.02-13.25-117.64-4.59-36.56,9.18-74.36,18.55-112.69-20.14-28.61-28.97-27.02-66.41-20.31-93.26-60.05,36.74-106.51,91.85-132.3,157.03,39.39-7.42,95.2,0,126.82,63.76,19.61,39.92,22.26,63.76,24.38,83.02,2.65,23.49,4.06,37.45,42.57,71.89,37.98,33.91,52.11,80.37,37.62,124.7-10.77,33.03-36.39,59.17-68.89,72.07,42.74,20.49,90.26,32.32,140.6,32.32,19.96,0,39.57-1.94,58.82-5.48-33.21-39.04-24.02-74.19-15.01-108.28,8.13-30.38,16.43-61.82-3.71-102.09-21.02-42.04-17.31-92.73,9.18-126.47,14.66-18.55,49.1-47.51,114.81-32.32,18.9,4.42,37.62,3.18,56.88-4.06,6.71-2.3,14.31,1.06,16.78,7.77.18.71.53,1.41.53,2.12,1.06,6.18-2.3,12.54-8.3,14.66-24.2,8.83-47.69,10.42-71.71,4.95-38.33-8.83-69.77-.71-88.49,22.96-20.14,25.61-22.79,66.06-6.36,98.74,24.55,49.1,13.95,88.67,5.65,120.46-9.36,35.33-16.25,61.47,19.25,94.85,81.96-23.14,153.32-77.89,196.24-154.2,3.53-6.18,11.48-8.48,17.84-4.95,6.18,3.53,8.48,11.48,4.95,17.84-47.34,83.72-126.29,143.6-217.08,167.62-.35.18-.71.18-1.06.35-28.79,7.42-58.64,11.48-89.2,11.48-66.06,0-127.71-18.55-180.69-50.34-2.12-.71-3.89-1.77-5.3-3.36-99.8-62.35-166.56-172.75-166.56-298.86,0-36.39,5.83-71.54,16.07-104.92.18-.53.35-1.06.53-1.59,29.14-92.38,95.2-169.04,183.52-211.08.88-.35,1.59-.88,2.47-1.24,18.55-8.65,37.8-15.72,58.11-21.2v-44.86l-26.49-14.31c-4.24-2.3-6.71-6.71-6.71-11.48s2.47-9.18,6.71-11.48l112.16-61.11c3.89-2.12,8.48-2.12,12.36,0l112.16,61.11c4.24,2.3,6.89,6.71,6.89,11.48s-2.65,9.18-6.89,11.48l-26.49,14.31v44.69c106.86,28.79,193.41,105.45,234.92,207.9,4.06-.71,8.3-1.24,12.72-1.24,40.45,0,73.3,32.85,73.3,73.3,0,22.08-9.89,41.51-25.26,54.93,45.75,18.9,77.19,63.76,77.19,115.69ZM792.77,552.03c21.55-4.24,37.8-23.49,37.8-46.28,0-26.14-21.2-47.34-47.34-47.34s-47.16,21.2-47.16,47.34c0,11.3,4.06,21.9,10.77,30.03,6.89,8.3,16.25,14.13,27.02,16.25,3.18.71,6.18,1.06,9.36,1.06s6.36-.35,9.54-1.06ZM655.18,384.4c18.19-11.48,27.73-27.2,29.67-38.68-39.74-43.63-91.14-76.13-149.25-93.09v14.84c0,4.95-2.83,9.54-7.24,11.66l-78.95,37.8c-3.53,1.77-7.77,1.77-11.3,0l-78.78-37.8c-4.59-2.12-7.42-6.71-7.42-11.66v-14.66c-15.54,4.42-30.56,10.24-45.04,16.96-6.36,13.6-25.44,62.35,4.77,92.91,28.08,28.26,51.93,22.26,88.14,13.25,35.33-8.65,79.13-19.61,134.77,6.36,62.35,28.97,102.27,13.78,120.64,2.12ZM443.75,201.59l84.96-46.28-84.96-46.28-84.96,46.28,84.96,46.28ZM509.63,259.17v-63.76l-59.7,32.5c-1.94,1.06-4.06,1.59-6.18,1.59s-4.24-.53-6.18-1.59l-59.7-32.5v63.76l65.88,31.62,65.88-31.62ZM347.31,780.06c11.13-34.09-.18-70.48-30.2-97.15-43.63-39.04-47.87-59-51.05-88.49-2.12-18.02-4.42-38.68-21.9-74.36-32.85-66.59-94.85-51.93-113.75-45.57-8.48,29.14-13.07,59.88-13.07,91.5,0,116.4,61.29,218.32,152.96,276.25,36.74-5.3,66.06-28.61,77.01-62.17Z"/>
        <path d="M852.12,392.7c3,6.54,0,14.13-6.71,16.96-1.59.88-3.36,1.24-5.12,1.24-4.95,0-9.71-3-12.01-7.95-40.1-92.03-112.34-166.92-202.95-210.37-6.54-3.18-9.18-10.95-6.01-17.49,3-6.36,10.77-9.18,17.31-6.01,96.26,46.28,172.92,125.76,215.49,223.62Z"/>
        <path class="cls-2" d="M704.11,368.86c17.13,22.43,31.09,47.34,42.04,74.01-21.55,12.89-36.21,36.03-36.21,62.88,0,5.48.71,10.95,1.77,16.07l-29.67,1.94c0-.71-.35-1.41-.53-2.12-2.47-6.71-10.07-10.07-16.78-7.77-19.25,7.24-37.98,8.48-56.88,4.06-65.71-15.19-100.15,13.78-114.81,32.32-26.49,33.74-30.2,84.43-9.18,126.47,20.14,40.27,11.83,71.71,3.71,102.09-9.01,34.09-18.19,69.24,15.01,108.28-19.25,3.53-38.86,5.48-58.82,5.48-50.34,0-97.85-11.83-140.6-32.32,32.5-12.89,58.11-39.04,68.89-72.07,14.48-44.33.35-90.79-37.62-124.7-38.51-34.44-39.92-48.4-42.57-71.89-2.12-19.25-4.77-43.1-24.38-83.02-31.62-63.76-87.43-71.18-126.82-63.76,25.79-65.18,72.24-120.29,132.3-157.03-6.71,26.85-8.3,64.29,20.31,93.26,38.33,38.68,76.13,29.32,112.69,20.14,34.62-8.65,70.3-17.49,117.64,4.59,30.38,14.13,56.52,19.25,78.6,19.25,31.09,0,53.52-10.07,66.94-18.72,15.72-9.89,27.91-23.32,34.97-37.45Z"/>
        <path class="cls-1" d="M684.85,345.72c-1.94,11.48-11.48,27.2-29.67,38.68-18.37,11.66-58.29,26.85-120.64-2.12-55.64-25.96-99.44-15.01-134.77-6.36-36.21,9.01-60.05,15.01-88.14-13.25-30.2-30.56-11.13-79.31-4.77-92.91,14.48-6.71,29.5-12.54,45.04-16.96v14.66c0,4.95,2.83,9.54,7.42,11.66l78.78,37.8c3.53,1.77,7.77,1.77,11.3,0l78.95-37.8c4.42-2.12,7.24-6.71,7.24-11.66v-14.84c58.11,16.96,109.51,49.46,149.25,93.09Z"/>
        <polygon class="cls-2" points="528.71 155.31 443.75 201.59 358.79 155.31 443.75 109.03 528.71 155.31"/>
        <path class="cls-1" d="M509.63,235.86v23.32l-65.88,31.62-65.88-31.62v-63.76l59.7,32.5c1.94,1.06,4.06,1.59,6.18,1.59s4.24-.53,6.18-1.59l59.7-32.5v40.45Z"/>
        <path class="cls-1" d="M317.1,682.91c30.03,26.67,41.33,63.06,30.2,97.15-10.95,33.56-40.27,56.88-77.01,62.17-91.67-57.94-152.96-159.85-152.96-276.25,0-31.62,4.59-62.35,13.07-91.5,18.9-6.36,80.9-21.02,113.75,45.57,17.49,35.68,19.78,56.35,21.9,74.36,3.18,29.5,7.42,49.46,51.05,88.49Z"/>
      </g>
    </g>
  </g>
</svg>