<?xml version="1.0" encoding="UTF-8"?>
<svg xmlns="http://www.w3.org/2000/svg" xmlns:xlink="http://www.w3.org/1999/xlink" viewBox="0 0 1044 1044">
  <defs>
    <style>
      .cls-1 {
        stroke-width: .5px;
      }

      .cls-1, .cls-2 {
        stroke: #d1d3d4;
        stroke-miterlimit: 10;
      }

      .cls-1, .cls-2, .cls-3, .cls-4 {
        fill: #fff;
      }

      .cls-5 {
        fill: #ac74f0;
      }

      .cls-2 {
        stroke-width: .25px;
      }

      .cls-6 {
        opacity: .36;
      }

      .cls-6, .cls-7 {
        fill: #223e77;
      }

      .cls-8 {
        fill: #e6e6e6;
      }

      .cls-9, .cls-10 {
        fill: #00adee;
      }

      .cls-9, .cls-11, .cls-12, .cls-13, .cls-14, .cls-15, .cls-16, .cls-17 {
        mix-blend-mode: multiply;
      }

      .cls-9, .cls-11, .cls-12, .cls-15, .cls-17 {
        opacity: .5;
      }

      .cls-11 {
        fill: #d1d3d4;
      }

      .cls-18 {
        isolation: isolate;
      }

      .cls-19 {
        fill: #d1eefc;
      }

      .cls-12, .cls-13 {
        fill: #64baf9;
      }

      .cls-13 {
        opacity: .3;
      }

      .cls-20, .cls-17 {
        fill: #f7931e;
      }

      .cls-4 {
        filter: url(#drop-shadow-1);
      }

      .cls-14, .cls-21 {
        fill: #1a1a1a;
      }

      .cls-22, .cls-23 {
        fill: #808285;
      }

      .cls-24, .cls-15 {
        fill: #f35f7d;
      }

      .cls-16, .cls-25 {
        fill: #333;
      }

      .cls-23 {
        opacity: .41;
      }
    </style>
    <filter id="drop-shadow-1" x="0" y="0" width="1044" height="1044" filterUnits="userSpaceOnUse">
      <feOffset dx="5" dy="5"/>
      <feGaussianBlur result="blur" stdDeviation="8"/>
      <feFlood flood-color="#000" flood-opacity=".75"/>
      <feComposite in2="blur" operator="in"/>
      <feComposite in="SourceGraphic"/>
    </filter>
  </defs>
  <g class="cls-18">
    <g id="Layer_2" data-name="Layer 2">
      <g id="Layer_1-2" data-name="Layer 1">
        <g>
          <circle class="cls-4" cx="517" cy="517" r="498"/>
          <g>
            <g>
              <path class="cls-20" d="M646.49,332.02l-29.21,7.84c-2.44.64-5.04-.05-6.82-1.83l-.3-.3-95.03,95.03c-3.18,3.18-8.34,3.18-11.52,0l-9.28-9.28c-3.18-3.18-3.18-8.34,0-11.52l95.03-95.03-.3-.3c-1.78-1.78-2.48-4.38-1.83-6.82l7.84-29.21c.65-2.43,2.56-4.34,4.99-4.99l26.97-10.09c2.43-.65,5.04.05,6.82,1.83.98.98.98,2.58,0,3.56l-17.75,17.75c-2.21,2.21-2.2,5.78,0,7.97l14.35,14.35c2.2,2.2,5.77,2.21,7.97,0l17.75-17.75c.98-.98,2.58-.98,3.56,0,1.78,1.78,2.49,4.39,1.83,6.82l-6.61,17.69-3.48,9.28c-.65,2.43-2.56,4.34-4.99,4.99Z"/>
              <path class="cls-17" d="M646.49,332.02l-29.21,7.84c-2.44.64-5.04-.05-6.82-1.83l-.3-.3-95.03,95.03c-3.18,3.18-8.34,3.18-11.52,0l-9.28-9.28c-3.18-3.18-3.18-8.34,0-11.52l94.22-94.22h66.42s-3.48,9.28-3.48,9.28c-.65,2.43-2.56,4.34-4.99,4.99Z"/>
              <rect class="cls-20" x="549.73" y="307.11" width="11.35" height="126.68" rx=".8" ry=".8" transform="translate(424.62 -284.23) rotate(45)"/>
            </g>
            <path class="cls-3" d="M682.4,350.56c-6.68,2-8.3,3.62-10.29,10.29-2-6.68-3.62-8.3-10.29-10.29,6.68-2,8.3-3.62,10.29-10.29,2,6.68,3.62,8.3,10.29,10.29Z"/>
            <path class="cls-3" d="M837.56,648.85c-6.68,2-8.3,3.62-10.29,10.29-2-6.68-3.62-8.3-10.29-10.29,6.68-2,8.3-3.62,10.29-10.29,2,6.68,3.62,8.3,10.29,10.29Z"/>
            <path class="cls-3" d="M859.28,661.27c-6.68,2-8.3,3.62-10.29,10.29-2-6.68-3.62-8.3-10.29-10.29,6.68-2,8.3-3.62,10.29-10.29,2,6.68,3.62,8.3,10.29,10.29Z"/>
            <g>
              <path class="cls-10" d="M508.2,295.06v-.14c0-5.49,2.3-10.73,6.57-14.14,1.08-.87,2.14-1.57,3.16-2.08l-1.03-3.22-1.46-4.46-1.05-3.22c-1.41.24-3.03.27-4.76.14-4.97-.41-9.49-3.14-12.41-7.19-.19-.24-.35-.51-.54-.76-.89-1.22-1.62-2.51-2.19-3.87-1.3-3.19-1.62-6.76-.84-10.16.41-1.7.92-3.24,1.6-4.51l-2.73-1.97-.57-.41-3.22-2.35-2.73-1.97c-1,1-2.32,1.97-3.78,2.87-4.27,2.62-9.54,3.08-14.3,1.49-.3-.11-.59-.19-.89-.3-4.76-1.51-8.76-4.97-10.65-9.57-.68-1.6-1.16-3.16-1.38-4.57h-11.44c-.22,1.41-.7,2.97-1.35,4.57-1.92,4.6-5.89,8.06-10.65,9.57-.32.11-.62.19-.92.3-4.76,1.59-10,1.14-14.27-1.49-1.49-.89-2.78-1.87-3.78-2.87l-2.73,1.97-3.78,2.76-2.73,1.97c.65,1.27,1.16,2.81,1.57,4.51,1.16,4.87-.03,10-3,14.03-.19.24-.38.51-.57.76-2.89,4.06-7.41,6.79-12.38,7.19-1.73.14-3.35.11-4.79-.14l-1.05,3.22-1.43,4.46-1.05,3.22c1.05.51,2.11,1.22,3.16,2.08,4.27,3.41,6.6,8.65,6.57,14.14v.14c.03,5.49-2.3,10.73-6.57,14.14-1.05.87-2.11,1.57-3.16,2.08l1.05,3.22,1.43,4.43,1.05,3.22c1.43-.22,3.05-.24,4.79-.11,4.97.41,9.49,3.11,12.38,7.19.08.08.14.16.19.27.14.16.27.32.38.49,2.97,4.03,4.16,9.16,3,14.03-.19.84-.43,1.65-.7,2.41-.24.76-.54,1.46-.87,2.11l2.73,1.97,3.78,2.76,2.73,1.97c1-1.03,2.3-1.97,3.78-2.89,4.27-2.6,9.52-3.05,14.27-1.46.3.11.59.19.92.3,4.76,1.49,8.73,4.97,10.65,9.57.65,1.6,1.14,3.14,1.35,4.57h11.44c.22-1.43.7-2.97,1.38-4.57,1.89-4.6,5.89-8.08,10.65-9.57.3-.11.59-.19.92-.3,4.73-1.6,10-1.14,14.27,1.46,1.46.92,2.78,1.87,3.78,2.89l2.73-1.97,3.78-2.76,2.73-1.97c-.68-1.3-1.19-2.84-1.6-4.52-1.14-4.87.05-10,3.03-14.03.19-.27.35-.51.54-.76,2.92-4.08,7.43-6.79,12.41-7.19,1.73-.14,3.35-.11,4.76.11l1.05-3.22,1.46-4.43,1.03-3.22c-1.03-.51-2.08-1.22-3.16-2.08-4.27-3.41-6.57-8.65-6.57-14.14ZM449.29,330.32c-8.14,0-15.63-2.76-21.6-7.38-3.68-2.84-6.79-6.41-9.11-10.49-2.92-5.14-4.6-11.11-4.6-17.46,0-19.49,15.79-35.31,35.31-35.31,6.35,0,12.3,1.68,17.44,4.62,4.08,2.3,7.65,5.41,10.52,9.08,4.6,5.97,7.35,13.46,7.35,21.6,0,19.52-15.81,35.33-35.31,35.33Z"/>
              <path class="cls-10" d="M468.92,295.01v-.03c0-1.84.76-3.6,2.19-4.73.35-.27.7-.51,1.05-.68l-.35-1.08-.49-1.49-.35-1.08c-.46.08-1,.11-1.57.05-1.24-.11-2.38-.62-3.3-1.46-.3-.27-.59-.59-.84-.95-.08-.08-.14-.16-.19-.24-1-1.35-1.38-3.05-1-4.68.14-.57.3-1.08.51-1.51l-.89-.65-.19-.14-1.08-.78-.92-.65c-.32.32-.76.65-1.24.95-1.43.87-3.19,1.03-4.78.49-.08-.03-.19-.05-.3-.08-1.57-.51-2.92-1.68-3.54-3.19-.22-.54-.38-1.05-.46-1.51h-3.81c-.08.46-.24.97-.46,1.51-.62,1.51-1.95,2.68-3.54,3.19-.11.03-.22.05-.3.08-1.6.54-3.35.38-4.76-.49-.51-.3-.95-.62-1.27-.95l-.92.65-1.24.92-.92.65c.22.43.38.95.51,1.51.41,1.62,0,3.33-1,4.68-.05.08-.11.16-.19.24-.95,1.35-2.46,2.27-4.11,2.41-.59.05-1.14.03-1.6-.05l-.35,1.08-.49,1.49-.35,1.08c.35.16.7.41,1.05.68,1.43,1.14,2.19,2.89,2.19,4.73v.03c0,1.84-.76,3.6-2.19,4.73-.35.27-.7.51-1.05.68l.35,1.08.49,1.49.35,1.05c.46-.05,1-.08,1.6-.03,1.65.13,3.16,1.03,4.11,2.41.03.03.05.05.08.08.03.05.08.11.11.16,1,1.35,1.41,3.05,1,4.68-.14.57-.3,1.08-.51,1.51l.92.65,1.24.92.05.03.87.62c.32-.32.76-.65,1.27-.95,1.41-.87,3.16-1.03,4.76-.49.08.03.19.05.3.08,1.6.51,2.92,1.68,3.54,3.19.22.54.38,1.05.46,1.54h3.81c.08-.49.24-1,.46-1.54.62-1.51,1.97-2.68,3.54-3.19.11-.03.22-.05.32-.08,1.57-.54,3.33-.38,4.76.49.49.3.92.62,1.24.95l.92-.65,1.27-.92.89-.65c-.22-.43-.38-.95-.51-1.51-.38-1.62,0-3.33,1-4.68.05-.08.11-.16.19-.24.97-1.38,2.46-2.27,4.14-2.41.57-.05,1.11-.03,1.57.03l.35-1.05.49-1.49.35-1.08c-.35-.16-.7-.41-1.05-.68-1.43-1.14-2.19-2.89-2.19-4.73ZM449.29,303.2c-.57,0-1.14-.05-1.68-.19-2.35-.46-4.33-1.95-5.46-3.95-.7-1.22-1.08-2.6-1.08-4.08,0-4.51,3.68-8.19,8.22-8.19,1.46,0,2.84.38,4.06,1.05,2,1.16,3.49,3.14,3.95,5.49.14.54.19,1.08.19,1.65,0,4.54-3.68,8.22-8.19,8.22Z"/>
              <path class="cls-9" d="M471.11,299.74c.35.27.7.51,1.05.68l-.35,1.08-.49,1.49-.35,1.05c-.46-.05-1-.08-1.57-.03-1.68.13-3.16,1.03-4.14,2.41-.08.08-.14.16-.19.24-1,1.35-1.38,3.05-1,4.68.14.57.3,1.08.51,1.51l-.89.65-1.27.92-.92.65c-.32-.32-.76-.65-1.24-.95-1.43-.87-3.19-1.03-4.76-.49-.11.03-.22.05-.32.08-1.57.51-2.92,1.68-3.54,3.19-.22.54-.38,1.05-.46,1.54h-3.81c-.08-.49-.24-1-.46-1.54-.62-1.51-1.95-2.68-3.54-3.19-.11-.03-.22-.05-.3-.08-1.6-.54-3.35-.38-4.76.49-.51.3-.95.62-1.27.95l-.87-.62,11.44-11.44c.54.14,1.11.19,1.68.19,4.51,0,8.19-3.68,8.19-8.22,0-.57-.05-1.11-.19-1.65l8.81-8.81c.92.84,2.05,1.35,3.3,1.46.57.05,1.11.03,1.57-.05l.35,1.08.49,1.49.35,1.08c-.35.16-.7.41-1.05.68-1.43,1.14-2.19,2.89-2.19,4.73v.03c0,1.84.76,3.6,2.19,4.73Z"/>
              <path class="cls-9" d="M514.77,309.2c1.08.87,2.14,1.57,3.16,2.08l-1.03,3.22-1.46,4.43-1.05,3.22c-1.41-.22-3.03-.24-4.76-.11-4.97.41-9.49,3.11-12.41,7.19-.19.24-.35.49-.54.76-2.97,4.03-4.16,9.16-3.03,14.03.41,1.68.92,3.22,1.6,4.52l-2.73,1.97-3.78,2.76-2.73,1.97c-1-1.03-2.32-1.97-3.78-2.89-4.27-2.6-9.54-3.05-14.27-1.46-.32.11-.62.19-.92.3-4.76,1.49-8.76,4.97-10.65,9.57-.68,1.6-1.16,3.14-1.38,4.57h-11.44c-.22-1.43-.7-2.97-1.35-4.57-1.92-4.6-5.89-8.08-10.65-9.57-.32-.11-.62-.19-.92-.3-4.76-1.6-10-1.14-14.27,1.46-1.49.92-2.78,1.87-3.78,2.89l-2.73-1.97-3.78-2.76-2.73-1.97c.32-.65.62-1.35.87-2.11l23.49-23.49c5.97,4.62,13.46,7.38,21.6,7.38,19.49,0,35.31-15.81,35.31-35.33,0-8.14-2.76-15.63-7.35-21.6l17.25-17.25c.57,1.35,1.3,2.65,2.19,3.87.19.24.35.51.54.76,2.92,4.06,7.43,6.79,12.41,7.19,1.73.14,3.35.11,4.76-.14l1.05,3.22,1.46,4.46,1.03,3.22c-1.03.51-2.08,1.22-3.16,2.08-4.27,3.41-6.57,8.65-6.57,14.14v.14c0,5.49,2.3,10.73,6.57,14.14Z"/>
            </g>
            <g>
              <path class="cls-3" d="M890.27,283.37v203.69c0,4.17-3.38,7.54-7.54,7.54h-111.94l-40.83-40.85v-170.38c0-4.17,3.38-7.54,7.54-7.54h145.22c4.17,0,7.54,3.38,7.54,7.54Z"/>
              <path class="cls-13" d="M890.27,283.37v203.69c0,4.17-3.38,7.54-7.54,7.54h-111.94l-40.83-40.85v-170.38c0-4.17,3.38-7.54,7.54-7.54h145.22c4.17,0,7.54,3.38,7.54,7.54Z"/>
              <path class="cls-12" d="M871.88,297.93v196.67h-101.09l-40.83-40.85v-163.37h134.38c4.17,0,7.54,3.38,7.54,7.54Z"/>
              <path class="cls-1" d="M863.39,297.93v203.69c0,4.17-3.38,7.54-7.54,7.54h-111.94l-26.39-26.39-9.64-9.66-4.81-4.81v-170.38c0-4.17,3.38-7.54,7.54-7.54h145.22c4.17,0,7.54,3.38,7.54,7.54Z"/>
              <g>
                <rect class="cls-20" x="723.83" y="321.81" width="118.82" height="17.63"/>
                <rect class="cls-12" x="723.83" y="358.13" width="118.82" height="7.23"/>
                <rect class="cls-12" x="723.83" y="370.6" width="118.82" height="7.23"/>
                <rect class="cls-12" x="723.83" y="383.07" width="118.82" height="7.23"/>
                <rect class="cls-12" x="723.83" y="395.53" width="118.82" height="7.23"/>
                <rect class="cls-12" x="723.83" y="408" width="118.82" height="7.23"/>
                <rect class="cls-12" x="723.83" y="420.47" width="118.82" height="7.23"/>
                <rect class="cls-12" x="723.83" y="432.93" width="118.82" height="7.23"/>
                <rect class="cls-12" x="723.83" y="445.4" width="118.82" height="7.23"/>
              </g>
              <path class="cls-13" d="M863.39,336.94v164.69c0,4.17-3.38,7.54-7.54,7.54h-111.94l-26.39-26.39,145.87-145.85Z"/>
              <path class="cls-12" d="M749.34,475.86v33.31h-5.43l-36.02-36.04.62-4.81h33.29c4.17,0,7.54,3.38,7.54,7.54Z"/>
              <path class="cls-3" d="M703.08,468.32h33.29c4.17,0,7.54,3.38,7.54,7.54v33.31l-40.83-40.85Z"/>
            </g>
            <ellipse class="cls-11" cx="517" cy="795.47" rx="373.43" ry="13.86"/>
            <rect class="cls-21" x="493.67" y="716.19" width="46.67" height="71.38"/>
            <rect class="cls-14" x="493.67" y="716.19" width="46.67" height="35.69"/>
            <path class="cls-25" d="M776.14,408.59v316.73c0,9.19-7.46,16.65-16.63,16.65h-485c-9.17,0-16.65-7.46-16.65-16.65v-316.73c0-9.19,7.48-16.65,16.65-16.65h485c9.17,0,16.63,7.46,16.63,16.65Z"/>
            <path class="cls-16" d="M776.14,408.59v316.73c0,9.19-7.46,16.65-16.63,16.65h-459.22l350.01-350.02h109.21c9.17,0,16.63,7.46,16.63,16.65Z"/>
            <path class="cls-8" d="M764.04,408.59v316.73c0,2.52-2.03,4.55-4.53,4.55h-485c-2.5,0-4.53-2.03-4.53-4.55v-316.73c0-2.5,2.03-4.55,4.53-4.55h485c2.5,0,4.53,2.05,4.53,4.55Z"/>
            <rect class="cls-25" x="412.64" y="775.69" width="208.74" height="16.67" rx="1.66" ry="1.66"/>
            <path class="cls-7" d="M764.04,408.59v30.18h-494.07v-30.18c0-2.5,2.03-4.55,4.53-4.55h485c2.5,0,4.53,2.05,4.53,4.55Z"/>
            <path class="cls-7" d="M764.04,585.16v140.16c0,2.52-2.03,4.55-4.53,4.55h-485c-2.5,0-4.53-2.03-4.53-4.55v-140.16h494.07Z"/>
            <g>
              <path class="cls-8" d="M296.48,421.4c0,2.65-2.15,4.79-4.79,4.79s-4.79-2.15-4.79-4.79,2.15-4.79,4.79-4.79,4.79,2.15,4.79,4.79Z"/>
              <path class="cls-8" d="M318.19,421.4c0,2.65-2.15,4.79-4.79,4.79s-4.79-2.15-4.79-4.79,2.15-4.79,4.79-4.79,4.79,2.15,4.79,4.79Z"/>
              <circle class="cls-8" cx="335.1" cy="421.4" r="4.79"/>
            </g>
            <g>
              <rect class="cls-8" x="286.89" y="603.17" width="210.2" height="19.17"/>
              <rect class="cls-3" x="286.89" y="637.01" width="210.2" height="5.64"/>
              <rect class="cls-3" x="286.89" y="648.85" width="210.2" height="5.64"/>
              <rect class="cls-3" x="286.89" y="660.69" width="210.2" height="5.64"/>
              <rect class="cls-3" x="286.89" y="672.53" width="210.2" height="5.64"/>
              <rect class="cls-3" x="286.89" y="684.37" width="210.2" height="5.64"/>
              <rect class="cls-3" x="286.89" y="696.22" width="210.2" height="5.64"/>
              <rect class="cls-3" x="286.89" y="708.06" width="210.2" height="5.64"/>
            </g>
            <g>
              <rect class="cls-8" x="536.93" y="603.17" width="210.2" height="19.17"/>
              <rect class="cls-3" x="536.93" y="637.01" width="210.2" height="5.64"/>
              <rect class="cls-3" x="536.93" y="648.85" width="210.2" height="5.64"/>
              <rect class="cls-3" x="536.93" y="660.69" width="210.2" height="5.64"/>
              <rect class="cls-3" x="536.93" y="672.53" width="210.2" height="5.64"/>
              <rect class="cls-3" x="536.93" y="684.37" width="210.2" height="5.64"/>
              <rect class="cls-3" x="536.93" y="696.22" width="210.2" height="5.64"/>
              <rect class="cls-3" x="536.93" y="708.06" width="210.2" height="5.64"/>
            </g>
            <path class="cls-13" d="M764.04,408.59v316.73c0,2.52-2.03,4.55-4.53,4.55h-447.13l325.82-325.83h121.31c2.5,0,4.53,2.05,4.53,4.55Z"/>
            <g>
              <path class="cls-7" d="M336.85,692.7c0,3.96-1.62,7.57-4.24,10.17-2.61,2.61-6.22,4.24-10.17,4.24h-164.46c-7.92,0-14.41-6.48-14.41-14.41,0-3.96,1.62-7.57,4.24-10.18,2.61-2.61,6.22-4.24,10.17-4.24h164.46c7.92,0,14.41,6.49,14.41,14.42Z"/>
              <g>
                <path class="cls-3" d="M173.93,692.7c0,2.51-2.03,4.54-4.54,4.54s-4.54-2.03-4.54-4.54,2.03-4.54,4.54-4.54,4.54,2.03,4.54,4.54Z"/>
                <path class="cls-3" d="M194.17,692.7c0,2.51-2.03,4.54-4.54,4.54s-4.54-2.03-4.54-4.54,2.03-4.54,4.54-4.54,4.54,2.03,4.54,4.54Z"/>
                <path class="cls-3" d="M214.4,692.7c0,2.51-2.03,4.54-4.54,4.54s-4.54-2.03-4.54-4.54,2.03-4.54,4.54-4.54,4.54,2.03,4.54,4.54Z"/>
                <path class="cls-3" d="M234.63,692.7c0,2.51-2.03,4.54-4.54,4.54s-4.54-2.03-4.54-4.54,2.03-4.54,4.54-4.54,4.54,2.03,4.54,4.54Z"/>
                <path class="cls-3" d="M254.87,692.7c0,2.51-2.03,4.54-4.54,4.54s-4.54-2.03-4.54-4.54,2.03-4.54,4.54-4.54,4.54,2.03,4.54,4.54Z"/>
                <path class="cls-3" d="M275.1,692.7c0,2.51-2.03,4.54-4.54,4.54s-4.54-2.03-4.54-4.54,2.03-4.54,4.54-4.54,4.54,2.03,4.54,4.54Z"/>
                <path class="cls-3" d="M295.33,692.7c0,2.51-2.03,4.54-4.54,4.54s-4.54-2.03-4.54-4.54,2.03-4.54,4.54-4.54,4.54,2.03,4.54,4.54Z"/>
                <path class="cls-3" d="M315.57,692.7c0,2.51-2.03,4.54-4.54,4.54s-4.54-2.03-4.54-4.54,2.03-4.54,4.54-4.54,4.54,2.03,4.54,4.54Z"/>
              </g>
              <path class="cls-6" d="M336.85,692.7c0,3.96-1.62,7.57-4.24,10.17-2.61,2.61-6.22,4.24-10.17,4.24h-94.03l28.83-28.83h65.2c7.92,0,14.41,6.49,14.41,14.42Z"/>
            </g>
            <g>
              <path class="cls-22" d="M336.85,734.04c0,3.96-1.62,7.57-4.24,10.17-2.61,2.61-6.22,4.24-10.17,4.24h-164.46c-7.92,0-14.41-6.48-14.41-14.41,0-3.96,1.62-7.57,4.24-10.18,2.61-2.61,6.22-4.24,10.17-4.24h164.46c7.92,0,14.41,6.49,14.41,14.42Z"/>
              <g>
                <path class="cls-3" d="M173.93,734.04c0,2.51-2.03,4.54-4.54,4.54s-4.54-2.03-4.54-4.54,2.03-4.54,4.54-4.54,4.54,2.03,4.54,4.54Z"/>
                <path class="cls-3" d="M194.17,734.04c0,2.51-2.03,4.54-4.54,4.54s-4.54-2.03-4.54-4.54,2.03-4.54,4.54-4.54,4.54,2.03,4.54,4.54Z"/>
                <path class="cls-3" d="M214.4,734.04c0,2.51-2.03,4.54-4.54,4.54s-4.54-2.03-4.54-4.54,2.03-4.54,4.54-4.54,4.54,2.03,4.54,4.54Z"/>
                <path class="cls-3" d="M234.63,734.04c0,2.51-2.03,4.54-4.54,4.54s-4.54-2.03-4.54-4.54,2.03-4.54,4.54-4.54,4.54,2.03,4.54,4.54Z"/>
                <path class="cls-3" d="M254.87,734.04c0,2.51-2.03,4.54-4.54,4.54s-4.54-2.03-4.54-4.54,2.03-4.54,4.54-4.54,4.54,2.03,4.54,4.54Z"/>
                <path class="cls-3" d="M275.1,734.04c0,2.51-2.03,4.54-4.54,4.54s-4.54-2.03-4.54-4.54,2.03-4.54,4.54-4.54,4.54,2.03,4.54,4.54Z"/>
                <path class="cls-3" d="M295.33,734.04c0,2.51-2.03,4.54-4.54,4.54s-4.54-2.03-4.54-4.54,2.03-4.54,4.54-4.54,4.54,2.03,4.54,4.54Z"/>
                <path class="cls-3" d="M315.57,734.04c0,2.51-2.03,4.54-4.54,4.54s-4.54-2.03-4.54-4.54,2.03-4.54,4.54-4.54,4.54,2.03,4.54,4.54Z"/>
              </g>
              <path class="cls-23" d="M336.85,734.04c0,3.96-1.62,7.57-4.24,10.17-2.61,2.61-6.22,4.24-10.17,4.24h-94.03l28.83-28.83h65.2c7.92,0,14.41,6.49,14.41,14.42Z"/>
            </g>
            <g>
              <path class="cls-20" d="M778.79,653.92v104.04h-32.92v-104.04c0-2.07,1.69-3.76,3.76-3.76h25.4c2.07,0,3.76,1.69,3.76,3.76Z"/>
              <polygon class="cls-17" points="778.79 675.23 778.79 757.95 745.87 757.95 745.87 708.14 778.79 675.23"/>
              <path class="cls-7" d="M827.26,672.71v85.25h-32.92v-85.25c0-2.07,1.69-3.76,3.76-3.76h25.4c2.07,0,3.76,1.69,3.76,3.76Z"/>
              <polygon class="cls-9" points="827.26 686.39 827.26 757.95 794.35 757.95 794.35 719.3 827.26 686.39"/>
              <path class="cls-24" d="M875.74,691.5v66.46h-32.92v-66.46c0-2.07,1.69-3.76,3.76-3.76h25.4c2.07,0,3.76,1.69,3.76,3.76Z"/>
              <polygon class="cls-15" points="875.74 709.63 875.74 757.95 842.82 757.95 842.82 742.55 875.74 709.63"/>
              <rect class="cls-17" x="745.87" y="750.38" width="32.92" height="7.57"/>
              <rect class="cls-9" x="794.35" y="750.38" width="32.92" height="7.57"/>
              <rect class="cls-15" x="842.82" y="750.38" width="32.92" height="7.57"/>
              <rect class="cls-21" x="731.18" y="756.08" width="159.25" height="9.02" rx="1.03" ry="1.03"/>
            </g>
            <g>
              <path class="cls-20" d="M300.29,608.48c0,7.08-2.87,13.48-7.5,18.12-4.63,4.63-11.04,7.5-18.11,7.5h-62.35c-14.15,0-25.62-11.47-25.62-25.62,0-7.08,2.87-13.47,7.5-18.11,4.63-4.63,11.04-7.5,18.11-7.5h62.35c14.15,0,25.62,11.47,25.62,25.62Z"/>
              <g>
                <path class="cls-8" d="M229.66,604.79l-10.28,4.85,10.28,4.84v6.41l-14.97-7.6v-7.31l14.97-7.59v6.4Z"/>
                <path class="cls-8" d="M252.62,589.81l-10.7,37.36h-6.12l10.7-37.36h6.12Z"/>
                <path class="cls-8" d="M257.33,614.07l10.28-4.84-10.28-4.84v-6.41l14.97,7.59v7.31l-14.97,7.6v-6.4Z"/>
              </g>
              <path class="cls-17" d="M300.29,608.48c0,7.08-2.87,13.48-7.5,18.12-4.63,4.63-11.04,7.5-18.11,7.5h-52.98l51.24-51.24h1.74c14.15,0,25.62,11.47,25.62,25.62Z"/>
            </g>
            <g>
              <path class="cls-2" d="M311.72,303.24c-3.01,0-5.95.31-8.82.82.02-.52.08-1.03.08-1.56,0-22.93-18.58-41.51-41.51-41.51-20.11,0-36.87,14.3-40.69,33.28-1.97-.26-3.97-.44-6.01-.44-19.88,0-36.74,12.72-43.02,30.44-16.35,5.29-28.19,20.62-28.19,38.74,0,22.49,18.23,40.72,40.72,40.72h127.43c27.75,0,50.25-22.5,50.25-50.25s-22.5-50.25-50.25-50.25Z"/>
              <path class="cls-5" d="M252.85,316.81s-.06,0-.08,0-.05,0-.08,0c-17.64.04-31.99,14.41-31.99,32.07s14.39,32.07,32.07,32.07,32.07-14.39,32.07-32.07-14.34-32.02-31.99-32.07ZM254.46,337.37c3.72-.1,7.33-.56,10.71-1.31.85,3.4,1.38,7.17,1.5,11.13h-12.21v-9.82ZM254.46,333.99v-13.58c4,1.05,7.54,5.76,9.77,12.4-3.07.67-6.37,1.08-9.77,1.18ZM251.08,320.41v13.58c-3.4-.1-6.69-.5-9.77-1.18,2.23-6.64,5.77-11.35,9.77-12.4ZM251.08,337.37v9.82h-12.21c.12-3.96.65-7.73,1.5-11.13,3.38.76,6.99,1.21,10.71,1.31ZM235.49,347.19h-11.36c.33-5.62,2.28-10.81,5.39-15.1,2.24,1.24,4.78,2.28,7.54,3.11-.91,3.66-1.46,7.7-1.58,11.99ZM235.49,350.56c.11,4.3.67,8.34,1.58,11.99-2.76.83-5.31,1.87-7.55,3.11-3.11-4.3-5.07-9.48-5.39-15.1h11.36ZM238.87,350.56h12.21v9.82c-3.72.1-7.33.56-10.71,1.31-.85-3.4-1.38-7.17-1.5-11.13ZM251.08,363.76v13.58c-4-1.05-7.54-5.76-9.77-12.4,3.07-.67,6.37-1.08,9.77-1.18ZM254.46,377.34v-13.58c3.4.1,6.69.5,9.77,1.18-2.23,6.64-5.77,11.35-9.77,12.4ZM254.46,360.39v-9.82h12.21c-.12,3.96-.65,7.73-1.5,11.13-3.38-.76-6.99-1.21-10.71-1.31ZM270.05,350.56h11.36c-.33,5.62-2.28,10.81-5.39,15.1-2.24-1.24-4.79-2.28-7.55-3.11.91-3.66,1.46-7.7,1.58-11.99ZM270.05,347.19c-.11-4.3-.67-8.34-1.58-11.99,2.76-.83,5.31-1.87,7.54-3.11,3.11,4.3,5.07,9.48,5.39,15.1h-11.36ZM273.84,329.42c-1.89,1-4.01,1.85-6.29,2.53-1.36-4.13-3.21-7.62-5.42-10.2,4.52,1.56,8.53,4.22,11.72,7.66ZM243.42,321.76c-2.21,2.58-4.06,6.07-5.42,10.2-2.29-.69-4.41-1.54-6.29-2.53,3.18-3.44,7.19-6.1,11.72-7.66ZM231.7,368.33c1.89-1,4.01-1.85,6.3-2.53,1.36,4.13,3.22,7.62,5.42,10.2-4.52-1.56-8.54-4.22-11.72-7.67ZM262.12,376c2.21-2.58,4.06-6.07,5.42-10.2,2.29.69,4.41,1.54,6.3,2.53-3.18,3.44-7.2,6.11-11.72,7.67Z"/>
              <path class="cls-19" d="M287.63,311.5c0,.58-.07,1.14-.09,1.71,3.16-.56,6.39-.9,9.71-.9,30.58,0,55.37,24.79,55.37,55.37,0,6.75-1.21,13.21-3.42,19.19,7.92-8.88,12.77-20.55,12.77-33.39,0-27.75-22.5-50.25-50.25-50.25-3.01,0-5.95.31-8.82.82.02-.52.08-1.03.08-1.56,0-22.93-18.58-41.51-41.51-41.51-6.97,0-13.52,1.75-19.28,4.79,25.12.17,45.43,20.57,45.43,45.73Z"/>
            </g>
            <g>
              <rect class="cls-3" x="747.41" y="538.23" width="93.87" height="93.87"/>
              <polygon class="cls-12" points="841.28 538.23 841.28 632.1 747.41 632.1 747.41 624.08 833.26 538.23 841.28 538.23"/>
              <rect class="cls-5" x="756.36" y="547.18" width="75.96" height="75.96"/>
              <polygon class="cls-10" points="832.33 555.08 832.33 623.14 788.21 623.14 790.47 596.94 800.74 586.68 832.33 555.08"/>
              <polygon class="cls-9" points="832.33 618.27 832.33 623.14 788.21 623.14 790.47 596.94 800.74 586.68 832.33 618.27"/>
              <polygon class="cls-10" points="830.87 623.14 756.36 623.14 756.36 590.85 777.47 569.74 830.87 623.14"/>
              <path class="cls-20" d="M811.23,566.33c0,4.24-3.44,7.67-7.67,7.67s-7.67-3.44-7.67-7.67,3.44-7.67,7.67-7.67,7.67,3.44,7.67,7.67Z"/>
            </g>
            <g>
              <path class="cls-7" d="M235.8,449.15v73.31c0,5.23-4.23,9.46-9.46,9.46h-73.31c-3.15,0-5.91-1.51-7.64-3.88-1.14-1.56-1.82-3.5-1.82-5.58v-73.31c0-5.23,4.23-9.46,9.46-9.46h73.31c2.1,0,4.04.69,5.61,1.82,2.34,1.73,3.85,4.52,3.85,7.64Z"/>
              <path class="cls-15" d="M235.8,449.15v73.31c0,5.23-4.23,9.46-9.46,9.46h-73.31c-3.15,0-5.91-1.51-7.64-3.88l86.56-86.53c2.34,1.73,3.85,4.52,3.85,7.64Z"/>
              <path class="cls-3" d="M209.17,489.04l-29.94,19.91c-2.58,1.73-6.03-.12-6.03-3.22v-39.87c0-3.1,3.45-4.94,6.03-3.22l15.11,10.05,3.83,2.55,11,7.33c2.32,1.54,2.32,4.92,0,6.46Z"/>
              <path class="cls-19" d="M209.17,489.04l-29.94,19.91c-2.58,1.73-6.03-.12-6.03-3.22v-5.51l24.97-24.97,11,7.33c2.32,1.54,2.32,4.92,0,6.46Z"/>
            </g>
          </g>
        </g>
      </g>
    </g>
  </g>
</svg>