<?xml version="1.0" encoding="UTF-8"?>
<svg xmlns="http://www.w3.org/2000/svg" xmlns:xlink="http://www.w3.org/1999/xlink" viewBox="0 0 1044 1044">
  <defs>
    <style>
      .cls-1 {
        fill: #f8ba8c;
      }

      .cls-1, .cls-2, .cls-3, .cls-4, .cls-5, .cls-6, .cls-7 {
        stroke: #000;
      }

      .cls-1, .cls-2, .cls-3, .cls-4, .cls-7 {
        stroke-width: 2.02px;
      }

      .cls-1, .cls-2, .cls-8, .cls-4, .cls-5, .cls-6 {
        stroke-miterlimit: 10;
      }

      .cls-2 {
        fill: #ececec;
      }

      .cls-3 {
        fill: #cdcdcd;
      }

      .cls-3, .cls-7 {
        stroke-linecap: round;
        stroke-linejoin: round;
      }

      .cls-8 {
        stroke: #ccc;
      }

      .cls-8, .cls-6 {
        fill: #223e77;
      }

      .cls-9, .cls-10, .cls-11 {
        fill: #fff;
      }

      .cls-9, .cls-12 {
        opacity: .5;
      }

      .cls-13 {
        isolation: isolate;
      }

      .cls-14 {
        fill: #e9b400;
      }

      .cls-15 {
        fill: #c99d00;
      }

      .cls-4 {
        fill: #683b11;
      }

      .cls-5 {
        fill: #0d2450;
        stroke-width: 2px;
      }

      .cls-16 {
        fill: #f8b100;
      }

      .cls-17 {
        fill: #fcc200;
      }

      .cls-11 {
        filter: url(#drop-shadow-1);
      }

      .cls-7 {
        fill: #808285;
      }

      .cls-18 {
        fill: #b1b1b1;
        mix-blend-mode: multiply;
      }

      .cls-19 {
        fill: #fdcc39;
      }
    </style>
    <filter id="drop-shadow-1" x="0" y="0" width="1044" height="1044" filterUnits="userSpaceOnUse">
      <feOffset dx="5" dy="5"/>
      <feGaussianBlur result="blur" stdDeviation="8"/>
      <feFlood flood-color="#000" flood-opacity=".75"/>
      <feComposite in2="blur" operator="in"/>
      <feComposite in="SourceGraphic"/>
    </filter>
  </defs>
  <g class="cls-13">
    <g id="Layer_2" data-name="Layer 2">
      <g id="Layer_1-2" data-name="Layer 1">
        <g>
          <circle class="cls-11" cx="517" cy="517" r="498"/>
          <g>
            <g>
              <rect class="cls-1" x="392.71" y="544.9" width="108.42" height="69.27"/>
              <polygon class="cls-3" points="364.97 615.67 446.79 822.98 546.43 622.45 509.54 606.64 448.93 610.02 390.58 607.39 364.97 615.67"/>
              <polygon class="cls-7" points="435.75 668.38 421.7 768.77 446.79 822.98 473.9 768.27 459.34 668.38 475.91 642.78 448.93 610.02 416.68 642.78 435.75 668.38"/>
              <polygon class="cls-2" points="503.64 599.86 450.05 609.65 474.9 660.34 520.84 609.65 503.64 599.86"/>
              <path class="cls-6" d="M640.04,684.94c-2.51-23.09-16.56-52.69-40.65-56.72-24.09-4.03-78.56-18.57-78.56-18.57l-74.04,213.33h217.35s-21.58-114.95-24.1-138.04Z"/>
              <polygon class="cls-5" points="528.36 677.41 572.03 640.52 520.84 609.65 446.79 822.98 538.9 698.49 528.36 677.41"/>
              <path class="cls-6" d="M255.54,684.94c2.51-23.09,13.8-49.7,40.66-56.72,23.63-6.18,78.56-18.57,78.56-18.57l74.04,213.33h-217.35s21.58-114.95,24.09-138.04Z"/>
              <polygon class="cls-5" points="365.48 677.41 321.81 640.52 374.76 610.77 448.17 820.85 354.94 698.49 365.48 677.41"/>
              <path class="cls-1" d="M576.55,404.09c-4.68,0-10.11,2.96-14.64,7.58.69-14.89,1.09-30,1.09-44.47,0-145.32-228.89-147.55-228.89,0,0,13.74.46,28.59,1.26,43.5-4.33-4.05-9.29-6.61-13.63-6.61-10.19,0-19.58,15.06-15.06,30.87,4.35,15.19,15.81,48.94,34.64,45.18.11-.02.19-.09.3-.12,4.54,18.95,12.97,36.17,20.35,47.55,18.07,27.86,60.86,55.72,84.96,55.72s69.39-33.13,85.21-56.47c9.13-13.48,19.57-28.61,24.14-46.96.24.08.44.22.7.28,18.82,3.77,30.3-29.99,34.64-45.18,4.51-15.81-4.87-30.87-15.06-30.87Z"/>
              <path class="cls-4" d="M550.95,444c11.3-13.56,26.36-45.93,26.36-76.8,0-78.48-40.66-133.27-133.27-132.52-100.96.82-121.22,51.96-121.22,125.74,0,13.09,9.03,64.75,17.31,85.08,0,0,6.48-34.53,9.79-60.23,2.75-21.33-.53-42.52,5.27-45.93,119.71,41.41,176.94,0,176.94,0,0,0-7.53,27.11,2.26,48.19,10.73,23.11,17.31,32.38,16.56,56.47Z"/>
              <path class="cls-18" d="M551.28,429.64c5.26-24.05-5.57-48.04-6.52-72.29-.47-11.82,4.84-49.89-9.7-56.27-5.09-2.23-31.54,9.36-38.41,11.52-23.92,7.53-49.35,11.88-74.43,12.84-13.26.51-62.07,7.78-66.76,13.98,119.53,41.26,176.68-.09,176.68-.09,0,0-7.53,27.11,2.26,48.19,8.92,19.23,14.97,28.9,16.31,45.48.19-1.12.32-2.23.58-3.37Z"/>
              <polygon class="cls-2" points="393.88 599.86 447.46 609.65 422.61 660.34 376.68 609.65 393.88 599.86"/>
            </g>
            <g>
              <path class="cls-8" d="M789.29,759.28c-5.07-8.09-7.75-17.43-7.75-27.01s2.68-18.92,7.75-27.01c3.01-4.8,6.79-9.05,11.15-12.58,1.89-1.53,2.59-4.1,1.76-6.39-1.35-3.71-2.86-7.36-4.54-10.94-1.03-2.2-3.34-3.53-5.76-3.27-5.58.59-11.25.26-16.78-1.01-9.3-2.13-17.79-6.84-24.57-13.62-6.78-6.78-11.49-15.27-13.62-24.57-1.27-5.52-1.6-11.2-1.01-16.78.25-2.42-1.07-4.73-3.27-5.76-3.58-1.67-7.23-3.19-10.94-4.53-2.29-.83-4.86-.13-6.39,1.76-3.53,4.37-7.78,8.14-12.58,11.15-8.09,5.07-17.42,7.75-27,7.75s-18.92-2.68-27.01-7.75c-4.8-3.01-9.05-6.79-12.58-11.15-1.53-1.89-4.1-2.59-6.38-1.76-2.96,1.08-5.88,2.25-8.75,3.53-.04.02-.08.03-.11.05-.71.32-1.42.64-2.13.98-2.19,1.02-3.49,3.33-3.23,5.73.59,5.59.25,11.26-1.01,16.79-2.13,9.3-6.84,17.79-13.61,24.57-6.78,6.78-15.28,11.49-24.57,13.62-5.52,1.27-11.2,1.6-16.78,1.01-2.42-.25-4.73,1.07-5.76,3.27-1.67,3.58-3.19,7.23-4.53,10.94-.83,2.29-.13,4.86,1.76,6.39,4.37,3.53,8.14,7.78,11.15,12.58,5.07,8.08,7.74,17.42,7.74,27s-2.68,18.92-7.74,27.01c-3.01,4.8-6.78,9.05-11.15,12.58-1.89,1.53-2.59,4.1-1.76,6.39,1.35,3.71,2.86,7.36,4.54,10.94,1.03,2.2,3.33,3.53,5.75,3.28,8.12-.86,16.38.24,24.05,3.25.13.05.25.1.37.15,6.36,2.56,12.06,6.34,16.94,11.22,6.77,6.78,11.48,15.27,13.61,24.57,1.27,5.52,1.6,11.2,1.02,16.78-.25,2.42,1.07,4.73,3.27,5.76,3.58,1.67,7.23,3.19,10.94,4.54,2.29.83,4.86.13,6.39-1.76,3.53-4.37,7.78-8.14,12.58-11.15,8.08-5.07,17.42-7.74,27.01-7.74s18.92,2.68,27,7.74c4.8,3.01,9.05,6.79,12.59,11.15,1.53,1.89,4.1,2.59,6.39,1.76,3.71-1.35,7.36-2.86,10.94-4.54,2.2-1.03,3.53-3.34,3.27-5.76-.59-5.59-.25-11.26,1.01-16.78,2.13-9.3,6.84-17.79,13.62-24.57,6.77-6.78,15.27-11.48,24.57-13.62,5.52-1.27,11.2-1.6,16.78-1.01,2.42.26,4.73-1.07,5.76-3.27,1.67-3.58,3.19-7.23,4.54-10.94.83-2.29.13-4.86-1.76-6.39-4.37-3.53-8.14-7.78-11.15-12.58ZM753.79,765.25c-4.27,10.09-10.37,19.15-18.15,26.93-7.78,7.78-16.84,13.88-26.93,18.15-10.45,4.42-21.55,6.66-32.98,6.66s-22.53-2.24-32.98-6.66c-10.09-4.27-19.15-10.37-26.93-18.15-7.78-7.78-13.88-16.84-18.15-26.93-4.42-10.45-6.66-21.55-6.66-32.98s2.24-22.53,6.66-32.98c4.27-10.09,10.37-19.15,18.15-26.93,7.78-7.78,16.84-13.88,26.93-18.15,10.45-4.42,21.55-6.66,32.98-6.66s22.53,2.24,32.98,6.66c10.09,4.27,19.15,10.37,26.93,18.15,7.78,7.78,13.88,16.84,18.15,26.93,4.42,10.45,6.66,21.55,6.66,32.98s-2.24,22.53-6.66,32.98Z"/>
              <path class="cls-8" d="M679.46,663.23c-21.11-1.1-41.06,7.17-55.2,22.88-10.51,11.68-16.74,26.73-17.57,42.42-1.11,21.11,7.16,41.07,22.87,55.21,11.68,10.52,26.73,16.75,42.42,17.57,21.11,1.11,41.07-7.16,55.21-22.87,10.52-11.68,16.75-26.73,17.57-42.42,1.11-21.11-7.17-41.08-22.88-55.22-11.68-10.52-26.73-16.74-42.43-17.56Z"/>
            </g>
            <g>
              <path class="cls-15" d="M582.8,336.49c-63.53-14.59-134.04-7.94-134.04-7.94,0,0-70.51-6.65-134.02,7.94,0,0-34.37,4.26-19.72,23.06,0,0,15.1,28.31,52.3,37.91,0,0,27.42,9.31,101.44,9.29,74.11.42,101.44-10.44,101.44-10.44,39.91-9.6,51.21-34.25,51.21-34.25,12.01-20.47-18.61-25.57-18.61-25.57Z"/>
              <path class="cls-14" d="M582.8,329.39c-63.53-14.58-134.04-7.94-134.04-7.94,0,0-70.51-6.64-134.02,7.94,0,0-34.37,4.26-19.72,23.06,0,0,15.1,28.31,52.3,37.91,0,0,27.42,9.31,101.44,9.3,74.11.42,101.44-10.44,101.44-10.44,39.91-9.61,51.21-34.26,51.21-34.26,12.01-20.47-18.61-25.56-18.61-25.56Z"/>
              <path class="cls-19" d="M555.71,377.21s-26.21,10.41-97.26,10.02c-70.97,0-97.26-8.91-97.26-8.91-35.67-9.21-50.14-36.35-50.14-36.35-3.32-4.24-4.01-7.71-3.16-10.54-6.55,3.27-11.37,8.81-4.31,17.88,0,0,14.49,27.14,50.15,36.35,0,0,26.3,8.93,97.26,8.91,71.05.4,97.28-10.01,97.28-10.01,23.64-5.69,36.81-16.89,43.43-24.61-7.64,6.39-19.16,13.23-35.98,17.28Z"/>
              <path class="cls-17" d="M586.94,346.93c.03-.17.05-.34.05-.52,0-.23-.03-.46-.07-.7-2.08-84.48-62.55-152.24-136.88-152.24s-136.38,69.56-136.92,155.6h.87c7.47,12.23,65.55,21.74,136.1,21.74s128.62-9.51,136.08-21.74h.83c-.01-.72-.03-1.43-.05-2.15Z"/>
              <path class="cls-9" d="M572.55,342.31c0-.17-.02-.34-.04-.52-1.36-54.5-35.29-99.66-80.3-110.86,38.48,15.89,66.22,57.46,67.43,106.64.03.18.04.35.04.52,0,.13-.01.26-.03.39.02.53.03,1.07.03,1.6h-.6c-5.57,9.11-48.88,16.2-101.5,16.2-33.94,0-64.01-2.95-82.57-7.49,14.64,6.85,51.85,11.72,95.44,11.72,52.6,0,95.92-7.1,101.47-16.21h.62c0-.53-.03-1.07-.03-1.6,0-.13.03-.26.03-.39Z"/>
              <path class="cls-16" d="M488.07,218.76c17.2,0,33.65,3.63,48.8,10.25-23.63-22.2-53.85-35.53-86.82-35.53-75.3,0-136.38,69.56-136.92,155.6h.87c3.37,5.52,17.06,10.49,37.56,14.27,5.42-80.88,64.46-144.59,136.51-144.59Z"/>
              <path class="cls-15" d="M450.05,175.03v-.12c-.43.02-.85.04-1.27.06-.42-.02-.85-.05-1.28-.06v.12c-65.21,3.57-58,34.58-58,34.58,12.46,40.48,12.38,159.65,12.38,159.65,22.58,2.21,41.84,3.97,46.91,3.59,5.07.38,24.32-.49,46.9-2.69,0,0-.06-120.07,12.38-160.55,0,0,7.21-31.01-58.01-34.58Z"/>
              <path class="cls-17" d="M449.94,175.03v-.12c-.4.02-.78.04-1.17.06-.4-.02-.77-.05-1.17-.06v.12c-59.23,3.57-52.69,34.58-52.69,34.58,11.34,40.48,11.26,159.65,11.26,159.65,20.51,2.2,38,3.96,42.6,3.58,4.6.37,22.08-.49,42.6-2.69,0,0-.08-120.06,11.25-160.54,0,0,6.54-31.01-52.68-34.58Z"/>
              <path class="cls-16" d="M422.98,229.1s-6.55-31.01,52.69-34.58v-.12c.4.02.78.04,1.17.06.39-.02.77-.05,1.16-.06v.12c9.1.55,16.64,1.74,22.88,3.38-4.03-9.2-16.13-20.77-50.94-22.87v-.12c-.4.02-.78.04-1.17.06-.4-.02-.77-.05-1.17-.06v.12c-59.23,3.57-52.69,34.58-52.69,34.58,11.34,40.48,11.26,159.65,11.26,159.65,10.55,1.13,20.31,2.15,27.93,2.82-.45-34.24-2.42-111.86-11.12-142.97Z"/>
              <g class="cls-12">
                <path class="cls-10" d="M473.47,370.36c-3.57-61.52,9.59-138.21,9.73-138.97l.02-.12c3.58-17.14-.31-21.93-1.06-22.69l-.48-.14.11-.13c-8.91-7.48-27.26-6.63-33.02-3.88h0c2.55-1.22,24.7-11.02,37.57-2.47,2.34,1.34,9.68,7.52,4.86,30.74-.41,2.47-13.09,77.29-9.63,137.24l-8.1.42Z"/>
              </g>
            </g>
          </g>
        </g>
      </g>
    </g>
  </g>
</svg>