<?xml version="1.0" encoding="UTF-8"?>
<svg xmlns="http://www.w3.org/2000/svg" xmlns:xlink="http://www.w3.org/1999/xlink" viewBox="0 0 1044 1044">
  <defs>
    <style>
      .cls-1 {
        fill: #f8ba8c;
      }

      .cls-1, .cls-2, .cls-3, .cls-4, .cls-5, .cls-6, .cls-7, .cls-8, .cls-9, .cls-10, .cls-11, .cls-12, .cls-13, .cls-14, .cls-15, .cls-16 {
        stroke: #000;
      }

      .cls-1, .cls-2, .cls-3, .cls-10, .cls-16 {
        stroke-width: 2.02px;
      }

      .cls-1, .cls-2, .cls-10, .cls-11, .cls-15 {
        stroke-miterlimit: 10;
      }

      .cls-17 {
        fill: #3c9ed1;
      }

      .cls-18 {
        fill: #835033;
      }

      .cls-2, .cls-19 {
        fill: #ececec;
      }

      .cls-3 {
        fill: #cdcdcd;
      }

      .cls-3, .cls-4, .cls-5, .cls-6, .cls-7, .cls-8, .cls-9, .cls-12, .cls-13, .cls-14, .cls-16 {
        stroke-linecap: round;
        stroke-linejoin: round;
      }

      .cls-20 {
        fill: #2c88ae;
      }

      .cls-21 {
        fill: #6a7a7e;
      }

      .cls-22 {
        fill: #505b6b;
      }

      .cls-4 {
        fill: #7e4e24;
      }

      .cls-4, .cls-6, .cls-8 {
        stroke-width: 2.52px;
      }

      .cls-5 {
        fill: #fd0;
      }

      .cls-5, .cls-7, .cls-9, .cls-12, .cls-13, .cls-14 {
        stroke-width: 2.06px;
      }

      .cls-23 {
        fill: #462340;
      }

      .cls-24, .cls-25 {
        fill: #5eb4d6;
      }

      .cls-26 {
        fill: #b35517;
      }

      .cls-27 {
        fill: #4f2646;
      }

      .cls-28 {
        fill: #d9d9d9;
      }

      .cls-29, .cls-30, .cls-31 {
        opacity: .2;
      }

      .cls-29, .cls-31, .cls-32 {
        mix-blend-mode: multiply;
      }

      .cls-29, .cls-33 {
        fill: #e07222;
      }

      .cls-6 {
        fill: #c6c6c5;
      }

      .cls-34 {
        fill: #9b5f3f;
      }

      .cls-30, .cls-8, .cls-35, .cls-36 {
        fill: #fff;
      }

      .cls-7 {
        fill: none;
      }

      .cls-25 {
        opacity: .1;
      }

      .cls-37 {
        isolation: isolate;
      }

      .cls-38 {
        fill: #36404e;
      }

      .cls-39, .cls-40 {
        fill: #411b37;
      }

      .cls-41 {
        fill: #9a5f2f;
      }

      .cls-42 {
        fill: #cb3535;
      }

      .cls-43 {
        fill: #ba2927;
      }

      .cls-9 {
        fill: #e95a0c;
      }

      .cls-10 {
        fill: #683b11;
      }

      .cls-40, .cls-44 {
        opacity: .4;
      }

      .cls-11 {
        fill: #0d2450;
        stroke-width: 2px;
      }

      .cls-45, .cls-44 {
        fill: #80979d;
      }

      .cls-46 {
        fill: #f9dbb0;
        opacity: .3;
      }

      .cls-47 {
        fill: #eeac3a;
      }

      .cls-12 {
        fill: #259caa;
      }

      .cls-13 {
        fill: #93c01f;
      }

      .cls-14, .cls-15 {
        fill: #223e77;
      }

      .cls-31 {
        fill: #245f72;
      }

      .cls-36 {
        filter: url(#drop-shadow-1);
      }

      .cls-48 {
        fill: #647183;
      }

      .cls-16 {
        fill: #808285;
      }

      .cls-49 {
        fill: #613157;
      }

      .cls-50 {
        fill: #b4ce66;
      }

      .cls-32 {
        fill: #b1b1b1;
      }

      .cls-51 {
        fill: #90a8ae;
      }
    </style>
    <filter id="drop-shadow-1" x="0" y="0" width="1044" height="1044" filterUnits="userSpaceOnUse">
      <feOffset dx="5" dy="5"/>
      <feGaussianBlur result="blur" stdDeviation="8"/>
      <feFlood flood-color="#000" flood-opacity=".75"/>
      <feComposite in2="blur" operator="in"/>
      <feComposite in="SourceGraphic"/>
    </filter>
  </defs>
  <g class="cls-37">
    <g id="Layer_2" data-name="Layer 2">
      <g id="Layer_1-2" data-name="Layer 1">
        <g>
          <circle class="cls-36" cx="517" cy="517" r="498"/>
          <g>
            <rect class="cls-6" x="445.74" y="284.7" width="32.76" height="459.78"/>
            <rect class="cls-19" x="459.26" y="291.82" width="13.29" height="445.54"/>
            <rect class="cls-8" x="210.98" y="327.66" width="502.26" height="303.83"/>
            <rect class="cls-4" x="202.91" y="306.3" width="518.41" height="32.76"/>
            <rect class="cls-41" x="210.03" y="314.37" width="504.16" height="13.29"/>
            <rect class="cls-4" x="202.91" y="623.42" width="518.41" height="32.76"/>
            <rect class="cls-41" x="210.03" y="631.49" width="504.16" height="13.29"/>
            <path class="cls-6" d="M410.99,805.25v-32.61c0-10.77,9.27-19.49,20.72-19.49h65.58c11.44,0,20.71,8.73,20.71,19.49v32.61h21.32v-43.05c0-16-12.97-28.96-28.97-28.96h-91.72c-16,0-28.97,12.97-28.97,28.96v43.05h21.32Z"/>
            <path class="cls-19" d="M403.28,796.22v-13.14c0-30.07,13.19-34.66,25.55-34.66h70.86c12.37,0,26.55,6.02,26.55,34.66v13.14h4.72v-28.32c0-16-11.56-28.97-25.82-28.97h-81.76c-14.26,0-25.82,12.97-25.82,28.97v28.32h5.72Z"/>
            <g>
              <path class="cls-9" d="M675.04,477.92c0,28.06-9.35,53.94-25.09,74.69-42.85-38.11-78.86-74.69-78.86-74.69,0,0,41.81-26.13,90.44-56.27,8.64,16.88,13.51,36,13.51,56.27Z"/>
              <path class="cls-14" d="M547.87,477.92s47.62,44.13,88.47,82.08c-22.66,25.52-55.72,41.61-92.53,41.61-68.31,0-123.69-55.38-123.69-123.69s55.38-123.69,123.69-123.69c44.97,0,84.32,23.99,105.98,59.87-47.91,29.56-101.91,63.82-101.91,63.82Z"/>
            </g>
            <rect class="cls-12" x="257.04" y="385.34" width="18.51" height="18.51"/>
            <rect class="cls-9" x="257.04" y="419.52" width="18.51" height="18.51"/>
            <rect class="cls-5" x="257.04" y="495.9" width="18.51" height="77.26"/>
            <rect class="cls-13" x="282.85" y="519.4" width="18.51" height="53.76"/>
            <rect class="cls-9" x="308.67" y="539.34" width="18.51" height="33.82"/>
            <rect class="cls-28" x="284.1" y="385.7" width="69.78" height="7.83"/>
            <rect class="cls-28" x="284.1" y="397.09" width="69.78" height="7.83"/>
            <rect class="cls-28" x="284.1" y="417.39" width="69.78" height="7.83"/>
            <rect class="cls-28" x="284.1" y="428.78" width="69.78" height="7.83"/>
            <rect class="cls-28" x="247.43" y="582.59" width="32.76" height="7.83"/>
            <rect class="cls-28" x="247.43" y="593.99" width="32.76" height="7.83"/>
            <rect class="cls-28" x="301.9" y="582.59" width="32.76" height="7.83"/>
            <rect class="cls-28" x="301.9" y="593.99" width="32.76" height="7.83"/>
            <line class="cls-7" x1="247.43" y1="574.41" x2="335.73" y2="574.41"/>
          </g>
          <rect class="cls-1" x="685.23" y="594.33" width="82.23" height="52.54"/>
          <polygon class="cls-3" points="664.19 648.01 726.25 805.25 801.82 653.15 773.84 641.16 727.87 643.73 683.61 641.73 664.19 648.01"/>
          <polygon class="cls-16" points="717.87 687.99 707.22 764.13 726.25 805.25 746.81 763.75 735.77 687.99 748.33 668.57 727.87 643.73 703.41 668.57 717.87 687.99"/>
          <polygon class="cls-2" points="685.8 636.02 726.44 643.45 703.41 679.23 672.76 643.45 685.8 636.02"/>
          <polygon class="cls-2" points="769.36 636.02 728.72 643.45 747.57 681.89 782.41 643.45 769.36 636.02"/>
          <path class="cls-15" d="M872.82,700.55c-1.9-17.51-12.56-39.97-30.83-43.02-18.27-3.06-59.58-14.09-59.58-14.09l-56.16,161.8h164.85s-16.37-87.18-18.28-104.7Z"/>
          <polygon class="cls-11" points="788.11 694.84 821.24 666.86 782.41 643.45 726.25 805.25 796.11 710.83 788.11 694.84"/>
          <path class="cls-15" d="M581.2,700.55c1.91-17.51,10.47-37.69,30.84-43.02,17.92-4.69,59.58-14.09,59.58-14.09l56.15,161.8h-164.85s16.37-87.18,18.27-104.7Z"/>
          <polygon class="cls-11" points="664.58 694.84 631.46 666.86 671.62 644.3 727.3 803.63 656.58 710.83 664.58 694.84"/>
          <path class="cls-1" d="M824.66,487.54c-3.55,0-7.67,2.24-11.11,5.75.53-11.3.83-22.75.83-33.73,0-110.22-173.61-111.91-173.61,0,0,10.42.35,21.68.95,32.99-3.28-3.07-7.05-5.01-10.34-5.01-7.73,0-14.85,11.42-11.42,23.42,3.3,11.52,11.99,37.12,26.27,34.26.08-.02.15-.07.23-.09,3.45,14.37,9.84,27.43,15.44,36.07,13.7,21.13,46.16,42.26,64.44,42.26s52.63-25.13,64.63-42.83c6.92-10.23,14.84-21.7,18.31-35.62.18.06.34.17.53.21,14.28,2.86,22.98-22.74,26.27-34.26,3.42-11.99-3.7-23.42-11.42-23.42Z"/>
          <path class="cls-10" d="M805.25,517.81c8.57-10.28,19.99-34.84,19.99-58.25,0-59.52-30.84-101.08-101.08-100.51-76.57.62-91.94,39.41-91.94,95.37,0,9.93,6.85,49.11,13.13,64.53,0,0,4.92-26.19,7.43-45.68,2.09-16.18-.41-32.25,4-34.84,90.8,31.41,134.2,0,134.2,0,0,0-5.71,20.56,1.71,36.55,8.14,17.53,13.13,24.56,12.56,42.83Z"/>
          <path class="cls-32" d="M805.5,506.92c3.99-18.24-4.22-36.44-4.95-54.83-.35-8.97,3.67-37.84-7.36-42.68-3.86-1.69-23.92,7.1-29.13,8.74-18.14,5.71-37.43,9.01-56.45,9.74-10.06.38-47.08,5.9-50.63,10.61,90.66,31.29,134-.07,134-.07,0,0-5.71,20.56,1.71,36.55,6.77,14.58,11.35,21.92,12.37,34.49.14-.85.24-1.69.44-2.56Z"/>
          <g>
            <g>
              <g>
                <path class="cls-18" d="M147.61,272.07h93.42c2.6,0,4.71,2.11,4.71,4.71v125.53c0,2.6-2.11,4.71-4.71,4.71h-93.42c-2.6,0-4.71-2.11-4.71-4.71v-125.53c0-2.6,2.11-4.71,4.71-4.71Z"/>
                <path class="cls-34" d="M147.61,272.07h93.42c2.6,0,4.71,2.11,4.71,4.71v125.53c0,2.6-2.11,4.71-4.71,4.71h-93.42c-2.6,0-4.71-2.11-4.71-4.71v-125.53c0-2.6,2.11-4.71,4.71-4.71Z"/>
                <path class="cls-18" d="M149.96,275.54h88.72c2.47,0,4.47,2.01,4.47,4.47v119.07c0,2.47-2.01,4.48-4.48,4.48h-88.72c-2.47,0-4.48-2.01-4.48-4.48v-119.07c0-2.47,2.01-4.48,4.48-4.48Z"/>
                <rect class="cls-35" x="151.16" y="279.83" width="87.93" height="118.5"/>
                <path class="cls-25" d="M239.09,352.95c-31.84-10.09-72.1-42.18-87.93-55.5v100.88h87.93v-45.38Z"/>
                <g>
                  <path class="cls-51" d="M218.33,282.49v-7.93c0-1.73-1.41-3.14-3.13-3.14h-5.71c-1.73,0-3.82-1.25-4.65-2.76,0,0-4.32-7.89-10.51-7.9-6.19,0-10.52,7.88-10.52,7.88-.83,1.52-2.93,2.75-4.66,2.75h-5.71c-1.73,0-3.14,1.41-3.14,3.14v7.93s48.03.05,48.03.03ZM194.32,265.49c2.16,0,3.91,1.75,3.91,3.91,0,2.16-1.76,3.91-3.92,3.91-2.16,0-3.91-1.76-3.91-3.92,0-2.16,1.76-3.91,3.92-3.91Z"/>
                  <path class="cls-44" d="M218.33,282.49v-7.93c0-1.73-1.41-3.14-3.13-3.14h-4.58c-8.15,8.85-33.9,7.73-40.32,7.31v3.73s48.03.05,48.03.03Z"/>
                  <path class="cls-45" d="M218.33,282.49v-7.93c0-.53-.13-1.03-.36-1.47-12.93,8.27-39.52,7.76-47.68,7.38v1.98s48.03.05,48.03.03Z"/>
                  <path class="cls-30" d="M187.47,275.63c.87-.1,2.01-2.62,3.21-4.79-.18-.45-.28-.93-.27-1.44,0-1.97,1.46-3.59,3.35-3.86.64-1.72,1.15-3.65,1.41-4.73-.27-.03-.55-.05-.84-.05-6.19,0-10.52,7.88-10.52,7.88-.83,1.52-2.93,2.75-4.66,2.75h-5.71c-1.73,0-3.14,1.41-3.14,3.14v3.43c6.56.05,16.34-2.23,17.17-2.32Z"/>
                </g>
              </g>
              <rect class="cls-21" x="170.37" y="292.95" width="50.98" height="2.4"/>
              <g>
                <rect class="cls-21" x="158.74" y="301.54" width="72.87" height="2.4"/>
                <rect class="cls-21" x="158.74" y="308.75" width="72.87" height="2.4"/>
                <rect class="cls-21" x="158.74" y="315.97" width="72.87" height="2.4"/>
                <rect class="cls-21" x="158.74" y="323.19" width="72.87" height="2.4"/>
                <rect class="cls-21" x="158.74" y="330.41" width="72.87" height="2.4"/>
              </g>
              <g>
                <rect class="cls-21" x="158.74" y="345.32" width="72.87" height="2.4"/>
                <rect class="cls-21" x="158.74" y="352.53" width="72.87" height="2.4"/>
                <rect class="cls-21" x="158.74" y="359.75" width="72.87" height="2.4"/>
                <rect class="cls-21" x="158.74" y="366.97" width="72.87" height="2.4"/>
                <rect class="cls-21" x="158.74" y="374.19" width="72.87" height="2.4"/>
              </g>
            </g>
            <g>
              <path class="cls-27" d="M284.65,400.37c1.01,1.15,3.38.72,5.3-.96,1.92-1.68,2.65-3.98,1.64-5.13l-36.04-39.64-5.49,4.81,34.59,40.92Z"/>
              <path class="cls-39" d="M265.87,365.99l-10.32-11.35-5.49,4.81,8.35,9.87c2.6-.65,5.29-1.69,7.46-3.33Z"/>
              <g>
                <path class="cls-49" d="M257.82,328.58c8.2,9.36,7.27,23.6-2.09,31.8-9.36,8.21-23.6,7.27-31.8-2.09-8.21-9.36-7.27-23.6,2.09-31.8,9.36-8.21,23.6-7.27,31.8,2.09Z"/>
                <path class="cls-40" d="M263.21,340.43c-14.5,12.97-34.43,8.9-44.73,5.47.49,4.44,2.28,8.78,5.45,12.39,8.2,9.36,22.44,10.29,31.8,2.09,5.89-5.16,8.44-12.72,7.47-19.95Z"/>
                <path class="cls-23" d="M255.46,330.65c7.06,8.05,6.26,20.31-1.8,27.37-8.05,7.06-20.31,6.26-27.37-1.79-7.06-8.05-6.26-20.31,1.8-27.37,8.05-7.06,20.3-6.26,27.37,1.8Z"/>
                <path class="cls-17" d="M254.49,331.5c6.59,7.52,5.84,18.95-1.68,25.55-7.52,6.59-18.95,5.84-25.54-1.68-6.59-7.52-5.84-18.95,1.67-25.55,7.52-6.59,18.96-5.84,25.55,1.68Z"/>
                <path class="cls-24" d="M253.51,332.35c6.12,6.98,5.42,17.6-1.56,23.72-6.98,6.12-17.6,5.42-23.72-1.56-6.12-6.98-5.42-17.6,1.56-23.72,6.98-6.12,17.6-5.42,23.72,1.56Z"/>
                <path class="cls-24" d="M253.51,332.35c6.12,6.98,5.42,17.6-1.56,23.72-6.98,6.12-17.6,5.42-23.72-1.56-6.12-6.98-5.42-17.6,1.56-23.72,6.98-6.12,17.6-5.42,23.72,1.56Z"/>
                <path class="cls-35" d="M231.01,332.18c-3.98,3.5-5.67,8.64-4.92,13.52.44-3.51,2.11-6.88,4.98-9.39,6.21-5.45,15.67-4.83,21.11,1.38,1.95,2.23,3.12,4.87,3.54,7.6.51-4.09-.66-8.38-3.59-11.72-5.45-6.21-14.9-6.83-21.11-1.39Z"/>
                <path class="cls-31" d="M223.01,346.34c.53,3.24,1.93,6.38,4.26,9.03,6.59,7.52,18.02,8.27,25.54,1.68,4.34-3.81,6.42-9.23,6.14-14.57-10.09,9.32-25.68,6.95-35.94,3.87Z"/>
              </g>
            </g>
          </g>
          <g>
            <g>
              <path class="cls-22" d="M242.52,727.2v12.63c0,3.44,2.81,6.25,6.25,6.25h93.69c3.44,0,6.25-2.81,6.25-6.25v-12.63h-106.19Z"/>
              <path class="cls-48" d="M248.77,608.93h93.69c3.45,0,6.25,2.8,6.25,6.25v114.26c0,3.45-2.8,6.25-6.25,6.25h-93.69c-3.45,0-6.25-2.8-6.25-6.25v-114.26c0-3.45,2.8-6.25,6.25-6.25Z"/>
              <polygon class="cls-38" points="348.68 626.02 242.42 626.02 235.35 596.41 355.75 596.41 348.68 626.02"/>
              <polygon class="cls-50" points="341.22 615.32 249.88 615.32 246.87 604.39 344.24 604.39 341.22 615.32"/>
              <rect class="cls-48" x="235.35" y="591.94" width="120.4" height="4.47"/>
              <polygon class="cls-48" points="249.52 613.89 249.88 615.32 341.22 615.32 341.59 613.89 249.52 613.89"/>
              <g>
                <g>
                  <g>
                    <path class="cls-17" d="M255.76,632.81h8.08c3.45,0,6.25,2.8,6.25,6.25v8.08c0,3.45-2.8,6.25-6.25,6.25h-8.08c-3.45,0-6.25-2.8-6.25-6.25v-8.08c0-3.45,2.8-6.25,6.25-6.25Z"/>
                    <path class="cls-20" d="M250.1,649.76c1,2.14,3.16,3.63,5.66,3.63h8.08c2.5,0,4.67-1.49,5.66-3.63h-19.4Z"/>
                  </g>
                  <g>
                    <path class="cls-17" d="M281.67,632.81h8.08c3.45,0,6.25,2.8,6.25,6.25v8.08c0,3.45-2.8,6.25-6.25,6.25h-8.08c-3.45,0-6.25-2.8-6.25-6.25v-8.08c0-3.45,2.8-6.25,6.25-6.25Z"/>
                    <path class="cls-20" d="M276.01,649.76c1,2.14,3.16,3.63,5.66,3.63h8.08c2.5,0,4.67-1.49,5.66-3.63h-19.4Z"/>
                  </g>
                  <g>
                    <path class="cls-17" d="M307.57,632.81h8.08c3.45,0,6.25,2.8,6.25,6.25v8.08c0,3.45-2.8,6.25-6.25,6.25h-8.08c-3.45,0-6.25-2.8-6.25-6.25v-8.08c0-3.45,2.8-6.25,6.25-6.25Z"/>
                    <path class="cls-20" d="M301.91,649.76c1,2.14,3.16,3.63,5.66,3.63h8.08c2.5,0,4.67-1.49,5.66-3.63h-19.4Z"/>
                  </g>
                </g>
                <g>
                  <g>
                    <path class="cls-17" d="M255.76,657.75h8.08c3.45,0,6.25,2.8,6.25,6.25v8.08c0,3.45-2.8,6.25-6.25,6.25h-8.08c-3.45,0-6.25-2.8-6.25-6.25v-8.08c0-3.45,2.8-6.25,6.25-6.25Z"/>
                    <path class="cls-20" d="M250.1,674.7c1,2.13,3.16,3.63,5.66,3.63h8.08c2.5,0,4.67-1.49,5.66-3.63h-19.4Z"/>
                  </g>
                  <g>
                    <path class="cls-17" d="M281.67,657.75h8.08c3.45,0,6.25,2.8,6.25,6.25v8.08c0,3.45-2.8,6.25-6.25,6.25h-8.08c-3.45,0-6.25-2.8-6.25-6.25v-8.08c0-3.45,2.8-6.25,6.25-6.25Z"/>
                    <path class="cls-20" d="M276.01,674.7c1,2.13,3.16,3.63,5.66,3.63h8.08c2.5,0,4.67-1.49,5.66-3.63h-19.4Z"/>
                  </g>
                  <g>
                    <path class="cls-17" d="M307.57,657.75h8.08c3.45,0,6.25,2.8,6.25,6.25v8.08c0,3.45-2.8,6.25-6.25,6.25h-8.08c-3.45,0-6.25-2.8-6.25-6.25v-8.08c0-3.45,2.8-6.25,6.25-6.25Z"/>
                    <path class="cls-20" d="M301.91,674.7c1,2.13,3.16,3.63,5.66,3.63h8.08c2.5,0,4.67-1.49,5.66-3.63h-19.4Z"/>
                  </g>
                </g>
                <g>
                  <g>
                    <path class="cls-17" d="M255.77,682.69h8.08c3.45,0,6.25,2.8,6.25,6.25v8.08c0,3.45-2.8,6.25-6.25,6.25h-8.08c-3.45,0-6.25-2.8-6.25-6.25v-8.08c0-3.45,2.8-6.25,6.25-6.25Z"/>
                    <path class="cls-20" d="M250.1,699.64c1,2.14,3.16,3.63,5.66,3.63h8.08c2.5,0,4.67-1.49,5.66-3.63h-19.4Z"/>
                  </g>
                  <g>
                    <path class="cls-17" d="M281.67,682.69h8.08c3.45,0,6.25,2.8,6.25,6.25v8.08c0,3.45-2.8,6.25-6.25,6.25h-8.08c-3.45,0-6.25-2.8-6.25-6.25v-8.08c0-3.45,2.8-6.25,6.25-6.25Z"/>
                    <path class="cls-20" d="M276.01,699.64c1,2.14,3.16,3.63,5.66,3.63h8.08c2.5,0,4.67-1.49,5.66-3.63h-19.4Z"/>
                  </g>
                  <g>
                    <path class="cls-17" d="M307.57,682.69h8.08c3.45,0,6.25,2.8,6.25,6.25v8.08c0,3.45-2.8,6.25-6.25,6.25h-8.08c-3.45,0-6.25-2.8-6.25-6.25v-8.08c0-3.45,2.8-6.25,6.25-6.25Z"/>
                    <path class="cls-20" d="M301.91,699.64c1,2.14,3.16,3.63,5.66,3.63h8.08c2.5,0,4.67-1.49,5.66-3.63h-19.4Z"/>
                  </g>
                </g>
                <g>
                  <g>
                    <rect class="cls-17" x="249.52" y="707.63" width="20.58" height="20.58" rx="6.25" ry="6.25"/>
                    <path class="cls-20" d="M250.1,724.58c1,2.13,3.16,3.63,5.66,3.63h8.08c2.5,0,4.67-1.49,5.66-3.63h-19.4Z"/>
                  </g>
                  <g>
                    <path class="cls-17" d="M281.67,707.63h8.08c3.45,0,6.25,2.8,6.25,6.25v8.08c0,3.45-2.8,6.25-6.25,6.25h-8.08c-3.45,0-6.25-2.8-6.25-6.25v-8.08c0-3.45,2.8-6.25,6.25-6.25Z"/>
                    <path class="cls-20" d="M276.01,724.58c1,2.13,3.16,3.63,5.66,3.63h8.08c2.5,0,4.67-1.49,5.66-3.63h-19.4Z"/>
                  </g>
                  <g>
                    <path class="cls-17" d="M307.57,707.63h8.08c3.45,0,6.25,2.8,6.25,6.25v8.08c0,3.45-2.8,6.25-6.25,6.25h-8.08c-3.45,0-6.25-2.8-6.25-6.25v-8.08c0-3.45,2.8-6.25,6.25-6.25Z"/>
                    <path class="cls-20" d="M301.91,724.58c1,2.13,3.16,3.63,5.66,3.63h8.08c2.5,0,4.67-1.49,5.66-3.63h-19.4Z"/>
                  </g>
                </g>
              </g>
              <g>
                <path class="cls-42" d="M332.95,640.53h5.04c3.45,0,6.25,2.8,6.25,6.25v66.86c0,3.45-2.8,6.25-6.25,6.25h-5.03c-3.45,0-6.25-2.8-6.25-6.25v-66.86c0-3.45,2.8-6.25,6.25-6.25Z"/>
                <path class="cls-43" d="M326.7,713.56v.09c0,3.44,2.81,6.25,6.25,6.25h5.03c3.44,0,6.25-2.81,6.25-6.25v-.09h-17.53Z"/>
              </g>
            </g>
            <g>
              <g>
                <path class="cls-33" d="M396.8,726.81c0,22.67-18.38,41.05-41.05,41.05s-41.05-18.38-41.05-41.05,18.38-41.05,41.05-41.05,41.05,18.38,41.05,41.05Z"/>
                <path class="cls-47" d="M394.85,726.81c0,21.59-17.51,39.1-39.1,39.1s-39.1-17.51-39.1-39.1,17.5-39.1,39.1-39.1,39.1,17.51,39.1,39.1Z"/>
                <path class="cls-33" d="M387.06,726.81c0,17.29-14.02,31.31-31.31,31.31s-31.32-14.02-31.32-31.31,14.02-31.31,31.32-31.31,31.31,14.02,31.31,31.31Z"/>
                <path class="cls-47" d="M382.7,726.81c0,14.89-12.07,26.95-26.95,26.95s-26.95-12.07-26.95-26.95,12.07-26.95,26.95-26.95,26.95,12.07,26.95,26.95Z"/>
                <path class="cls-29" d="M396.8,726.81c0-7.42-1.98-14.38-5.43-20.39-17.32,21.62-53.28,27.89-75.6,29.66,4.2,18.2,20.5,31.77,39.98,31.77,22.67,0,41.05-18.38,41.05-41.05Z"/>
                <path class="cls-46" d="M380.87,694.37c-6.94-5.38-15.65-8.6-25.12-8.6-22.67,0-41.05,18.38-41.05,41.05,0,.72.02,1.44.06,2.15,20.03-2.49,55.61-10.3,66.11-34.6Z"/>
                <path class="cls-35" d="M344.66,736.3l3.51-3.47c1.02,1.31,2.02,2.3,2.99,2.96.98.66,2.01,1.04,3.08,1.14v-9.27c-3.24-.69-5.63-1.76-7.16-3.22-1.53-1.45-2.3-3.37-2.3-5.74s.84-4.48,2.52-5.98c1.68-1.5,3.99-2.33,6.94-2.49v-2.94h2.69v2.94c1.79.17,3.42.63,4.88,1.37,1.46.75,2.83,1.82,4.1,3.22l-3.43,3.6c-.82-1.14-1.67-2.01-2.57-2.59-.9-.59-1.89-.92-2.97-1.01v8.42c3.57.89,6.12,2.08,7.64,3.58,1.53,1.5,2.29,3.52,2.29,6.07s-.89,4.73-2.68,6.32c-1.79,1.59-4.2,2.42-7.25,2.49v4.3h-2.69v-4.3c-2.03-.2-3.84-.74-5.42-1.64-1.58-.9-2.97-2.16-4.17-3.78ZM354.24,722.35v-7.73c-1.51.07-2.66.42-3.45,1.06-.79.63-1.19,1.52-1.19,2.67s.36,1.96,1.08,2.58c.72.62,1.9,1.09,3.55,1.42ZM356.93,737.08c1.57,0,2.75-.33,3.56-.98.8-.65,1.21-1.62,1.21-2.91s-.37-2.31-1.11-3.03c-.74-.72-1.96-1.26-3.65-1.63v8.55Z"/>
              </g>
              <path class="cls-26" d="M353.71,763.91s-.05,0-.07,0c-.22-.01-.44-.03-.66-.04-.71-.05-1.25-.67-1.2-1.39.05-.71.68-1.25,1.39-1.2.21.01.41.03.62.04.72.04,1.26.65,1.22,1.37-.04.69-.61,1.22-1.3,1.22ZM361.38,763.53c-.63,0-1.18-.45-1.28-1.09-.11-.71.37-1.37,1.08-1.48.2-.03.41-.07.61-.1.71-.12,1.38.35,1.5,1.05.13.71-.34,1.38-1.05,1.5-.22.04-.44.07-.65.11-.07.01-.14.02-.2.02ZM345.51,762.48c-.12,0-.25-.02-.37-.06-.21-.06-.42-.13-.63-.19-.68-.22-1.06-.95-.84-1.63.21-.68.94-1.06,1.63-.85.2.06.4.12.59.18.69.2,1.08.93.88,1.61-.17.57-.68.93-1.24.93ZM369.39,761.28c-.51,0-.99-.3-1.2-.8-.27-.66.04-1.42.71-1.69.19-.08.38-.16.57-.24.66-.28,1.42.02,1.71.68.28.66-.02,1.42-.67,1.71-.2.09-.41.17-.61.26-.16.07-.33.1-.49.1ZM337.87,759.19c-.22,0-.44-.06-.65-.17-.19-.11-.39-.22-.57-.34-.62-.37-.81-1.17-.45-1.78.37-.61,1.17-.82,1.78-.45.18.11.36.21.54.31.62.36.83,1.15.47,1.77-.24.42-.68.65-1.12.65ZM376.66,757.24c-.4,0-.8-.19-1.05-.54-.42-.58-.29-1.39.29-1.81.17-.12.33-.24.5-.37.58-.43,1.39-.31,1.82.26.43.57.31,1.39-.26,1.82-.18.13-.36.26-.54.39-.23.17-.49.24-.76.24ZM331.19,754.23c-.32,0-.64-.12-.89-.35-.16-.15-.32-.3-.48-.46-.51-.5-.52-1.32-.02-1.84.5-.51,1.32-.52,1.84-.02.15.14.3.29.45.43.52.49.55,1.31.06,1.83-.26.27-.6.41-.95.41ZM382.81,751.64c-.3,0-.6-.1-.85-.32-.54-.47-.6-1.29-.13-1.83.14-.15.27-.31.4-.47.46-.55,1.28-.62,1.83-.16.55.46.62,1.28.16,1.83-.14.17-.29.34-.43.5-.26.3-.62.45-.98.45ZM325.83,747.87c-.42,0-.83-.2-1.08-.58-.12-.18-.24-.37-.36-.55-.39-.61-.21-1.41.4-1.79.6-.39,1.41-.21,1.79.4.11.17.22.35.33.52.4.6.23,1.4-.37,1.8-.22.15-.47.21-.71.21ZM387.51,744.77c-.2,0-.41-.05-.6-.15-.63-.33-.88-1.12-.54-1.75.1-.18.19-.36.28-.55.32-.64,1.1-.9,1.74-.58.64.32.9,1.1.58,1.74-.1.2-.2.4-.31.59-.23.44-.68.7-1.15.7ZM322.07,740.44c-.53,0-1.03-.33-1.22-.85-.08-.21-.15-.42-.22-.63-.23-.68.13-1.42.8-1.65.68-.23,1.41.13,1.65.8.07.19.14.39.21.58.25.67-.1,1.42-.77,1.67-.15.05-.3.08-.45.08ZM390.5,737c-.11,0-.22-.01-.32-.04-.69-.18-1.11-.88-.94-1.58.05-.2.1-.4.15-.6.16-.7.86-1.13,1.56-.97.7.16,1.13.86.97,1.56-.05.22-.11.43-.16.65-.15.59-.68.98-1.26.98ZM320.14,732.35c-.65,0-1.21-.49-1.29-1.14-.02-.22-.05-.44-.07-.66-.07-.71.45-1.35,1.16-1.42.71-.07,1.35.45,1.42,1.16.02.21.04.41.07.61.08.71-.43,1.36-1.14,1.44-.05,0-.1,0-.15,0ZM391.6,728.75h-.02c-.72-.01-1.29-.61-1.28-1.32,0-.21,0-.41,0-.62v-.14c0-.72.58-1.3,1.29-1.3h0c.72,0,1.3.58,1.3,1.29v.15c0,.22,0,.44,0,.66-.01.71-.59,1.27-1.3,1.27ZM320.13,724.03s-.1,0-.15,0c-.71-.08-1.23-.72-1.14-1.43.02-.22.05-.44.08-.66.09-.71.74-1.21,1.46-1.12.71.09,1.21.74,1.12,1.46-.03.21-.05.41-.08.61-.07.66-.63,1.15-1.29,1.15ZM390.76,720.33c-.59,0-1.13-.41-1.27-1.02-.04-.2-.09-.4-.14-.6-.17-.7.26-1.4.96-1.56.7-.17,1.4.26,1.56.96.05.22.1.43.15.65.16.7-.28,1.39-.99,1.55-.09.02-.19.03-.28.03ZM322.02,715.92c-.15,0-.3-.02-.44-.08-.67-.24-1.02-.99-.78-1.66.07-.21.15-.42.23-.63.26-.67,1.01-1,1.67-.75.67.26,1.01,1,.75,1.67-.07.19-.15.39-.22.58-.19.53-.69.86-1.22.86ZM388.03,712.47c-.48,0-.94-.27-1.17-.73-.09-.18-.18-.37-.28-.55-.32-.64-.07-1.42.57-1.74.64-.32,1.42-.07,1.74.57.1.2.2.39.29.59.31.64.05,1.42-.6,1.73-.18.09-.38.13-.57.13ZM325.74,708.48c-.24,0-.49-.07-.71-.21-.6-.39-.77-1.2-.37-1.8.12-.19.25-.37.37-.55.4-.59,1.21-.74,1.8-.34.59.4.74,1.21.34,1.8-.11.17-.23.34-.34.51-.25.38-.66.59-1.09.59ZM383.55,705.46c-.37,0-.75-.16-1.01-.48-.13-.16-.26-.32-.39-.47-.46-.55-.39-1.37.15-1.83.55-.46,1.37-.39,1.83.15.14.17.28.34.42.51.45.56.37,1.37-.19,1.83-.24.2-.53.29-.82.29ZM331.08,702.09c-.34,0-.69-.13-.94-.4-.49-.52-.47-1.34.05-1.83.16-.15.32-.3.49-.45.53-.48,1.35-.45,1.83.08.49.53.45,1.35-.08,1.83-.15.14-.3.28-.45.42-.25.24-.57.35-.89.35ZM377.58,699.67c-.28,0-.55-.09-.79-.27-.16-.13-.33-.25-.49-.37-.58-.43-.7-1.24-.27-1.81.43-.58,1.24-.7,1.82-.27.18.13.35.27.53.4.57.44.67,1.25.24,1.82-.25.33-.64.51-1.03.51ZM337.74,697.1c-.45,0-.88-.23-1.12-.65-.36-.62-.15-1.41.47-1.77.19-.11.38-.22.58-.33.63-.35,1.41-.13,1.76.5.35.63.12,1.42-.5,1.76-.18.1-.36.2-.54.31-.2.12-.43.18-.65.18ZM370.44,695.39c-.18,0-.36-.04-.53-.11-.19-.09-.38-.17-.57-.25-.66-.28-.96-1.05-.68-1.7.28-.66,1.05-.96,1.71-.68.2.09.41.18.61.27.65.29.95,1.06.65,1.72-.22.48-.69.77-1.19.77ZM345.37,693.78c-.56,0-1.07-.36-1.24-.92-.21-.69.18-1.41.87-1.62.21-.06.42-.13.64-.19.69-.19,1.41.21,1.6.9.19.69-.21,1.41-.9,1.6-.2.06-.39.11-.59.18-.12.04-.25.06-.37.06ZM362.5,692.89c-.08,0-.16,0-.24-.02-.2-.04-.4-.08-.61-.11-.71-.12-1.18-.79-1.06-1.5.12-.71.79-1.18,1.5-1.06.22.04.44.08.65.12.7.13,1.17.81,1.03,1.52-.12.62-.66,1.05-1.28,1.05ZM353.56,692.32c-.68,0-1.25-.53-1.29-1.22-.04-.72.5-1.33,1.22-1.37.22-.01.44-.03.67-.03.72-.03,1.32.53,1.35,1.24.03.71-.53,1.32-1.24,1.35-.2,0-.41.02-.61.03-.03,0-.06,0-.08,0Z"/>
            </g>
          </g>
        </g>
      </g>
    </g>
  </g>
</svg>