<?xml version="1.0" encoding="UTF-8"?>
<svg id="Layer_2" data-name="Layer 2" xmlns="http://www.w3.org/2000/svg" xmlns:xlink="http://www.w3.org/1999/xlink" viewBox="0 0 1044 1044">
  <defs>
    <style>
      .cls-1 {
        fill: #223e77;
      }

      .cls-2 {
        fill: #fed96f;
      }

      .cls-3 {
        fill: #fff;
        filter: url(#drop-shadow-1);
      }

      .cls-4 {
        opacity: .3;
      }

      .cls-5 {
        fill: #808285;
        stroke: #000;
        stroke-linecap: round;
        stroke-linejoin: round;
        stroke-width: 2.02px;
      }

      .cls-6 {
        fill: #fdc00f;
      }
    </style>
    <filter id="drop-shadow-1" x="0" y="0" width="1044" height="1044" filterUnits="userSpaceOnUse">
      <feOffset dx="5" dy="5"/>
      <feGaussianBlur result="blur" stdDeviation="8"/>
      <feFlood flood-color="#000" flood-opacity=".75"/>
      <feComposite in2="blur" operator="in"/>
      <feComposite in="SourceGraphic"/>
    </filter>
  </defs>
  <g id="Layer_1-2" data-name="Layer 1">
    <g>
      <circle class="cls-3" cx="517" cy="517" r="498"/>
      <g>
        <path class="cls-1" d="M297.55,461.69v212.5c0,24.28,170.79,76.07,219.46,76.07s219.45-51.79,219.45-76.07v-212.5h-438.91Z"/>
        <polygon class="cls-4" points="297.55 560.17 516.99 643 736.46 560.17 736.46 483.1 297.55 483.1 297.55 560.17"/>
        <polygon class="cls-1" points="516.99 283.73 103.69 439.72 516.99 595.73 930.31 439.72 516.99 283.73"/>
        <polygon class="cls-5" points="516.99 595.73 103.69 439.72 103.69 461.13 516.99 617.13 930.31 461.13 930.31 439.72 516.99 595.73"/>
        <g>
          <path class="cls-6" d="M762.53,633.88h-18.42s-40.45,57.13-13.84,114.44h46.1c26.61-57.31-13.84-114.44-13.84-114.44Z"/>
          <g>
            <path class="cls-2" d="M767.89,738.88c.97-5.22.49-11.53.81-18.12.16-3.31.11-6.71-.32-10.15-.29-3.44-.59-6.93-.9-10.42-.17-3.48-.98-6.87-1.52-10.24-.6-3.32-1.19-6.62-1.76-9.79-1.67-6.19-2.8-12.08-4.47-16.85-2.86-9.74-5.57-15.74-5.58-15.74,0,0,2.27,6.3,4.39,16.24,1.31,4.87,2.01,10.85,3.19,17.07.33,3.16.68,6.44,1.03,9.76.28,3.32.84,6.67.75,10.08.05,3.38.1,6.77.14,10.1.18,3.32-.03,6.57-.4,9.71-.78,6.2-.7,12.14-1.99,16.89-1.02,4.48-1.84,8.16-2.46,10.91h7.67c.4-2.66.85-5.74,1.41-9.44Z"/>
            <path class="cls-2" d="M745.38,737.4c-1.28-4.75-1.21-10.69-1.98-16.89-.39-3.14-.58-6.39-.4-9.71.05-3.32.09-6.72.14-10.1-.09-3.41.48-6.75.75-10.08.36-3.32.7-6.61,1.04-9.76,1.17-6.22,1.88-12.2,3.19-17.07,2.12-9.94,4.38-16.24,4.38-16.24,0,0-2.72,6-5.57,15.74-1.68,4.77-2.82,10.66-4.47,16.85-.57,3.18-1.16,6.47-1.77,9.79-.53,3.38-1.35,6.74-1.52,10.24-.31,3.49-.61,6.98-.91,10.42-.42,3.44-.46,6.84-.31,10.15.32,6.6-.17,12.91.8,18.12.56,3.7,1.01,6.77,1.42,9.44h7.67c-.62-2.75-1.45-6.43-2.47-10.91Z"/>
            <path class="cls-2" d="M780.9,730.61c.57-3.29.84-6.79.78-10.44.21-3.65-.09-7.36-.48-11.12-.17-3.77-1.14-7.44-1.75-11.16-3.18-14.73-9.55-27.62-14.8-36.5-5.36-8.83-9.69-13.83-9.69-13.83,0,0,3.98,5.45,8.67,14.74,4.59,9.29,9.9,22.58,11.93,36.74.33,3.55,1.02,7.04.92,10.55.11,3.5.17,6.9-.26,10.18-.16,3.28-.61,6.37-1.34,9.25-.53,2.92-1.13,5.62-2.08,7.97-1.43,4.88-3.21,8.58-4.57,11.1-.06.1-.07.15-.12.23h8.22c.55-1.2.93-2.4,1.42-3.62.48-1.58.97-3.05,1.38-4.9.86-2.74,1.35-5.85,1.73-9.19Z"/>
            <path class="cls-2" d="M753.33,647.56l-3.74,100.75h7.48l-3.74-100.75Z"/>
            <path class="cls-2" d="M738.38,748.08c-1.36-2.52-3.14-6.22-4.57-11.1-.95-2.35-1.55-5.06-2.07-7.97-.73-2.87-1.19-5.97-1.34-9.25-.43-3.28-.38-6.68-.26-10.18-.1-3.5.6-6.99.91-10.55,2.03-14.16,7.35-27.45,11.94-36.74,4.69-9.29,8.67-14.74,8.67-14.74,0,0-4.32,5-9.69,13.83-5.25,8.87-11.61,21.77-14.79,36.5-.61,3.72-1.58,7.39-1.76,11.16-.39,3.76-.69,7.47-.47,11.12-.06,3.65.21,7.15.79,10.44.38,3.34.86,6.45,1.71,9.19.42,1.86.91,3.36,1.38,4.92.51,1.2.86,2.39,1.42,3.59h8.23c-.04-.08-.06-.13-.11-.23Z"/>
          </g>
        </g>
        <path class="cls-2" d="M732.48,633.88c0-11.52,9.33-20.84,20.84-20.84s20.85,9.32,20.85,20.84-9.33,20.84-20.85,20.84-20.84-9.32-20.84-20.84Z"/>
        <path class="cls-4" d="M451.31,439.73c0-21.51,29.41-38.93,65.69-38.93s65.69,17.42,65.69,38.93-29.41,38.93-65.69,38.93-65.69-17.43-65.69-38.93Z"/>
        <path class="cls-6" d="M581.35,447.59c-2.22,6.39-7.08,12.21-13.88,17.04l-.32,1.08,175.47,51.86v116.3h21.41v-132.29l-182.68-53.99Z"/>
        <path class="cls-5" d="M451.31,434.32c0-18.52,25.32-33.52,56.55-33.52s56.55,15,56.55,33.52-25.32,33.51-56.55,33.51-56.55-15-56.55-33.51Z"/>
      </g>
    </g>
  </g>
</svg>