<?xml version="1.0" encoding="UTF-8"?>
<svg id="Layer_2" data-name="Layer 2" xmlns="http://www.w3.org/2000/svg" viewBox="0 0 692.48 629.64">
  <defs>
    <style>
      .cls-1 {
        fill: #ff6b17;
      }
    </style>
  </defs>
  <g id="Layer_1-2" data-name="Layer 1">
    <path class="cls-1" d="M220.53,94.76c0-10.37-.05-19.42,0-28.47.23-38.67,24.82-64.92,63.35-65.68,41.51-.82,83.06-.8,124.57-.01,38.56.73,63.21,26.91,63.49,65.55.07,9.27.01,18.54.01,28.61h9.59c47.91,0,95.83,0,143.74,0,27.42,0,48.99,10.62,60.7,36.12,4.06,8.85,6.14,19.39,6.17,29.17.39,134.9.38,269.79.19,404.69-.06,38.01-27.43,64.86-65.32,64.87-187.23.04-374.47.04-561.7,0-38.32,0-65.13-26.3-65.18-64.74C-.05,429.98-.03,295.09.12,160.19c.05-39.36,26.71-65.23,66.93-65.38,47.91-.18,95.83-.04,143.74-.04h9.73ZM518.3,361.89v63.67h-31.11v-63.55H204.04v63.49h-31.76v-63.43H31.77v7.75c0,64.37-.02,128.74.01,193.12.01,23.23,12.23,35.41,35.45,35.41,185.99.01,371.98.01,557.97,0,23.25,0,35.49-12.16,35.5-35.38.04-64.37.02-128.74,0-193.12,0-2.58-.27-5.17-.42-7.96h-141.98ZM660.38,330.01c.13-2.79.33-4.95.33-7.12.02-53.82.05-107.65,0-161.47-.02-22.95-12.02-34.96-35.01-34.96-186.29-.03-372.58-.03-558.87,0-23.05,0-35.02,11.97-35.04,34.92-.05,53.82-.02,107.65,0,161.47,0,2.34.27,4.67.42,7.16h628.18ZM251.97,94.16h188.53c0-11.63.54-22.69-.13-33.67-.96-15.73-13.77-28.1-29.65-28.21-43-.31-86-.32-129,0-15.88.12-28.71,12.53-29.64,28.22-.65,10.99-.12,22.04-.12,33.66Z"/>
  </g>
</svg>