<?xml version="1.0" encoding="UTF-8"?>
<svg id="Layer_2" data-name="Layer 2" xmlns="http://www.w3.org/2000/svg" viewBox="0 0 847.28 494.95">
  <defs>
    <style>
      .cls-1 {
        fill: #ff6b17;
      }
    </style>
  </defs>
  <g id="Layer_1-2" data-name="Layer 1">
    <g>
      <g>
        <path class="cls-1" d="M423.64,260.39c-69.37,0-125.8-56.43-125.8-125.8S354.27,8.79,423.64,8.79s125.8,56.43,125.8,125.8-56.43,125.8-125.8,125.8ZM423.64,35.59c-54.59,0-99,44.41-99,99s44.41,99,99,99,99-44.41,99-99-44.41-99-99-99Z"/>
        <path class="cls-1" d="M630.11,494.95H217.16l-.97-6.65c-1.47-10.15-2.22-20.38-2.22-30.4,0-115.61,94.06-209.67,209.67-209.67s209.67,94.06,209.67,209.67c0,10.03-.75,20.26-2.22,30.4l-.97,6.65ZM249.04,469.18h349.2c.73-6.52,1.09-13.05,1.09-19.48,0-96.88-78.82-175.69-175.69-175.69s-175.69,78.82-175.69,175.69c0,6.43.37,12.95,1.09,19.48Z"/>
      </g>
      <path class="cls-1" d="M844.59,383.13h-201.88l-1.87-5.08c-16.52-44.8-46.15-82.98-85.67-110.39l-6.56-4.55,4.72-6.43c30.59-41.65,79.64-66.52,131.22-66.52,89.72,0,162.72,73,162.72,162.72,0,7.78-.58,15.72-1.72,23.59l-.97,6.65ZM659.26,357.78h155.99c.43-4.33.65-8.66.65-12.93,0-71.31-58.02-129.33-129.33-129.33-38.69,0-75.6,17.61-100.06,47.43,32.84,24.38,57.84,56.96,72.75,94.83ZM204.56,383.13H2.69l-.97-6.65c-1.14-7.86-1.72-15.8-1.72-23.6,0-89.73,73-162.72,162.72-162.72,51.58,0,100.63,24.87,131.22,66.52l4.72,6.43-6.55,4.55c-39.52,27.41-69.14,65.58-85.67,110.39l-1.87,5.08ZM30.06,359.01h158.68c15.17-38.52,40.6-71.67,74.01-96.46-24.89-30.33-62.43-48.25-101.79-48.25-72.54,0-131.56,59.02-131.56,131.56,0,4.34.22,8.75.67,13.15ZM684.56,196.71c-54.23,0-98.36-44.12-98.36-98.36S630.32,0,684.56,0s98.35,44.12,98.35,98.35-44.12,98.36-98.35,98.36ZM684.56,25.3c-40.28,0-73.06,32.77-73.06,73.06s32.77,73.06,73.06,73.06,73.06-32.77,73.06-73.06-32.77-73.06-73.06-73.06ZM162.72,196.71c-54.23,0-98.36-44.12-98.36-98.36S108.49,0,162.72,0s98.35,44.12,98.35,98.35-44.12,98.36-98.35,98.36ZM162.72,24.64c-40.65,0-73.72,33.07-73.72,73.72s33.07,73.72,73.72,73.72,73.72-33.07,73.72-73.72S203.37,24.64,162.72,24.64Z"/>
    </g>
  </g>
</svg>