<?xml version="1.0" encoding="UTF-8"?>
<svg id="Layer_2" data-name="Layer 2" xmlns="http://www.w3.org/2000/svg" viewBox="0 0 890.16 663.98">
  <defs>
    <style>
      .cls-1 {
        fill: #ff6b17;
      }
    </style>
  </defs>
  <g id="Layer_1-2" data-name="Layer 1">
    <path class="cls-1" d="M882.27,198.28L450.69,1.22c-3.56-1.63-7.65-1.63-11.22,0L7.89,198.28c-4.81,2.2-7.89,7-7.89,12.28s3.08,10.09,7.89,12.28l149.72,68.36v154.66s0,0,0,.01v15.95s0,.02,0,.03c0,.2,0,.4.02.61,0,.04,0,.07,0,.11,0,.17.02.34.04.52,0,.07.01.13.02.2.01.13.03.26.05.39.01.11.03.21.05.32.01.08.03.16.04.24.03.15.05.3.09.45,0,.03.01.06.02.09.33,1.47.89,2.86,1.66,4.11.05.09.11.17.16.26.06.09.11.18.17.27.82,1.21,1.84,2.29,3.04,3.2.03.02.06.05.09.07.12.09.24.17.36.25.07.05.14.1.21.15.09.06.17.11.26.17.11.07.23.14.34.21.05.03.11.06.16.09.15.09.31.17.47.26.03.01.06.03.08.04.18.09.37.19.56.27,0,0,.01,0,.02,0,43.54,19.82,88.23,34.98,132.83,45.04,45.1,10.18,91.38,15.44,137.55,15.64.91,0,1.81,0,2.72,0,45.72,0,92.57-4.95,139.3-14.72,47.97-10.03,97.16-25.42,146.21-45.75.67-.27,1.32-.6,1.94-.97,1.48-.9,2.74-2.06,3.75-3.39.03-.03.05-.07.08-.1.08-.11.16-.23.24-.34.05-.07.1-.14.15-.22.05-.08.1-.15.15-.23.07-.11.15-.23.22-.34.02-.04.04-.08.07-.12.84-1.44,1.43-3.04,1.69-4.76.11-.71.16-1.42.16-2.15v-15.49c0-.1,0-.19,0-.29v-154.75l49.86-22.77v209.72c-17.04,6.23-29.23,22.6-29.23,41.77,0,12.26,4.99,23.37,13.04,31.42l-39.5,93.89c-1.75,4.17-1.3,8.94,1.2,12.71,2.5,3.77,6.72,6.03,11.25,6.03h116.96c4.52,0,8.74-2.26,11.25-6.03,2.5-3.77,2.95-8.54,1.2-12.71l-39.5-93.89c8.05-8.05,13.04-19.17,13.04-31.42,0-20.44-13.87-37.7-32.69-42.88v-220.95l72.86-33.27c4.81-2.2,7.89-7,7.89-12.28,0-5.29-3.08-10.09-7.89-12.28ZM835.79,636.98h-76.3l30.8-73.2c2.39.4,4.85.61,7.35.61s4.96-.21,7.36-.61l30.8,73.2ZM815.1,519.93c0,9.63-7.83,17.46-17.46,17.46s-17.46-7.83-17.46-17.46,7.83-17.46,17.46-17.46,17.46,7.83,17.46,17.46ZM705.55,291.8v134.38c-42.87-16.67-85.72-29.53-127.64-38.29-47.65-9.96-95.43-14.91-142.02-14.71-46.17.2-92.45,5.46-137.55,15.64-38.1,8.6-76.27,20.92-113.73,36.68v-134.07c163.71-68.92,338.86-68.8,520.93.36ZM186.7,453.99c163.36-71.28,336.77-71.28,515.77,0-179,71.28-352.4,71.28-515.77,0ZM718.61,267.89c-46.27-17.79-92.58-31.45-137.71-40.62-47.37-9.63-94.79-14.59-140.95-14.74-46.58-.14-93.2,4.58-138.53,14.07-43.76,9.16-87.52,23.01-130.14,41.17l-125.27-57.2L445.08,28.34l399.07,182.22-125.54,57.32Z"/>
  </g>
</svg>