<?xml version="1.0" encoding="UTF-8"?>
<svg id="Layer_2" data-name="Layer 2" xmlns="http://www.w3.org/2000/svg" viewBox="0 0 839.09 839.1">
  <defs>
    <style>
      .cls-1 {
        fill: #ff6b17;
      }
    </style>
  </defs>
  <g id="Layer_1-2" data-name="Layer 1">
    <g>
      <path class="cls-1" d="M419.53,0C188.2,0,0,188.22,0,419.56s188.2,419.54,419.53,419.54,419.56-188.22,419.56-419.54S650.89,0,419.53,0ZM760.28,378.84c1.62,3.01,3.05,5.55,4.26,7.72,2,3.52,4.03,7.15,4.22,7.86-.35,1.09-3.24,4.56-4.97,6.62-3.89,4.7-6.36,8.14-7.89,10.97-2.48-1.86-4.99-4.31-5.88-6.61-3.17-8.13-14.11-13.16-22.46-13.16-6.17,0-11.27,2.64-13.95,7.25-3.55,6.1-2.52,14.06,3.17,24.31.77,1.93,3.08,7.3,7.06,12.81,3.01,4.12,6.51,5,8.91,5,3.56,0,6.04-1.86,7.51-2.98.43-.31,1.09-.8,1.36-.88.13,0,.68.04,1.77.51,3.18,1.36,6.48,2.2,9.66,3.02,2.71.71,7.23,1.88,7.97,2.48,0,.01.19,1.14-1.09,4.14-1.93,4.58-3.07,8.91-4.16,13.11-3.24,12.35-5.37,20.51-26.25,27.14l-2.89.92-1.59,2.6c-.75,1.21-17.85,29.64-15.9,64.26-1.35,2.87-4.81,9.62-11.58,19.96-3.4,5.17-6.09,13.55-9.83,25.12-8.2,25.45-20.6,63.93-47.71,81.43l-.95.71c-7.81,6.82-31.72,24.53-48.16,24.53-5.6,0-12.43-1.83-15.68-16.03l-.43-1.52-.69-1.15s-2.57-4.28-3.37-14.42c-1.11-13.83-3.42-98.17,2.9-122.95,5.99-23.49-3.32-37.23-10.11-47.28-1.96-2.9-3.82-5.66-5.06-8.34-6.34-12.97-16-28.71-26.05-30.04l-1.2-.09c-1.79,0-4.1.5-11.82,2.19-14.94,3.28-42.76,9.38-63.07,9.38-16.13,0-18.27-3.88-18.29-3.91-10.57-21.14-31.43-52.3-37.23-58.66-4.82-5.32-6.4-8.53-3.74-14.76,5.57-13.04,6.48-29.39,2.47-44.86l-.28-1.09c-3.2-12.26-3.54-13.54,13.08-20.04,25.06-9.81,34.92-15.34,38.89-34.61,2.28-11,8.2-23.18,17.98-24.31,3.69-.42,7.05-1.06,10.08-1.63,4.6-.88,8.57-1.73,9.11-.69,4.1,6.82,9.35,10.57,14.8,10.57,5.06,0,11.16-3.47,11.78-13.22.39-6.15,4.13-7.22,10.35-4.87,14.89,5.65,26.51,10.76,29.47,20.77,4.09,13.8,13.49,22.39,24.51,22.39,4.91,0,9.85-1.8,14.31-5.2,2.24-1.71,4.48-3.67,6.72-5.65,3.83-3.38,9.1-8.02,11.73-8.02,1.05,0,2.52,1.69,3.09,2.4,7.35,9.08,12.86,13.99,21.02,13.99,1.29,0,2.65-.13,4.16-.31.78-.09,1.63-.19,2.65-.25,1.1,0,2.49.24,4.05.47,2.62.37,5.87.85,9.19.85,7.1,0,12.6-2.22,16.37-6.6,4.69-5.46,6.12-13.61,4.38-24.91-3.02-19.99-14.95-30.54-34.43-30.54-6.17,0-12.02,1.01-16.7,1.85l-3.02.5c-2.07.34-4.17.85-6.32,1.37-2.85.71-5.55,1.38-7.79,1.38-2.08,0-8.4,0-14.19-22.53-1.57-7.05-8.69-20.77-23.76-19.37l-7.45.63v7.48s-.05,4.08-1.28,7.9c-1.49,4.71-3.2,4.71-3.85,4.71-1.17,0-3.71-.44-8.13-3.17-1.69-3.44-3.29-7.69-3.29-9.45v-2.1l-1.01-1.84c-1.7-3.08-5.85-6.38-12.46-6.38-8.37,0-19.14,5.31-32.83,16.19-.6-.05-1.23-.08-1.87-.08-5.74,0-10.61,2.62-13.36,7.22-1.46,2.43-2.14,4.89-2.72,7.06-1.12,4.11-1.69,6.17-6.98,8.37l-2.64,1.19-.76,1.34c-4.48-4.01-9.39-5.99-12.67-6.95-1.66-2.54-4.14-7.28-3.54-12.16.47-3.89,2.85-7.38,7.27-10.68,12.02-6.38,17.75-11.07,20.57-14.37,3.29.62,7.82.35,11.3-1.55l1.3-.69c8.79-4.64,9.77-9.46,8.07-20.71-.4-2.7.62-7.25,3.31-10.38,2.23-2.58,4.67-3.22,7.79-2.1,6.34,2.26,13.67,3.55,20.14,3.55,12.09,0,17.11-4.53,19.18-8.33,1.46-2.66,3.2-8.21-1.58-15.63-4.46-6.99-10.42-9.54-14.61-10.83,7.3-14.52,23.64-28.06,31.25-25.52,4.69,1.58,8.58,2.33,11.88,2.32,4.62,0,12.07-1.53,14.67-10.87,2.68,1.95,5.7,4.47,8.85,7.08,10.62,8.83,21.7,17.91,32.55,16.98,1.11-.1,2.15-.1,2.6-.07,1.33,1.2,4.02,3.5,9.11,3.5,1.1,0,2.42-.09,4.07-.39,2.09-.36,7.16-1.37,19.9-11.92,72.63,61.13,122.98,147.86,137.01,246.18-10.47-.86-20.91-4.28-31.04-10.51l-2.09-.91c-.54-.15-3.41-.9-6.77-.9-7.87,0-11.48,4.07-12.93,6.49-4.68,7.84.74,17.92,2.53,21.23ZM741.91,421.46c-2.94-.03-5.4.66-7.4,1.63-1.76-3.1-2.67-5.54-2.67-5.55l-.57-1.23c-2.24-3.97-3.02-6.43-3.27-7.77,2.98.16,6.29,2.01,6.84,2.76,1.45,3.71,4.01,7.19,7.07,10.16ZM488.05,256.14c7.32-5.11,9.08-11.59,10.22-15.77.21-.78.46-1.63.66-2.26.5.04.97.15,1.01.17l4.36,1.55,3.58-2.95c12.92-10.7,20.13-13.73,23.57-14.57,1.55,5.82,4.53,11.38,5.31,12.76l.93,1.69,1.61,1.09c18.07,12.27,32.97,7.68,38.31-8.99.05-.16.09-.32.15-.48.63,1.37.93,2.57.96,2.66,3.87,15.04,11.18,35.04,30.03,35.04,4.22,0,8.18-.98,11.7-1.85,1.68-.41,3.34-.84,4.99-1.09l3.24-.55c4.29-.77,9.15-1.62,13.89-1.62,8.21,0,16.09,2.03,18.33,16.72,1.06,6.94.31,10.72-.66,11.84-.68.8-2.79.92-3.99.92-2.13,0-4.55-.34-6.87-.67-2.44-.36-4.66-.63-6.37-.63l-1.17.03c-1.21.09-2.31.2-3.33.32-.85.09-1.59.21-2.32.21-1.65,0-5.92-4.98-8.32-7.95-4.53-5.6-9.85-8.44-15.78-8.44-8.78,0-16.07,6.41-22.5,12.08-1.93,1.71-3.88,3.43-5.83,4.91-1.1.85-2.78,1.85-4.43,1.85-3.35,0-7.01-4.41-8.87-10.73-5.5-18.54-25.06-25.94-39.32-31.35-4.02-1.52-7.84-2.3-11.36-2.3-9.14,0-16.29,5.18-19.45,13.84-3.05-3.45-7.17-5.3-12.26-5.5ZM109.03,281.9c.79,3.52-1.66,7.5-3.81,10.23-8.81,10.95-27.52,19.47-37.75,19.47-19.87,0-29.62,18.17-32.26,28.46-13.82,31.89,0,54.09,4.56,60.13,3.68,14.18-4.94,29.88-14.63,42.18-.43-7.55-.7-15.15-.7-22.8,0-91.8,31.53-176.3,84.23-243.45,5.3,3.27,11.49,5.08,18.22,5.08,9.65,0,18.71-3.58,23.07-9.13,1.45-1.85,2.51-3.45,3.42-4.84,2.11-3.21,2.68-4.08,10.73-6.46,12.26-3.63,20.24-11.54,23.76-15.71.27-.06.52-.09.74-.11.38,1.89.41,5.44.43,7.93.05,5.41.13,11.53,2.03,17.25,1.29,3.87,2.42,6.99,3.43,9.76,1.93,5.36,3.23,8.95,4.2,13.83-1.89-.49-4-.85-6.3-.95l-1.23-.03c-12.54,0-23.68,8.41-31.82,14.55l-2.9,2.17c-.54.39-53.39,45.57-47.43,72.45ZM121.92,586.1c-13.39-32.43-23.15-39.05-33.64-43.83-4.8-2.2-7.71-3.53-11.94-18.37-11.42-39.97-6.66-59.45,5.42-79.56l1.34-2.24-.21-2.58c-.41-5.52.62-17.19,5.05-20.44l1.53-1.19.86-1.59s2.37-4.25,6.08-4.25c2.52,0,11.99,2.06,27.28,27.88.91,1.96,9.31,19.16,24,23.17,6.74,1.85,27.23,14.47,33.01,26.68,2.12,4.47,1.11,6.76.77,7.51-3.05,6.89-3.11,12.93-.15,17.92,5.27,8.95,17.34,10.01,27.04,10.85,2.5.21,4.79.39,6.72.8,31.71,6.67,38.87,15.05,40.47,18.33.65,1.31,1.17,3.24-.45,6.57-12.25,25.01-18.71,64.87-9.02,80.78l1.72,2.68,1.95.59c-1.3,1.03-3.31,2.41-6.38,4.11-13.82,7.66-55.89,30.94-41.29,58.38q7.1,13.41-.85,17.69l-1.82.99-13.57,20.88c-22.73-16.75-43.59-35.89-62.27-57.03,7.54-21.79,13.99-56.85-1.61-94.72ZM419.53,814.65c-81.55,0-157.42-24.84-220.43-67.36l11.69-18.01c18.53-10.83,14.25-22.4,5.64-38.62-6.15-11.57,19.16-27.82,34.79-36.47,7.73-4.28,17.88-11.1,16.72-20.93-.64-5.43-4.65-9.19-8.9-11.32-3.39-10.49-.39-40.44,10.66-63.02,3.49-7.14,3.64-14.35.46-20.88-5.95-12.17-22.88-21.04-51.96-27.16-2.26-.47-5.22-.77-8.46-1.04-3.83-.34-12.81-1.12-14.32-2.63,0-.01-.14-.94.92-3.29,2-4.51,3.47-11.84-.95-21.12-8.3-17.5-33.07-32.57-43.46-35.4-6.29-1.71-12.03-11.19-13.88-15.05-14.54-24.61-28.18-36.58-41.68-36.58-9.79,0-16.49,6.52-19.58,11.38-9.64,8.49-10.41,24.41-10.29,30.94-15.39,26.75-16.94,51.52-5.86,90.31,5.86,20.46,12.34,24.8,20.85,28.7,5.94,2.7,13.32,6.09,25.33,35.22,11.56,28.08,9.21,54.52,4.17,73.64-45.21-56.5-75.24-125.59-83.91-201.14,16.53-17.01,36.32-44.22,27.78-70.93l-.55-1.66-1.09-1.27c-.62-.71-14.96-17.71-2.82-44.97l.5-1.51c.02-.16,3.92-16.59,16.55-16.59,16.24,0,39.33-11.71,50.45-25.56,6.32-7.89,8.75-16.18,7.03-23.97-2.63-11.84,30.2-47.74,41.14-55.76l3.09-2.3c6.29-4.75,14.91-11.25,22.47-11.25h.02c2.85.12,5.39,1.17,7.63,2.07,2.25.93,4.39,1.81,6.91,1.81,2.83,0,5.4-1.15,7.22-3.21,3.15-3.57,2.84-8.28,2.33-12.43-1.25-10.06-3.22-15.46-5.93-22.95-.95-2.65-2.04-5.66-3.27-9.35-1.1-3.3-1.16-7.86-1.2-12.27-.1-8.43-.27-24.12-16.05-24.12-2.54,0-5.33.48-8.52,1.46l-2.74.88-1.61,2.34c-.07.09-6.05,8.65-16.94,11.87-12.42,3.69-15.68,6.98-19.72,13.15-.7,1.06-1.49,2.28-2.58,3.69-.66.76-4.47,2.93-10.29,2.93-2.32,0-5.08-.36-7.78-1.55C191.64,78.43,299.38,24.45,419.53,24.45c90.71,0,174.31,30.79,241.07,82.37-5.49,4.33-8.68,6.08-9.76,6.32-.12.01-.23.04-.34.06-2.27-1.86-5.29-3.44-10.8-3.44-.95,0-2.05.05-3.47.17-4.51,0-14.13-7.98-20.47-13.27-4.96-4.13-9.65-8.03-14.09-10.65-5.28-3.12-8.36-4.6-11.57-4.6l-4.31.26-2.41,2.6c-2.86,3.09-2.56,6.85-2.4,9.11.07.74.16,1.63.07,2.62,0,.24-.03.46-.05.65-1.09-.12-2.97-.46-5.91-1.45-2.3-.76-4.73-1.15-7.22-1.15-18.18,0-36.56,20.42-43.84,34.95-2.3,4.62-4.36,10.03-2.08,15.1,2.23,5.01,7.06,6.31,10.23,7.17,2.9.79,4.82,1.38,6.46,3.25-.79.1-1.78.17-2.95.17-4.59,0-10.08-.99-14.65-2.62-9.43-3.37-19.1-.74-25.6,6.82-5.49,6.36-8.27,15.56-7.1,23.44.28,1.79.43,3,.5,3.83,0,.02-.03.03-.05.04l-1.3.72c-.46,0-1.36-.23-2.15-.44-1.34-.34-2.85-.74-4.63-.74-4.52,0-8.18,2.69-9.63,6.95-1.99,2.12-9.15,6.8-16.01,10.41l-.96.61c-8.54,6.15-13.38,13.7-14.37,22.43-1.61,14.14,7.76,25.31,8.83,26.54l2.04,2.24,2.93.46c.05,0,5.13.85,8.68,4.71-13.11,3.94-23.02,17.05-26.95,36.13-2.15,10.4-4.68,13.27-28.88,22.74-28.01,10.94-27.25,22.68-22.92,39.32l.29,1.06c3.07,11.87,2.45,24.71-1.68,34.36-7.25,16.86,2.51,27.57,6.66,32.14,4.51,4.98,24.32,34.22,34.7,55,4.36,8.68,15.1,12.92,32.86,12.92,22.08,0,51.02-6.35,66.57-9.76,3.27-.72,5.83-1.3,7.26-1.6,3.12,2.51,9.28,11.81,13.58,20.59,1.71,3.74,4.04,7.18,6.3,10.51,6.17,9.12,12,17.72,7.82,34.11-7.27,28.41-4.32,116.28-3.36,128.29.89,11.29,3.61,17.78,5.16,20.65,5.94,23.84,22.08,27.44,31.26,27.44,24.54,0,53.44-23.86,58.44-28.17,31.64-20.75,45.02-62.26,53.89-89.79,2.95-9.17,5.75-17.84,7.95-21.18,10.24-15.63,13.64-24.04,13.78-24.37l.72-1.77-.16-1.89c-1.93-24.82,8.29-46.93,12.06-54.15,26.63-9.44,30.5-24.32,33.94-37.51,1.01-3.79,1.95-7.38,3.42-10.86,2.93-6.9,3.17-12.64.77-17.52-1.93-3.91-5.07-6.33-8.61-8,1.36-1.29,2.31-3.01,2.65-5.01.19-1.18.2-2.18.11-3.21.07-.21.78-2.25,6.45-9.06,11.5-13.81,10.84-17.94,2.42-32.9-1.18-2.1-2.56-4.55-4.12-7.45-.64-1.2-1.12-2.2-1.47-3.02,12.74,7.41,26.16,11.41,39.5,11.92,1.3,13,1.98,26.19,1.98,39.54,0,217.86-177.23,395.1-395.11,395.1Z"/>
      <path class="cls-1" d="M394.04,86.37c2.59-3.49,18.48-7.14,33.33-7.63l4.22-.15,2.31-3.52c5.82-8.82,6.99-16.59,3.47-23.12-4.52-8.41-15.43-12.34-34.33-12.34-4.43,0-8.62.23-11.93.45-12,.8-16.52,4.68-20.13,8.6-.31.36-.6.73-.95.94-1.21,0-3.51-.44-5.76-.89-3.79-.75-8.49-1.69-13.43-1.69-7.79,0-14.44,2.36-19.78,6.99-5.09,4.44-8.28,6.23-9.94,6.97-3.05-5.61-7.17-8.85-17.78-8.85-2.24,0-4.99.14-8.32.45-8.53.78-14.1,4-16.59,9.57-3.58,8.07,1.86,16.01,2.99,17.51l1.84,2.46,3.03.64c3.17.66,5.11,1.35,6.23,1.87-1.62,1.93-5.03,4.74-8.15,6.55l-1.17.69-.88.99c-11.78,13.52-15.69,24.92-11.63,33.86,2.84,6.27,9.48,10.01,17.71,10.01,11.07,0,26.86-7.07,35.35-22.61,5.4-9.87,15.41-14.46,20.48-14.46,1.08,0,1.66.21,1.74.26,3.11,2.44,7.22,3.69,12.21,3.69h0c12.55,0,28.98-7.89,35.86-17.26ZM380.93,76.7c-3.88,5.27-15.35,10.62-22.75,10.62-1.62,0-2.16-.24-2.16-.22-3.13-2.44-7.2-3.73-11.8-3.73-11.04,0-26.53,7.87-34.77,22.92-5.02,9.19-14.6,14.14-21.06,14.14-1.87,0-2.79-.43-2.88-.47-.32-.85.18-5.9,8.26-15.44,5.4-3.33,17.47-12.11,15.71-22.93-1.17-7.14-7.25-10.84-12.63-12.83,5.25-.45,8.81-.31,9.9-.12.09.18.17.36.27.56l.89,1.7c2.42,4.36,6.69,6.86,11.71,6.86,6.11,0,13.15-3.64,22.13-11.45,2.38-2.06,5.18-3,9.08-3,3.36,0,6.87.69,10.27,1.36,4.6.92,9.03,1.63,12.59.82,4.99-1.15,7.57-3.96,9.27-5.82,1.57-1.71,2.71-2.95,9.23-3.37,3.01-.2,6.81-.42,10.84-.42,17.14,0,19.97,3.73,19.99,3.74,0,.01.16.92-.8,3.04-11.44.75-33.59,3.57-41.3,14.02Z"/>
    </g>
  </g>
</svg>